<svg width="151" height="151" viewBox="0 0 151 151" fill="none" xmlns="http://www.w3.org/2000/svg">
<circle cx="75.5" cy="75.5" r="75.5" fill="#B80F0A"/>
<path d="M96.1875 104.375L91.2411 102.032C89.2654 101.091 87.5961 99.6097 86.4255 97.7604C85.2549 95.9111 84.6308 93.7686 84.625 91.5799V76.625H107.75V91.5823C107.744 93.7709 107.12 95.9134 105.95 97.7627C104.779 99.612 103.11 101.093 101.134 102.035L96.1875 104.375ZM89.25 81.25V91.5823C89.2541 92.8948 89.629 94.1795 90.3315 95.2883C91.034 96.3971 92.0355 97.2848 93.2206 97.8491L96.1875 99.2551L99.1544 97.8514C100.34 97.2869 101.342 96.3989 102.044 95.2896C102.747 94.1804 103.121 92.8952 103.125 91.5823V81.25H89.25Z" fill="white"/>
<path d="M80 99.7498H56.875V44.2498H75.375V58.1248C75.3787 59.3503 75.8671 60.5246 76.7337 61.3911C77.6002 62.2577 78.7745 62.7462 80 62.7498H93.875V69.6873H98.5V58.1248C98.5082 57.8209 98.4504 57.5188 98.3306 57.2394C98.2109 56.9599 98.032 56.7097 97.8063 56.5061L81.6188 40.3186C81.4152 40.0927 81.165 39.9138 80.8855 39.794C80.6061 39.6742 80.3039 39.6165 80 39.6248H56.875C55.6495 39.6285 54.4752 40.1169 53.6087 40.9835C52.7421 41.85 52.2537 43.0243 52.25 44.2498V99.7498C52.2537 100.975 52.7421 102.15 53.6087 103.016C54.4752 103.883 55.6495 104.371 56.875 104.375H80V99.7498ZM80 45.1748L92.95 58.1248H80V45.1748Z" fill="white"/>
</svg>
