<svg width="715" height="92" viewBox="0 0 715 92" fill="none" xmlns="http://www.w3.org/2000/svg">
<circle cx="52.5" cy="47.5" r="41.5" fill="#2F3034" fill-opacity="0.5"/>
<circle cx="368.5" cy="41.5" r="41.5" fill="#2F3034" fill-opacity="0.5"/>
<circle cx="673.5" cy="41.5" r="41.5" fill="#2F3034" fill-opacity="0.5"/>
<circle cx="41.5" cy="50.5" r="41.5" fill="#B80F0A"/>
<circle cx="359.5" cy="47.5" r="41.5" fill="#B80F0A"/>
<circle cx="662.5" cy="50.5" r="41.5" fill="#B80F0A"/>
<path d="M23.724 42.752C24.552 42.752 25.29 42.86 25.938 43.076C26.586 43.28 27.126 43.58 27.558 43.976C28.002 44.36 28.338 44.828 28.566 45.38C28.794 45.92 28.908 46.532 28.908 47.216C28.908 47.756 28.824 48.296 28.656 48.836C28.5 49.376 28.236 49.868 27.864 50.312C27.504 50.756 27.024 51.116 26.424 51.392C25.824 51.656 25.08 51.788 24.192 51.788H22.32V56H19.71V42.752H23.724ZM24.174 49.268C24.57 49.268 24.9 49.202 25.164 49.07C25.428 48.938 25.632 48.77 25.776 48.566C25.932 48.362 26.04 48.152 26.1 47.936C26.172 47.708 26.208 47.498 26.208 47.306C26.208 47.162 26.184 46.982 26.136 46.766C26.1 46.538 26.016 46.31 25.884 46.082C25.752 45.854 25.548 45.662 25.272 45.506C25.008 45.35 24.648 45.272 24.192 45.272H22.32V49.268H24.174ZM26.622 50.888L29.898 56H26.856L23.508 50.96L26.622 50.888ZM34.9478 56.216C34.2158 56.216 33.5498 56.072 32.9498 55.784C32.3618 55.484 31.8938 55.028 31.5458 54.416C31.1978 53.804 31.0238 53.024 31.0238 52.076C31.0238 51.188 31.2038 50.42 31.5638 49.772C31.9238 49.124 32.3978 48.626 32.9858 48.278C33.5738 47.918 34.1978 47.738 34.8578 47.738C35.6378 47.738 36.2258 47.87 36.6218 48.134C37.0298 48.386 37.3658 48.668 37.6298 48.98L37.5218 49.286L37.7558 48.134H40.0958V56H37.5758V54.29L37.7738 54.83C37.7498 54.83 37.6778 54.902 37.5578 55.046C37.4378 55.178 37.2578 55.34 37.0178 55.532C36.7898 55.712 36.5018 55.868 36.1538 56C35.8178 56.144 35.4158 56.216 34.9478 56.216ZM35.6678 54.164C35.9678 54.164 36.2378 54.122 36.4778 54.038C36.7178 53.942 36.9278 53.81 37.1078 53.642C37.2878 53.462 37.4438 53.24 37.5758 52.976V51.05C37.4798 50.786 37.3358 50.564 37.1438 50.384C36.9518 50.192 36.7238 50.048 36.4598 49.952C36.1958 49.844 35.9018 49.79 35.5778 49.79C35.2178 49.79 34.8818 49.886 34.5698 50.078C34.2698 50.258 34.0298 50.51 33.8498 50.834C33.6698 51.158 33.5798 51.53 33.5798 51.95C33.5798 52.37 33.6758 52.748 33.8678 53.084C34.0598 53.42 34.3118 53.684 34.6238 53.876C34.9478 54.068 35.2958 54.164 35.6678 54.164ZM42.6925 48.134H45.2125V56H42.6925V48.134ZM42.6385 45.344C42.6385 44.972 42.7825 44.666 43.0705 44.426C43.3705 44.186 43.6885 44.066 44.0245 44.066C44.3605 44.066 44.6665 44.186 44.9425 44.426C45.2305 44.666 45.3745 44.972 45.3745 45.344C45.3745 45.716 45.2305 46.022 44.9425 46.262C44.6665 46.49 44.3605 46.604 44.0245 46.604C43.6885 46.604 43.3705 46.49 43.0705 46.262C42.7825 46.022 42.6385 45.716 42.6385 45.344ZM50.3637 56.162C49.7157 56.162 49.1097 56.048 48.5457 55.82C47.9937 55.592 47.5257 55.274 47.1417 54.866L48.1857 53.48C48.5697 53.828 48.9237 54.08 49.2477 54.236C49.5837 54.38 49.8837 54.452 50.1477 54.452C50.3517 54.452 50.5317 54.434 50.6877 54.398C50.8557 54.35 50.9877 54.284 51.0837 54.2C51.1797 54.104 51.2277 53.984 51.2277 53.84C51.2277 53.636 51.1437 53.474 50.9757 53.354C50.8197 53.234 50.6157 53.138 50.3637 53.066C50.1117 52.982 49.8417 52.898 49.5537 52.814C48.8337 52.586 48.3117 52.256 47.9877 51.824C47.6757 51.38 47.5197 50.9 47.5197 50.384C47.5197 49.988 47.6217 49.592 47.8257 49.196C48.0417 48.788 48.3777 48.452 48.8337 48.188C49.3017 47.912 49.9017 47.774 50.6337 47.774C51.2937 47.774 51.8517 47.84 52.3077 47.972C52.7637 48.104 53.1957 48.32 53.6037 48.62L52.6497 50.096C52.4217 49.916 52.1637 49.766 51.8757 49.646C51.5997 49.514 51.3417 49.442 51.1017 49.43C50.8857 49.418 50.6997 49.442 50.5437 49.502C50.3997 49.562 50.2857 49.64 50.2017 49.736C50.1177 49.832 50.0757 49.934 50.0757 50.042C50.0637 50.27 50.1477 50.45 50.3277 50.582C50.5197 50.714 50.7597 50.816 51.0477 50.888C51.3357 50.96 51.6177 51.044 51.8937 51.14C52.2777 51.26 52.6077 51.422 52.8837 51.626C53.1597 51.83 53.3697 52.076 53.5137 52.364C53.6697 52.64 53.7477 52.976 53.7477 53.372C53.7477 53.852 53.6217 54.308 53.3697 54.74C53.1297 55.16 52.7577 55.502 52.2537 55.766C51.7617 56.03 51.1317 56.162 50.3637 56.162ZM59.7285 56.216C58.7685 56.216 57.9525 56.036 57.2805 55.676C56.6205 55.316 56.1165 54.818 55.7685 54.182C55.4205 53.546 55.2465 52.814 55.2465 51.986C55.2465 51.194 55.4505 50.48 55.8585 49.844C56.2665 49.208 56.8125 48.704 57.4965 48.332C58.1805 47.948 58.9425 47.756 59.7825 47.756C60.9105 47.756 61.8345 48.086 62.5545 48.746C63.2865 49.394 63.7605 50.336 63.9765 51.572L57.8565 53.516L57.2985 52.148L61.7265 50.654L61.2045 50.888C61.1085 50.576 60.9345 50.306 60.6825 50.078C60.4425 49.838 60.0765 49.718 59.5845 49.718C59.2125 49.718 58.8825 49.808 58.5945 49.988C58.3185 50.156 58.1025 50.402 57.9465 50.726C57.8025 51.038 57.7305 51.41 57.7305 51.842C57.7305 52.334 57.8205 52.748 58.0005 53.084C58.1805 53.408 58.4265 53.654 58.7385 53.822C59.0505 53.99 59.3985 54.074 59.7825 54.074C60.0585 54.074 60.3225 54.026 60.5745 53.93C60.8385 53.834 61.0965 53.708 61.3485 53.552L62.4645 55.424C62.0445 55.664 61.5885 55.856 61.0965 56C60.6165 56.144 60.1605 56.216 59.7285 56.216Z" fill="white"/>
<path d="M337.808 43.072C337.36 42.8267 336.901 42.624 336.432 42.464C335.973 42.304 335.541 42.224 335.136 42.224C334.635 42.224 334.24 42.3253 333.952 42.528C333.664 42.7307 333.52 43.0347 333.52 43.44C333.52 43.7173 333.627 43.968 333.84 44.192C334.064 44.4053 334.347 44.5973 334.688 44.768C335.04 44.9387 335.403 45.0933 335.776 45.232C336.117 45.36 336.453 45.5147 336.784 45.696C337.125 45.8667 337.429 46.0853 337.696 46.352C337.963 46.608 338.176 46.9333 338.336 47.328C338.496 47.712 338.576 48.1867 338.576 48.752C338.576 49.3493 338.421 49.904 338.112 50.416C337.803 50.928 337.349 51.344 336.752 51.664C336.155 51.9733 335.419 52.128 334.544 52.128C334.096 52.128 333.637 52.0853 333.168 52C332.709 51.904 332.256 51.7653 331.808 51.584C331.36 51.392 330.928 51.152 330.512 50.864L331.536 49.056C331.813 49.2587 332.112 49.44 332.432 49.6C332.763 49.7493 333.093 49.8667 333.424 49.952C333.755 50.0373 334.059 50.08 334.336 50.08C334.613 50.08 334.891 50.0427 335.168 49.968C335.456 49.8827 335.691 49.744 335.872 49.552C336.064 49.36 336.16 49.0933 336.16 48.752C336.16 48.5173 336.08 48.304 335.92 48.112C335.771 47.92 335.563 47.744 335.296 47.584C335.04 47.424 334.757 47.2853 334.448 47.168C334.085 47.0293 333.712 46.8693 333.328 46.688C332.944 46.5067 332.581 46.288 332.24 46.032C331.909 45.7653 331.637 45.44 331.424 45.056C331.221 44.6613 331.12 44.1813 331.12 43.616C331.12 42.9333 331.269 42.3413 331.568 41.84C331.877 41.3387 332.309 40.944 332.864 40.656C333.419 40.3573 334.059 40.192 334.784 40.16C335.733 40.16 336.501 40.272 337.088 40.496C337.685 40.72 338.219 40.9867 338.688 41.296L337.808 43.072ZM340.48 45.008H342.72V52H340.48V45.008ZM340.432 42.528C340.432 42.1973 340.56 41.9253 340.816 41.712C341.083 41.4987 341.365 41.392 341.664 41.392C341.963 41.392 342.235 41.4987 342.48 41.712C342.736 41.9253 342.864 42.1973 342.864 42.528C342.864 42.8587 342.736 43.1307 342.48 43.344C342.235 43.5467 341.963 43.648 341.664 43.648C341.365 43.648 341.083 43.5467 340.816 43.344C340.56 43.1307 340.432 42.8587 340.432 42.528ZM348.643 55.52C348.014 55.52 347.48 55.4453 347.043 55.296C346.616 55.1467 346.254 54.9653 345.955 54.752C345.656 54.5387 345.39 54.336 345.155 54.144L346.467 52.608C346.712 52.832 346.995 53.0453 347.315 53.248C347.646 53.4613 348.078 53.568 348.611 53.568C348.963 53.568 349.288 53.504 349.587 53.376C349.896 53.2587 350.142 53.0827 350.323 52.848C350.515 52.6133 350.611 52.32 350.611 51.968V50.432L350.691 50.832C350.52 51.1947 350.211 51.5147 349.763 51.792C349.315 52.0587 348.728 52.192 348.003 52.192C347.374 52.192 346.787 52.032 346.243 51.712C345.71 51.3813 345.283 50.9387 344.963 50.384C344.643 49.8187 344.483 49.1787 344.483 48.464C344.483 47.728 344.654 47.0773 344.995 46.512C345.336 45.936 345.779 45.4827 346.323 45.152C346.867 44.8213 347.443 44.656 348.051 44.656C348.659 44.656 349.182 44.7467 349.619 44.928C350.067 45.0987 350.403 45.312 350.627 45.568L350.547 45.776L350.787 45.008H352.851V52C352.851 52.6827 352.659 53.2853 352.275 53.808C351.891 54.3413 351.379 54.7573 350.739 55.056C350.11 55.3653 349.411 55.52 348.643 55.52ZM346.739 48.4C346.739 48.7733 346.824 49.1093 346.995 49.408C347.166 49.7067 347.395 49.9413 347.683 50.112C347.982 50.2827 348.312 50.368 348.675 50.368C348.984 50.368 349.256 50.3307 349.491 50.256C349.736 50.1707 349.95 50.0533 350.131 49.904C350.323 49.744 350.483 49.5467 350.611 49.312V47.6C350.515 47.3653 350.371 47.168 350.179 47.008C349.987 46.8373 349.763 46.7093 349.507 46.624C349.262 46.528 348.984 46.48 348.675 46.48C348.312 46.48 347.982 46.5653 347.683 46.736C347.395 46.896 347.166 47.12 346.995 47.408C346.824 47.696 346.739 48.0267 346.739 48.4ZM357.184 45.008L357.36 46.256L357.328 46.144C357.573 45.7067 357.92 45.3547 358.368 45.088C358.816 44.8107 359.365 44.672 360.016 44.672C360.677 44.672 361.227 44.8693 361.664 45.264C362.112 45.648 362.341 46.1493 362.352 46.768V52H360.112V47.6C360.101 47.2907 360.016 47.0453 359.856 46.864C359.707 46.672 359.451 46.576 359.088 46.576C358.747 46.576 358.448 46.688 358.192 46.912C357.936 47.136 357.739 47.44 357.6 47.824C357.461 48.208 357.392 48.6507 357.392 49.152V52H355.152V45.008H357.184ZM364.652 45.008H366.892V52H364.652V45.008ZM364.604 42.528C364.604 42.1973 364.732 41.9253 364.988 41.712C365.255 41.4987 365.537 41.392 365.836 41.392C366.135 41.392 366.407 41.4987 366.652 41.712C366.908 41.9253 367.036 42.1973 367.036 42.528C367.036 42.8587 366.908 43.1307 366.652 43.344C366.407 43.5467 366.135 43.648 365.836 43.648C365.537 43.648 365.255 43.5467 364.988 43.344C364.732 43.1307 364.604 42.8587 364.604 42.528ZM371.231 45.008L371.407 46.256L371.375 46.144C371.62 45.7067 371.967 45.3547 372.415 45.088C372.863 44.8107 373.412 44.672 374.063 44.672C374.724 44.672 375.274 44.8693 375.711 45.264C376.159 45.648 376.388 46.1493 376.399 46.768V52H374.159V47.6C374.148 47.2907 374.063 47.0453 373.903 46.864C373.754 46.672 373.498 46.576 373.135 46.576C372.794 46.576 372.495 46.688 372.239 46.912C371.983 47.136 371.786 47.44 371.647 47.824C371.508 48.208 371.439 48.6507 371.439 49.152V52H369.199V45.008H371.231ZM382.315 55.52C381.686 55.52 381.152 55.4453 380.715 55.296C380.288 55.1467 379.926 54.9653 379.627 54.752C379.328 54.5387 379.062 54.336 378.827 54.144L380.139 52.608C380.384 52.832 380.667 53.0453 380.987 53.248C381.318 53.4613 381.75 53.568 382.283 53.568C382.635 53.568 382.96 53.504 383.259 53.376C383.568 53.2587 383.814 53.0827 383.995 52.848C384.187 52.6133 384.283 52.32 384.283 51.968V50.432L384.363 50.832C384.192 51.1947 383.883 51.5147 383.435 51.792C382.987 52.0587 382.4 52.192 381.675 52.192C381.046 52.192 380.459 52.032 379.915 51.712C379.382 51.3813 378.955 50.9387 378.635 50.384C378.315 49.8187 378.155 49.1787 378.155 48.464C378.155 47.728 378.326 47.0773 378.667 46.512C379.008 45.936 379.451 45.4827 379.995 45.152C380.539 44.8213 381.115 44.656 381.723 44.656C382.331 44.656 382.854 44.7467 383.291 44.928C383.739 45.0987 384.075 45.312 384.299 45.568L384.219 45.776L384.459 45.008H386.523V52C386.523 52.6827 386.331 53.2853 385.947 53.808C385.563 54.3413 385.051 54.7573 384.411 55.056C383.782 55.3653 383.083 55.52 382.315 55.52ZM380.411 48.4C380.411 48.7733 380.496 49.1093 380.667 49.408C380.838 49.7067 381.067 49.9413 381.355 50.112C381.654 50.2827 381.984 50.368 382.347 50.368C382.656 50.368 382.928 50.3307 383.163 50.256C383.408 50.1707 383.622 50.0533 383.803 49.904C383.995 49.744 384.155 49.5467 384.283 49.312V47.6C384.187 47.3653 384.043 47.168 383.851 47.008C383.659 46.8373 383.435 46.7093 383.179 46.624C382.934 46.528 382.656 46.48 382.347 46.48C381.984 46.48 381.654 46.5653 381.355 46.736C381.067 46.896 380.838 47.12 380.667 47.408C380.496 47.696 380.411 48.0267 380.411 48.4Z" fill="white"/>
<path d="M641.724 42.752C642.552 42.752 643.29 42.86 643.938 43.076C644.586 43.28 645.126 43.58 645.558 43.976C646.002 44.36 646.338 44.828 646.566 45.38C646.794 45.92 646.908 46.532 646.908 47.216C646.908 47.756 646.824 48.296 646.656 48.836C646.5 49.376 646.236 49.868 645.864 50.312C645.504 50.756 645.024 51.116 644.424 51.392C643.824 51.656 643.08 51.788 642.192 51.788H640.32V56H637.71V42.752H641.724ZM642.174 49.268C642.57 49.268 642.9 49.202 643.164 49.07C643.428 48.938 643.632 48.77 643.776 48.566C643.932 48.362 644.04 48.152 644.1 47.936C644.172 47.708 644.208 47.498 644.208 47.306C644.208 47.162 644.184 46.982 644.136 46.766C644.1 46.538 644.016 46.31 643.884 46.082C643.752 45.854 643.548 45.662 643.272 45.506C643.008 45.35 642.648 45.272 642.192 45.272H640.32V49.268H642.174ZM644.622 50.888L647.898 56H644.856L641.508 50.96L644.622 50.888ZM653.154 56.216C652.194 56.216 651.378 56.036 650.706 55.676C650.046 55.316 649.542 54.818 649.194 54.182C648.846 53.546 648.672 52.814 648.672 51.986C648.672 51.194 648.876 50.48 649.284 49.844C649.692 49.208 650.238 48.704 650.922 48.332C651.606 47.948 652.368 47.756 653.208 47.756C654.336 47.756 655.26 48.086 655.98 48.746C656.712 49.394 657.186 50.336 657.402 51.572L651.282 53.516L650.724 52.148L655.152 50.654L654.63 50.888C654.534 50.576 654.36 50.306 654.108 50.078C653.868 49.838 653.502 49.718 653.01 49.718C652.638 49.718 652.308 49.808 652.02 49.988C651.744 50.156 651.528 50.402 651.372 50.726C651.228 51.038 651.156 51.41 651.156 51.842C651.156 52.334 651.246 52.748 651.426 53.084C651.606 53.408 651.852 53.654 652.164 53.822C652.476 53.99 652.824 54.074 653.208 54.074C653.484 54.074 653.748 54.026 654 53.93C654.264 53.834 654.522 53.708 654.774 53.552L655.89 55.424C655.47 55.664 655.014 55.856 654.522 56C654.042 56.144 653.586 56.216 653.154 56.216ZM661.79 56.162C661.142 56.162 660.536 56.048 659.972 55.82C659.42 55.592 658.952 55.274 658.568 54.866L659.612 53.48C659.996 53.828 660.35 54.08 660.674 54.236C661.01 54.38 661.31 54.452 661.574 54.452C661.778 54.452 661.958 54.434 662.114 54.398C662.282 54.35 662.414 54.284 662.51 54.2C662.606 54.104 662.654 53.984 662.654 53.84C662.654 53.636 662.57 53.474 662.402 53.354C662.246 53.234 662.042 53.138 661.79 53.066C661.538 52.982 661.268 52.898 660.98 52.814C660.26 52.586 659.738 52.256 659.414 51.824C659.102 51.38 658.946 50.9 658.946 50.384C658.946 49.988 659.048 49.592 659.252 49.196C659.468 48.788 659.804 48.452 660.26 48.188C660.728 47.912 661.328 47.774 662.06 47.774C662.72 47.774 663.278 47.84 663.734 47.972C664.19 48.104 664.622 48.32 665.03 48.62L664.076 50.096C663.848 49.916 663.59 49.766 663.302 49.646C663.026 49.514 662.768 49.442 662.528 49.43C662.312 49.418 662.126 49.442 661.97 49.502C661.826 49.562 661.712 49.64 661.628 49.736C661.544 49.832 661.502 49.934 661.502 50.042C661.49 50.27 661.574 50.45 661.754 50.582C661.946 50.714 662.186 50.816 662.474 50.888C662.762 50.96 663.044 51.044 663.32 51.14C663.704 51.26 664.034 51.422 664.31 51.626C664.586 51.83 664.796 52.076 664.94 52.364C665.096 52.64 665.174 52.976 665.174 53.372C665.174 53.852 665.048 54.308 664.796 54.74C664.556 55.16 664.184 55.502 663.68 55.766C663.188 56.03 662.558 56.162 661.79 56.162ZM669.822 56.378C669.114 56.378 668.52 56.162 668.04 55.73C667.56 55.286 667.308 54.716 667.284 54.02V48.134H669.804V53.084C669.828 53.432 669.918 53.714 670.074 53.93C670.23 54.134 670.494 54.236 670.866 54.236C671.238 54.236 671.556 54.11 671.82 53.858C672.096 53.606 672.306 53.264 672.45 52.832C672.606 52.388 672.684 51.89 672.684 51.338V48.134H675.204V56H672.918L672.72 54.56L672.756 54.722C672.576 55.046 672.348 55.334 672.072 55.586C671.796 55.838 671.466 56.03 671.082 56.162C670.71 56.306 670.29 56.378 669.822 56.378ZM677.796 41.798H680.316V56H677.796V41.798ZM683.649 44.678H686.169V48.098H688.077V50.06H686.169V56H683.649V50.06H682.425V48.098H683.649V44.678Z" fill="white"/>
<path d="M202 30H198V26H196V30H192V32H196V36H198V32H202V30Z" fill="white"/>
<path d="M188 33.9999H180V9.99985H188V15.9999C188.002 16.5298 188.213 17.0376 188.588 17.4123C188.962 17.787 189.47 17.9983 190 17.9999H196V21.9999H198V15.9999C198.004 15.8684 197.979 15.7378 197.927 15.617C197.875 15.4961 197.798 15.3879 197.7 15.2999L190.7 8.29985C190.612 8.2022 190.504 8.1248 190.383 8.07301C190.262 8.02122 190.131 7.99626 190 7.99985H180C179.47 8.00143 178.962 8.21266 178.588 8.58739C178.213 8.96212 178.002 9.46991 178 9.99985V33.9999C178.002 34.5298 178.213 35.0376 178.588 35.4123C178.962 35.787 179.47 35.9983 180 35.9999H188V33.9999ZM190 10.3999L195.6 15.9999H190V10.3999Z" fill="white"/>
<path d="M494 13V39H514V19.6L513.7 19.3L507.7 13.3L507.4 13H494ZM496 15H506V21H512V37H496V15ZM508 16.4L510.6 19H508V16.4ZM498 23V25H510V23H498ZM501.5 26C500.6 26 499.9 26.6 499.5 27.3C499.1 28 499 28.9 499 29.9C499 30.5 499.2 31.1 499.3 31.7C498.9 31.8 498.5 32.1 498 32.1V34.1C498.7 34.1 499.4 34 500 33.8C500.1 34 500.1 34.1 500.3 34.3C500.7 34.7 501.3 35 502 35C503.6 35 504.6 33.9 505.3 33.1C505.4 32.9 505.5 32.8 505.6 32.7C505.6 32.8 505.6 32.9 505.7 33C505.8 33.2 505.9 33.4 506.1 33.6C506.3 33.8 506.7 34 507 34C507.6 34 508 33.6 508.2 33.4C508.4 33.2 508.6 32.9 508.8 32.7C509.2 32.3 509.5 32 509.9 32V30C508.7 30 507.8 30.7 507.3 31.3C507.3 31.2 507.3 31.1 507.2 31C507.1 30.8 507 30.6 506.8 30.3C506.6 30 506.3 30 506 30C505.2 30 504.9 30.5 504.6 30.8C504.3 31.1 504 31.5 503.8 31.9C503.2 32.6 502.8 33 502 33C501.9 33 501.9 32.9 501.8 32.9C501.9 32.9 501.9 32.8 502 32.8C503.1 31.9 504 30.7 504 29.1C504 28.3 503.8 27.6 503.4 27C503 26.4 502.3 26 501.5 26ZM501.4 28C501.7 28 501.7 28 501.8 28.2C501.9 28.4 502 28.7 502 29.2C502 29.8 501.7 30.4 501.2 30.9C501.2 30.6 501 30.2 501 30C501 29.2 501.1 28.6 501.3 28.3C501.4 28.1 501.4 28 501.4 28Z" fill="white"/>
<path d="M104 43.5C147.6 47.9 183.167 53 195.5 55L224.5 43.5L284 38.5L301.5 43.5" stroke="white"/>
<path d="M419 44.5C462.6 48.9 498.167 54 510.5 56L539.5 44.5L599 39.5L616.5 44.5" stroke="white"/>
</svg>
