<svg width="182" height="182" viewBox="0 0 182 182" fill="none" xmlns="http://www.w3.org/2000/svg">
<g clip-path="url(#clip0_1087_955)">
<path d="M158.846 45.9551L93.1233 15.6218C92.4578 15.3138 91.7333 15.1543 91 15.1543C90.2667 15.1543 89.5421 15.3138 88.8766 15.6218L23.1544 45.9551C22.2769 46.3613 21.5342 47.0105 21.0145 47.826C20.4948 48.6414 20.2198 49.5887 20.2222 50.5557V136.5C20.2198 137.467 20.4948 138.414 21.0145 139.23C21.5342 140.045 22.2769 140.695 23.1544 141.101L88.8766 171.434C89.5421 171.742 90.2667 171.902 91 171.902C91.7333 171.902 92.4578 171.742 93.1233 171.434L158.846 141.101C159.723 140.695 160.466 140.045 160.985 139.23C161.505 138.414 161.78 137.467 161.778 136.5V50.5557C161.78 49.5887 161.505 48.6414 160.985 47.826C160.466 47.0105 159.723 46.3613 158.846 45.9551V45.9551ZM91 25.7835L144.639 50.5557L91 75.3279L37.3605 50.5557L91 25.7835ZM30.3333 58.4424L85.9444 84.1246V158.947L30.3333 133.265V58.4424ZM96.0555 158.947V84.1246L151.667 58.4424V133.265L96.0555 158.947Z" fill="#B80F0A"/>
</g>
<defs>
<clipPath id="clip0_1087_955">
<rect width="182" height="182" fill="white"/>
</clipPath>
</defs>
</svg>
