<svg width="185" height="185" viewBox="0 0 185 185" fill="none" xmlns="http://www.w3.org/2000/svg">
<path d="M80.9375 95.9109L65.9641 80.9375L57.8125 89.0891L80.9375 112.214L127.188 65.9641L119.036 57.8125L80.9375 95.9109Z" fill="#B80F0A"/>
<path d="M92.5 173.438L56.795 154.4C46.6162 148.985 38.1041 140.9 32.1722 131.013C26.2404 121.126 23.1128 109.811 23.125 98.2812V23.125C23.1281 20.0594 24.3473 17.1202 26.515 14.9525C28.6827 12.7847 31.6219 11.5656 34.6875 11.5625H150.313C153.378 11.5656 156.317 12.7847 158.485 14.9525C160.653 17.1202 161.872 20.0594 161.875 23.125V98.2812C161.887 109.811 158.76 121.126 152.828 131.013C146.896 140.9 138.384 148.985 128.205 154.4L92.5 173.438ZM34.6875 23.125V98.2812C34.6779 107.715 37.2377 116.973 42.092 125.063C46.9462 133.152 53.9118 139.766 62.241 144.196L92.5 160.331L122.759 144.202C131.089 139.771 138.055 133.156 142.91 125.066C147.764 116.976 150.323 107.716 150.313 98.2812V23.125H34.6875Z" fill="#B80F0A"/>
</svg>
