<svg width="158" height="159" viewBox="0 0 158 159" fill="none" xmlns="http://www.w3.org/2000/svg">
<path d="M2.74781 65.0301C7.55858 30.2111 38.7626 6.1676 72.446 2.88287C89.3835 1.23117 106.802 4.86193 121.615 14.9406C136.184 24.8534 148.399 41.1172 155.117 65.1283C150.642 67.5746 140.751 73.0924 137.02 75.1759C134.652 76.4979 134.661 79.8182 136.889 81.2016C139.606 82.8887 146.064 86.9045 155.376 92.739C151.145 129.868 117.94 153.103 82.9489 155.369C65.3718 156.507 47.5514 152.312 33.0223 142.04C18.7307 131.935 7.46911 115.842 2.78012 92.7615C12.5335 86.5652 18.4431 82.7976 20.9305 81.2101C23.1584 79.7883 23.0505 76.5365 20.7843 75.2386C18.587 73.9801 13.4578 71.0594 2.74781 65.0301ZM77.4195 91.7584L89.004 111.671C89.6437 112.771 90.8295 113.437 92.1013 113.411L101.895 113.209C104.51 113.155 106.144 110.356 104.905 108.052L87.5661 75.8034L103.023 49.4579C104.373 47.1568 102.755 44.2517 100.088 44.1878L92.0918 43.9963C90.8536 43.9667 89.692 44.5936 89.0371 45.6449L78.4889 62.5803L67.8905 44.7606C67.2023 43.6036 65.9115 42.9438 64.5707 43.0636L55.7957 43.8481C53.2017 44.08 51.7606 46.9626 53.1317 49.1768L69.7572 76.0247L51.079 107.513C49.749 109.755 51.2491 112.612 53.8499 112.791L62.3807 113.375C63.7002 113.466 64.9579 112.805 65.6317 111.667L77.4195 91.7584Z" stroke="#B80F0A" stroke-width="5"/>
</svg>
