<?xml version="1.0" encoding="UTF-8" standalone="no"?>
<svg
   width="933.333"
   height="933.333"
   viewBox="0 0 700 700"
   version="1.1"
   id="svg11"
   sodipodi:docname="logo.svg"
   inkscape:version="1.2 (dc2aedaf03, 2022-05-15)"
   xmlns:inkscape="http://www.inkscape.org/namespaces/inkscape"
   xmlns:sodipodi="http://sodipodi.sourceforge.net/DTD/sodipodi-0.dtd"
   xmlns="http://www.w3.org/2000/svg"
   xmlns:svg="http://www.w3.org/2000/svg">
  <sodipodi:namedview
     id="namedview13"
     pagecolor="#ffffff"
     bordercolor="#000000"
     borderopacity="0.25"
     inkscape:showpageshadow="2"
     inkscape:pageopacity="0.0"
     inkscape:pagecheckerboard="0"
     inkscape:deskcolor="#d1d1d1"
     showgrid="false"
     inkscape:zoom="0.25285723"
     inkscape:cx="160.16944"
     inkscape:cy="1101.412"
     inkscape:window-width="2400"
     inkscape:window-height="1261"
     inkscape:window-x="-9"
     inkscape:window-y="-9"
     inkscape:window-maximized="1"
     inkscape:current-layer="svg11" />
  <defs
     id="defs7">
    <linearGradient
       id="A"
       x1="343.2"
       y1="205.65"
       x2="348.026"
       y2="579.258"
       gradientUnits="userSpaceOnUse"
       gradientTransform="matrix(1.7589851,0,0,1.7589851,-244.6161,-265.31228)">
      <stop
         offset="0"
         stop-color="#efbad4"
         id="stop2" />
      <stop
         offset="1"
         stop-color="#a162f5"
         id="stop4" />
    </linearGradient>
  </defs>
  <path
     d="m 584.28977,317.75783 -40.28426,10.53984 -43.93418,-98.50316 -73.87737,29.55271 13.00594,-94.07053 -4.13714,-3.54611 L 283.06886,31.111872 164.17203,199.26029 189.68435,262.79659 130.57893,242.40291 93.247989,395.9711 350.44678,665.4652 c 2.09495,2.1442 4.97441,3.35264 7.977,3.3456 h 1.77306 a 13.245158,13.245158 0 0 0 2.85835,0 10.60668,10.60668 0 0 0 7.28924,-2.85836 L 606.75201,452.88658 Z m -446.41281,-23.14824 16.24951,59.10542 -35.16563,19.69887 z m 88.64932,68.06393 -52.50218,-12.6084 -21.9662,-79.49029 105.4019,36.14889 z m -64.31904,8.76678 81.85436,125.88353 c 1.8276,2.7827 4.941,4.45198 8.27251,4.43089 a 9.8327262,9.8327262 0 0 0 8.27251,-15.16422 l -73.28636,-112.98665 37.43297,8.86352 52.10993,118.20204 v 0.007 c 1.60068,3.55843 5.15384,5.83983 9.06229,5.81345 1.35442,0.007 2.69302,-0.26033 3.9366,-0.78979 2.39048,-1.05891 4.26731,-3.0237 5.20837,-5.46341 a 9.8327262,9.8327262 0 0 0 -0.18469,-7.54428 l -51.91117,-118.20029 25.01804,-46.2015 67.67343,273.04725 -50.72912,-77.91776 v 0.007 c -1.31925,-2.39749 -3.57955,-4.14417 -6.23912,-4.80906 -2.65959,-0.6649 -5.47572,-0.19173 -7.77824,1.30517 a 9.8503162,9.8503162 0 0 0 -2.43267,14.24426 l 33.5931,52.30132 -182.12531,-190.99001 z m 373.52047,23.83601 -43.73364,6.40446 -18.22133,-34.67135 85.00824,-22.35847 z m -74.46839,-9.85384 14.18271,27.08485 -46.592,111.61289 c -2.11606,5.00254 0.21986,10.77378 5.22242,12.9039 a 10.67704,10.67704 0 0 0 3.84163,0.78276 c 3.95068,0 7.52318,-2.36408 9.06228,-6.00518 l 46.49701,-110.42381 46.20151,-6.89873 41.17081,35.07064 -199.36337,180.0673 z m 93.48126,16.25654 17.04105,-37.72847 9.85383,60.77469 z m -103.13457,-49.25158 -66.29263,202.23051 37.82522,-272.95931 47.9728,-19.69885 -41.66684,68.95045 h -0.007 a 9.8854964,9.8854964 0 0 0 -1.16092,7.49679 9.8503162,9.8503162 0 0 0 4.51356,6.09488 c 1.56022,0.88652 3.32623,1.36673 5.11864,1.3808 3.42122,-0.014 6.59619,-1.80647 8.37628,-4.72639 l 47.27977,-77.42349 31.12523,70.03575 z M 326.30648,168.12098 302.07998,73.561459 404.51974,161.52478 Z m -112.09484,103.03781 -20.48866,-52.10816 74.07614,32.01177 a 11.081606,11.081606 0 0 0 3.9366,0.78978 c 4.70002,0.0404 8.76678,-3.24357 9.72192,-7.83979 a 9.8503162,9.8503162 0 0 0 -5.77828,-11.07633 l -84.91148,-36.64318 89.8384,-127.561594 28.36363,111.215354 v 82.54915 -0.007 c 0,5.44231 4.41154,9.85384 9.85384,9.85384 5.4423,0 9.85383,-4.41153 9.85383,-9.85384 v -74.7639 l 88.64933,-7.48976 -59.10541,429.4738 -78.7005,-316.38864 z m 138.19113,184.69344 c 0.33598,2.59803 -0.37817,5.22946 -1.98589,7.29627 -1.60771,2.06681 -3.97883,3.41419 -6.58213,3.73081 h -1.18203 c -5.00959,0.0405 -9.24874,-3.69035 -9.84679,-8.66475 L 314.08857,304.4476 a 9.9206756,9.9206756 0 0 1 8.6155,-11.07633 c 5.4423,-0.68073 10.40263,3.17496 11.08336,8.61551 z"
     fill="url(#A)"
     id="path9"
     style="fill:url(#A);stroke-width:1.75899" />
</svg>
