<svg xmlns="http://www.w3.org/2000/svg" xmlns:xlink="http://www.w3.org/1999/xlink" width="744" height="539.286" xmlns:v="https://vecta.io/nano"><path d="M474.114 404.286v130H148.415c-37.109 0-67.301-29.16-67.301-65s30.192-65 67.301-65z" fill="#f2f2f2"/><path d="M482.114 533.286c-.001 2.761-2.239 4.999-5 5h-334.5c-37.832 0-68.5-30.668-68.5-68.5s30.668-68.5 68.5-68.5h334.5a5 5 0 1 1 0 10h-334.5c-32.309 0-58.5 26.191-58.5 58.5s26.191 58.5 58.5 58.5h334.5c2.761.001 4.999 2.239 5 5z" fill="#6c63ff"/><g fill="#ccc"><use xlink:href="#B"/><use xlink:href="#B" y="24"/><use xlink:href="#B" y="48"/><use xlink:href="#B" y="72"/></g><path d="M725.832 428.757l-81.565 101.228-253.615-204.35c-28.896-23.283-34.111-64.932-11.624-92.84s64.292-31.671 93.189-8.388z" fill="#f2f2f2"/><path d="M651.124 534.226c-1.733 2.149-4.88 2.488-7.031.756L383.625 325.11c-29.459-23.736-34.098-66.859-10.361-96.318s66.859-34.098 96.318-10.361L730.05 428.303a5 5 0 0 1-6.274 7.787L463.307 226.218a58.5 58.5 0 1 0-73.408 91.106l260.469 209.872a5 5 0 0 1 .756 7.03zm55.885-82.109L434.471 232.52a1 1 0 1 1 1.255-1.557L708.264 450.56a1 1 0 1 1-1.255 1.557zm-15.058 18.689L419.413 251.208a1 1 0 0 1 1.255-1.557l272.538 219.597a1 1 0 1 1-1.255 1.557zm-15.058 18.688L404.355 269.897a1 1 0 0 1 1.255-1.557l272.538 219.597a1 1 0 1 1-1.255 1.557zm-15.058 18.688L389.297 288.585a1 1 0 1 1 1.255-1.557L663.09 506.625a1 1 0 1 1-1.255 1.557zM743 539.286H1a1 1 0 1 1 0-2h742a1 1 0 1 1 0 2z" fill="#ccc"/><path fill="#ffb8b8" d="M338.081 390.622l-11.432-.001-5.437-44.096 16.873.002-.004 44.095z"/><path d="M318.482 387.355h22.048a0 0 0 0 1 0 0v13.882a0 0 0 0 1 0 0H304.6a0 0 0 0 1 0 0h0a13.882 13.882 0 0 1 13.882-13.882z" fill="#2f2e41"/><path fill="#ffb8b8" d="M221.286 390.622l-11.432-.001-5.437-44.096 16.873.002-.004 44.095z"/><path d="M201.688 387.355h22.048a0 0 0 0 1 0 0v13.882a0 0 0 0 1 0 0h-35.93a0 0 0 0 1 0 0h0a13.882 13.882 0 0 1 13.882-13.882zm57.783-323.822v-5c0-17.811 14.439-32.25 32.25-32.25h0c17.811 0 32.25 14.439 32.25 32.25v5c0 12.841-10.409 23.25-23.25 23.25h-18a23.25 23.25 0 0 1-23.25-23.25z" fill="#2f2e41"/><g fill="#ffb8b8"><circle cx="291.721" cy="63.942" r="24.561"/><path d="M158.125 148.356c2.018-1.905 4.776-2.819 7.532-2.495s5.227 1.852 6.749 4.173l21.055-3.983L199 158.255l-29.812 5.207a9.43 9.43 0 0 1-11.064-15.106z"/></g><path d="M272.573 103.971l.275.417-34.526 22.744-58.258 18.603a3.51 3.51 0 0 0-2.412 3.738l1.271 10.947a3.5 3.5 0 0 0 4.21 3.018l54.83-11.753c2.654-.566 5.163-1.67 7.371-3.245l38.788-27.597a10.02 10.02 0 0 0 4.158-8.947c-.289-3.511-2.409-6.609-5.577-8.15s-6.914-1.297-9.855.642z" fill="#ccc"/><path d="M326.853 378.109a4.52 4.52 0 0 1-4.138-2.701l-52.41-129.501a1.5 1.5 0 0 0-2.809.158l-42.758 126.074a4.5 4.5 0 0 1-5.882 2.891l-14.338-5.377a4.49 4.49 0 0 1-2.897-3.705c-6.45-56.192 49.8-198.03 50.369-199.456l.157-.395 51.277 11.343.107.116c20.458 22.318 37.273 163.082 40.437 191.074a4.48 4.48 0 0 1-2.971 4.747l-12.656 4.476c-.478.169-.981.256-1.488.256z" fill="#2f2e41"/><path d="M282.673 182.006c-12.424 0-26.274-2.477-30.538-12.701l-.098-.235.133-.218c3.365-5.521 7.813-14.94 5.422-16.709-4.709-3.482-6.994-9.21-6.792-17.025.44-16.966 12-32.029 28.766-37.482h0a127.64 127.64 0 0 1 14.263-3.672 24.28 24.28 0 0 1 20.133 4.972c5.701 4.614 9.038 11.537 9.096 18.871.176 18.131-2.615 43.383-16.912 60.72a4.45 4.45 0 0 1-2.633 1.531c-6.878 1.244-13.85 1.896-20.84 1.948z" fill="#ccc"/><path d="M278.051 181.327a9.56 9.56 0 0 1 11.678-6.664c.496.139.981.318 1.448.536l15.987-14.549 11.118 7.49-22.862 20.231a9.54 9.54 0 0 1-10.813 4.587c-2.419-.662-4.472-2.264-5.704-4.448s-1.538-4.771-.852-7.183z" fill="#ffb8b8"/><path d="M304.632 181.512a4.49 4.49 0 0 1-2.845-1.015l-6.304-5.152a4.5 4.5 0 0 1 .109-7.055l26.442-20.28c.652-.503.779-1.437.283-2.095l-16.32-21.576c-3.915-5.159-3.54-12.388.887-17.114h0a13.25 13.25 0 0 1 17.888-1.431l.103.109 17.042 24.402c3.736 2.929 5.888 7.436 5.817 12.182s-2.356 9.187-6.177 12.003l-34.246 26.139c-.776.573-1.714.882-2.679.882z" fill="#ccc"/><path d="M269.965 57.033V44.847l21.756-9.5 20.744 9.5v12.186a2 2 0 0 1-2 2h-38.5a2 2 0 0 1-2-2zM290.722 27.9c-3.199-10.239 3.519-21.972 13.451-26.025s21.813-1.22 30.194 5.476 13.58 16.724 16.335 27.091 3.278 21.177 3.787 31.891c12.202 2.241 20.503 16.714 16.276 28.378s-19.873 17.459-30.678 11.362-13.935-22.485-6.136-32.134c7.591-9.393 7.833-22.743.585-32.404a26.38 26.38 0 0 0-31.273-8.506c-6.014 2.515-13.56-4.019-12.539-5.131z" fill="#2f2e41"/><g fill="#6c63ff"><path d="M153.614 101.083a104.45 104.45 0 0 1-42.348-9.275c-1.619-.722-2.659-2.331-2.652-4.104V51.286c.003-2.484 2.016-4.497 4.5-4.5h81c2.484.003 4.497 2.016 4.5 4.5v36.418c.007 1.773-1.033 3.382-2.652 4.104h0a104.45 104.45 0 0 1-42.348 9.275z"/><path d="M153.603 71.58c-.6.001-1.195-.119-1.749-.352l-64.232-27.1a4.5 4.5 0 0 1 .153-8.353l64.233-24.368c1.035-.394 2.178-.392 3.211.007l63.372 24.368a4.5 4.5 0 0 1 .154 8.338L155.373 71.22c-.56.238-1.162.361-1.77.36z"/></g><circle cx="116.114" cy="88.286" r="6" fill="#3f3d56"/><path d="M218.965 40.274l-63.373 27.099a4 4 0 0 1-3.127.008L88.232 40.282c-.807-.332-1.48-.924-1.913-1.681-.573.993-.692 2.185-.326 3.272s1.181 1.964 2.238 2.409l64.232 27.099a4 4 0 0 0 3.127-.008l63.373-27.099c1.052-.449 1.861-1.326 2.223-2.411s.243-2.272-.329-3.263c-.43.751-1.096 1.34-1.895 1.673z" opacity=".2"/><path d="M116.618 88.262a1 1 0 0 0 1-1V53.801L150.6 41.786a1 1 0 1 0 .03-2l-32.981 12.015a1.96 1.96 0 0 0-1.433.575c-.383.375-.598.889-.596 1.425v33.461a1 1 0 0 0 1 1z" fill="#3f3d56"/><defs ><path id="B" d="M474.114 434.286h-350a1 1 0 1 1 0-2h350a1 1 0 1 1 0 2z"/></defs></svg>