<svg xmlns="http://www.w3.org/2000/svg" xmlns:xlink="http://www.w3.org/1999/xlink" width="821.676" height="579.01" xmlns:v="https://vecta.io/nano"><path d="M182.076 58h-52.4a19.02 19.02 0 0 0-19 19v56.81a33.02 33.02 0 0 1-2-.18C74.195 130.002 48.178 100.667 48.695 66S76.092 2.786 110.666.188 176.085 21.799 181.776 56c.11.66.21 1.33.3 2z" fill="#f2f2f2"/><g fill="#3f3d56"><path d="M800.676 56h-671c-11.593.013-20.987 9.407-21 21v354c.013 11.593 9.407 20.987 21 21h671c11.593-.013 20.987-9.407 21-21V77c-.013-11.593-9.407-20.987-21-21zm19 375a19.02 19.02 0 0 1-19 19h-671a19.02 19.02 0 0 1-19-19V77a19.02 19.02 0 0 1 19-19h671a19.02 19.02 0 0 1 19 19zm-52-317.63h-605a1 1 0 1 1 0-2h605a1 1 0 1 1 0 2z"/><use xlink:href="#B"/><use xlink:href="#B" x="151"/><use xlink:href="#B" x="302"/></g><g fill="#6c63ff"><use xlink:href="#C"/><use xlink:href="#C" x="52" y="123"/><use xlink:href="#C" x="170" y="26"/><use xlink:href="#C" x="323" y="-21"/><use xlink:href="#C" x="464" y="-21"/></g><g fill="#e6e6e6"><use xlink:href="#C" x="529" y="-9"/><use xlink:href="#C" x="500" y="68"/></g><use xlink:href="#C" x="376" y="52" fill="#ff6584"/><g fill="#e6e6e6"><use xlink:href="#C" x="305" y="68"/><use xlink:href="#C" x="152" y="136"/></g><use xlink:href="#C" x="-33" y="79" fill="#ff6584"/><use xlink:href="#C" x="70" fill="#e6e6e6"/><g fill="#ccc"><use xlink:href="#D"/><use xlink:href="#D" x="161"/><use xlink:href="#D" x="312"/><use xlink:href="#D" x="453"/></g><path d="M149.009 389.891c-2.962-.29-5.643-1.877-7.322-4.334s-2.184-5.532-1.378-8.396L114.676 353.3l13.553-3.438 25.206 20.444a10.11 10.11 0 0 1-4.426 19.586zm35.395 176.362h12.26l5.832-47.288h-18.094l.002 47.288z" fill="#ffb8b8"/><path d="M220.308 577.636l-38.531.002h0V562.75h0l23.644-.001a14.89 14.89 0 0 1 14.888 14.886h0 0z" fill="#2f2e41"/><path fill="#ffb8b8" d="M100.345 557.401l11.848 3.154 17.801-44.196-17.485-4.654-12.164 45.696z"/><path d="M132.113 577.639l-37.234-9.911h0l3.829-14.386h0l22.848 6.082a14.89 14.89 0 0 1 10.557 18.215h0 0zm67.848-20.339h-18.707a4.73 4.73 0 0 1-4.726-4.293l-11.356-117.932a3.75 3.75 0 0 0-7.321-.715l-32.974 110.2a4.74 4.74 0 0 1-5.7 3.246l-17.403-4.352a4.75 4.75 0 0 1-2.928-2.176c-.647-1.086-.834-2.386-.519-3.611l28.656-112.158c6.373-46.968 13.997-59.554 18.093-66.314l.931-1.561c.351-.608 2.512-6.645 3.884-10.564a4.79 4.79 0 0 1 2.435-2.978c17.211-8.802 37.347-2.709 43.109-.632a4.68 4.68 0 0 1 2.338 1.815c17.285 26.071 8.802 177.491 6.926 207.581a4.75 4.75 0 0 1-4.738 4.443z" fill="#2f2e41"/><circle cx="151.684" cy="234.024" r="24.561" fill="#ffb8b8"/><g fill="#ccc"><path d="M149.082 351.838l-.177-.171c-.331-.32-33.056-32.38-28.821-62.024 1.811-12.68 12.07-20.781 29.668-23.431 13.366-1.985 26.156 6.167 30 19.121l17.4 59.484z"/><path d="M132.333 374.641l-23.318-23.171c-3.243-3.24-4.561-7.937-3.48-12.392l11.289-45.919c.683-2.781 2.488-5.155 4.986-6.557s5.464-1.707 8.194-.843c5.353 1.725 8.368 7.39 6.809 12.794l-11.884 40.396 19.218 20.637z"/></g><path d="M257.404 295.562c-1.248 2.702-3.629 4.712-6.501 5.489s-5.942.243-8.382-1.46l-31.129 16.134 1.376-13.706 27.597-17.079a10.11 10.11 0 0 1 17.04 10.621z" fill="#ffb8b8"/><path d="M239.121 305.765l-30.346 13.114a12.81 12.81 0 0 1-12.477-1.338l-38.589-27.649c-2.328-1.668-3.861-4.226-4.235-7.065s.445-5.707 2.261-7.921c3.591-4.329 9.971-5.024 14.409-1.568l33.088 26.042 26.3-10.175z" fill="#ccc"/><path d="M155.756 241.895c3.03-3.796 8.691-4.001 12.853-6.505 5.452-3.28 7.706-10.611 5.949-16.726s-6.938-10.881-12.878-13.16-12.549-2.307-18.816-1.206c-9.33 1.64-18.516 5.995-24.207 13.569s-7.139 18.666-1.981 26.612c2.37 3.652 6.029 6.667 6.975 10.917 1.242 5.58-2.671 10.961-6.864 14.846-4.777 4.426-10.257 8.133-14.442 13.123s-6.976 11.806-5.066 18.032c1.6 5.216 6.256 9.059 11.361 10.984s10.666 2.203 16.121 2.309c5.297.104 10.924-.025 15.386-2.881 4.777-3.058 7.328-8.858 7.516-14.527s-1.706-11.223-4.245-16.295c-1.513-3.023-3.273-5.953-4.278-9.18s-1.18-6.89.431-9.863c1.693-3.125 5.117-5.009 8.604-5.694.181-.036.373-.067.573-.096a7.4 7.4 0 0 0 6.333-8.628c-.397-2.214-.363-4.334.674-5.633z" fill="#2f2e41"/><path fill="#a0616a" d="M483.229 567.3h-12.26l-5.832-47.288 18.094.001-.002 47.287z"/><path d="M462.212 563.797h23.644a0 0 0 0 1 0 0v14.887a0 0 0 0 1 0 0h-38.531a0 0 0 0 1 0 0h0a14.887 14.887 0 0 1 14.887-14.887z" fill="#2f2e41"/><path fill="#a0616a" d="M572.184 553.413l-11.151 5.093-24.954-40.589 16.459-7.518 19.646 43.014z"/><path d="M551.612 558.958l21.507-9.823h0l6.185 13.541h0l-35.048 16.008h0 0c-1.64-3.591-1.787-7.687-.407-11.387s4.172-6.699 7.764-8.34z" fill="#2f2e41"/><path d="M536.482 407.857c2.378-1.789 3.841-4.54 3.995-7.512s-1.015-5.86-3.194-7.886l14.412-32.7-18.309 3.103-10.879 30.577a10.11 10.11 0 0 0 13.975 14.419z" fill="#a0616a"/><path d="M482.448 554.831h-11.712a4.52 4.52 0 0 1-4.488-4.174l-6.387-170.559a4.5 4.5 0 0 1 4.925-4.805l67.735 7.193a4.5 4.5 0 0 1 4.062 4.394l1.419 75.235a3.49 3.49 0 0 0 .234 1.193l27.785 72.053a4.5 4.5 0 0 1-2.643 5.841l-11.868 4.373a4.5 4.5 0 0 1-5.557-2.164l-34.133-66.369c-.186-.361-.322-.745-.404-1.143l-5.831-28.094a3.5 3.5 0 0 0-6.904.313l-11.762 102.724a4.5 4.5 0 0 1-4.471 3.988z" fill="#2f2e41"/><circle cx="488.279" cy="222.178" r="24.561" fill="#a0616a"/><g fill="#6c63ff"><path d="M505.123 395.694c-16.656-.184-32.915-5.109-46.873-14.198l-.239-.165.025-.29 9.395-109.416c.67-7.676 6.903-13.68 14.599-14.062 12.176-.56 28.531.146 37.286 6.667 13.231 9.854 19.608 24.694 17.496 40.712-4.38 33.219.582 78.029 1.162 83.029l.042.36-.33.151c-10.2 4.745-21.313 7.206-32.563 7.21z"/><path d="M537.86 388.158c-1.4-.002-2.734-.591-3.681-1.622l-5.373-5.861c-1.181-1.296-1.601-3.113-1.109-4.795l12.251-41.464-18.64-39.144a8.83 8.83 0 0 1-.604-5.879 8.81 8.81 0 0 1 16.313-2.084l25.295 41.042a11.95 11.95 0 0 1 .72 11.198l-20.61 45.665a4.99 4.99 0 0 1-3.766 2.88c-.263.042-.53.064-.796.064z"/></g><path d="M364.738 308.953c2.388 1.776 5.44 2.403 8.335 1.713s5.335-2.628 6.664-5.29l35.438 4.596-8.144-16.688-32.404-1.806a10.11 10.11 0 0 0-9.888 17.476z" fill="#a0616a"/><path d="M442.849 318.067c-.617 0-1.233-.043-1.845-.127l-55.751-7.732a5.54 5.54 0 0 1-4.251-3.111c-.128-.268-.234-.545-.318-.829h0c-.436-1.493-.228-3.1.575-4.432l4.614-7.649c1.009-1.662 2.811-2.68 4.756-2.686h.008l48.596.056 36.294-32.517a9.87 9.87 0 0 1 6.107-2.5c4.066-.188 7.828 2.147 9.462 5.875s.804 8.077-2.09 10.94l-36.215 40.278c-2.535 2.822-6.149 4.434-9.942 4.434z" fill="#6c63ff"/><path d="M491.072 244.028c2.245-5.195 4.144-12.113-.161-15.785-2.497-2.13-6.094-2.135-9.365-2.4-9.217-.747-18.706-4.988-23.211-13.064s-1.989-20.084 6.51-23.728c5.729-2.456 12.297-.783 18.294.918l18.006 5.106c5.35 1.517 10.967 3.19 14.819 7.201 6.143 6.397 5.684 17.212.805 24.618s-12.226 15.131-20.638 17.943z" fill="#2f2e41"/><path d="M739.485 579.01H1.191a1.19 1.19 0 0 1-1.034-1.787 1.19 1.19 0 0 1 1.034-.594h738.294a1.19 1.19 0 0 1 1.034 1.787 1.19 1.19 0 0 1-1.034.594z" fill="#3f3d56"/><defs ><path id="B" d="M333.676 409a1 1 0 0 1-1-1V79a1 1 0 1 1 2 0v329a1 1 0 0 1-1 1z"/><path id="C" d="M236.592 216.587h-36.54c-2.484-.003-4.497-2.016-4.5-4.5v-43.12c.003-2.484 2.016-4.497 4.5-4.5h36.54c2.484.003 4.497 2.016 4.5 4.5v43.12c-.003 2.484-2.016 4.497-4.5 4.5z"/><path id="D" d="M276.676 97h-57a4 4 0 1 1 0-8h57a4 4 0 1 1 0 8z"/></defs></svg>