<svg xmlns="http://www.w3.org/2000/svg" xmlns:xlink="http://www.w3.org/1999/xlink" width="851.034" height="557.347" xmlns:v="https://vecta.io/nano"><style><![CDATA[.B{fill:#ffb6b6}.C{fill:#2f2e41}.D{fill:#e6e6e6}.E{fill:#3f3d56}.F{fill:#a0616a}.G{fill:#6c63ff}]]></style><path d="M785.204 269.129H95.109c-9.25 0-16.775-7.525-16.775-16.776V16.775C78.334 7.525 85.859 0 95.109 0h690.095c9.25 0 16.775 7.525 16.775 16.775v235.577c0 9.251-7.525 16.776-16.775 16.776zM95.109 2c-8.147 0-14.775 6.628-14.775 14.775v235.577c0 8.147 6.628 14.776 14.775 14.776h690.095c8.147 0 14.775-6.629 14.775-14.776V16.775C799.979 8.628 793.351 2 785.204 2H95.109z" class="E"/><path d="M0 550.557h851.034v1.683H0zm0-86h851.034v1.683H0z" class="D"/><path d="M387.84 277.792c.611 7.68 5.069 13.59 9.957 13.2s8.353-6.931 7.74-14.613a19.28 19.28 0 0 0-2.728-8.688l-3-32.507-15.225 1.733 4.574 31.863a19.28 19.28 0 0 0-1.318 9.013z" class="B"/><path d="M369.653 126.133s14.232-7.534 21.448 3.725 12.197 133.021 12.197 133.021l-20.002 2.135-3.792-85.803-9.852-53.078z" class="D"/><path d="M340.114 458.204l11.587-.001 5.512-44.695-17.102.001.002 44.695z" class="B"/><path d="M379.814 457.941h0c.361.608.551 2.569.551 3.275h0c0 2.172-1.761 3.933-3.933 3.933h-35.885c-1.482 0-2.683-1.201-2.683-2.683v-1.494s-1.775-4.49 1.88-10.025c0 0 4.542 4.334 11.33-2.454l2.002-3.626 14.489 10.596 8.031.989c1.757.216 3.315-.034 4.218 1.489h0z" class="C"/><path d="M407.168 456.286l11.227-2.869-5.721-44.668-16.569 4.234 11.064 43.303z" class="B"/><path d="M445.568 446.205h0c.5.499 1.17 2.352 1.345 3.037h0c.538 2.104-.733 4.246-2.837 4.784l-34.768 8.882c-1.436.367-2.897-.5-3.264-1.935l-.37-1.448s-2.831-3.911-.66-10.178c0 0 5.474 3.074 10.37-5.182l1.042-4.009 16.661 6.681 8.026-1.03c1.756-.225 3.203-.853 4.456.398h0z" class="C"/><path d="M330.527 116.525l-.549-3.987 6.53-15.948 17.941-1.993 3.874 22.832-27.796-.903z" class="B"/><path opacity=".1" d="M330.527 116.525l-.549-3.987 6.53-15.948 17.941-1.993 3.874 22.832-27.796-.903z"/><path d="M309.596 229.158l-7.974 21.928 5.98 11.961 29.902 173.434h19.88l-3.932-153.499 45.85 153.499h19.676L403.157 332.82l-11.828-95.688-7.174-4.432-34.69-19.49-39.87 15.948z" class="C"/><path d="M360.43 244.109l-11.961 1.994-15.948-37.876h35.883l-7.974 35.883z" class="D"/><path d="M384.352 234.141l-23.922 9.967-7.974-17.941-3.987 19.935-41.863-13.476 5.98-24.4-5.98-79.74 21.111-14.074 2.811-1.874 25.915 1.993 2.273 1.236 15.669 8.732 3.987 65.785 5.98 43.857z" class="C"/><path d="M358.715 115.768l-11.243 47.605-19.755-48.96 2.811-1.874 25.915 1.993 2.273 1.236z" class="D"/><path d="M339.498 112.538l-3.987 6.866 3.987 2.289-1.993 41.803 7.974 10.84 7.974-16.022-5.98-36.621 1.994-9.155h-9.967z" class="C"/><circle cx="345.479" cy="89.613" r="18.938" class="B"/><path d="M333.376 91.274l4.092 1.786 1.786-10.715s7.143-3.572 12.501-1.786 14.287 0 14.287 0 0-17.858-12.501-17.858-25.002 1.786-25.002 7.143-5.358 10.715-5.358 10.715-7.143 10.715 0 17.858 10.715 7.143 10.715 7.143l-.52-14.287z" class="C"/><path d="M296.629 277.232c-.208 7.701 3.598 14.051 8.499 14.183s9.041-6.005 9.248-13.709a19.28 19.28 0 0 0-1.79-8.928l.468-32.642-15.323.107 1.166 32.168a19.28 19.28 0 0 0-2.268 8.822z" class="B"/><path d="M315.586 124.462s-12.958-3.987-18.938 7.974S298.641 266 298.641 266h20.115l-5.339-85.72 2.168-55.818z" class="D"/><path d="M812.657 351.008l-48.322-14.792c-1.069-.327-2.19-.447-3.304-.352L516.13 356.707c-3.492.297-4.369 5.007-1.219 6.542l7.845 3.822h-.209v182.952h7.392V370.57l24.586 11.978a11.26 11.26 0 0 0 6.062 1.08l2.616-.264v166.659h7.392V382.617l189.42-19.133v186.539h7.392V362.737l31.416-3.173v190.459h7.392V358.817l5.731-.579c4.024-.406 4.579-6.046.712-7.229z" class="E"/><path d="M587.226 355.982c4.62 0 72.996-8.316 72.996-8.316l10.164 13.86-71.148 13.86-12.012-19.404z" fill="#fff"/><path d="M662.269 542.917l-11.879-.022-5.572-45.831 17.533.031-.081 45.821z" class="F"/><path d="M621.57 542.577h0c-.371.622-.57 2.633-.571 3.357h0c-.004 2.227 1.798 4.035 4.025 4.039l36.789.063a2.75 2.75 0 0 0 2.755-2.746l.003-1.532s1.828-4.6-1.909-10.281c0 0-4.665 4.435-11.611-2.536l-2.046-3.721-14.873 10.838-8.235.999c-1.802.219-3.398-.04-4.327 1.519h0z" class="C"/><path d="M726.027 521.605l-9.373 7.069-31.729-32.787 13.833-10.434 27.269 36.151z" class="F"/><path d="M693.757 545.615h0c.079.712 1.122 2.414 1.553 2.986h0c1.325 1.757 3.824 2.107 5.581.781l29.024-21.895a2.72 2.72 0 0 0 .533-3.807l-.912-1.208s-1.304-4.715-7.637-6.961c0 0-1.03 6.277-10.661 4.928l-3.831-1.712-5.253 17.411-5.892 5.7c-1.289 1.247-2.702 1.995-2.504 3.778h0z" class="C"/><path d="M701.2 284.74a19.84 19.84 0 0 1-19.835 19.835 19.84 19.84 0 0 1-19.835-19.835 19.84 19.84 0 0 1 19.835-19.835A19.84 19.84 0 0 1 701.2 284.74z" class="F"/><g class="C"><path d="M699.331 399.107s-73.032-4.134-77.166 4.134 22.348 121.833 22.348 121.833l23.627-4.952-11.526-79.677s60.943 16.14 69.211-3.151 5.888-26.475 5.888-26.475l-32.382-11.713z"/><path d="M718.043 385.229s-71.524 15.333-73.323 24.4 53.781 111.581 53.781 111.581l21.475-11.025-32.192-73.789s63.042-.557 65.912-21.348-1.326-27.089-1.326-27.089l-34.327-2.729z"/></g><path d="M726.202 307.472h-34.362l-23.512 38.583s-5.512 24.933 0 27.624 5.512 31.628 5.512 31.628l57.874 5.512s8.268-86.811 5.512-95.079-11.024-8.268-11.024-8.268z" class="G"/><path d="M671.772 332.965l-3.445 40.715-38.747-16.445-9.248-4.651a18.64 18.64 0 0 0-6.855-5.523c-6.697-3.264-13.807-2.455-15.884 1.805s1.667 10.36 8.363 13.622a18.64 18.64 0 0 0 8.576 1.996l27.058 15.368.032-.06.12.214 42.432 17.722 9.763-53.449-22.165-11.315z" class="F"/><path d="M667.638 287.492s-20.669 2.756-12.402-15.158c0 0-1.261-9.711 4.882-10.367s14.41-11.68 14.41-11.68 18.955-9.646 28.769 0 38.751 66.142 38.751 66.142l-19.291 20.669s-11.598-30.489-25.09-26.957-25.894 14.062-25.894 14.062-13.693-6.853-7.535-12.825 3.402-23.886 3.402-23.886z" class="C"/><path d="M695.197 317.807s-9.646-12.402-16.536-2.756-12.402 22.047-12.402 22.047l27.559 9.646 1.378-28.937z" class="G"/><path d="M799.836 547.279l-32.019-101.77h.005.074l-.129-.166-.003-.004-2.281-7.249.001-.001c3.474-2.994 5.84-7.272 6.311-12.197l-14.636-80.499c1.007-10.571-7.096-19.811-17.713-20.189l-33.024-.083c-9.388-.333-17.519 6.449-18.887 15.745l-.73 4.934-10.118 68.829c-.37 2.476-.222 4.916.36 7.198l-7.281.952-2.208.296-8.732 1.137-.028.009-1.09.139h-1.183v29.568h.074v94.507c0 .61.499 1.109 1.109 1.109.619 0 1.118-.499 1.118-1.109v-94.507h12.954l12.927 94.396c.083.554.554.961 1.109.961.046 0 .102 0 .148-.009.61-.083 1.035-.647.952-1.257l-12.881-94.091h62.157c6.172 0 11.891-1.959 16.547-5.312l24.645 99.535c.128.504.581.838 1.078.838a1.12 1.12 0 0 0 .275-.034c.596-.152.956-.758.804-1.353l-24.883-100.497a17.45 17.45 0 0 0 .975-.873l9.893-.582 32.186 102.3c.149.475.588.779 1.061.779.111 0 .223-.017.334-.052.586-.185.912-.81.728-1.396zm-36.468-107.61c.083-.046.157-.102.231-.148h.001l.238.756-.469-.607z" class="D"/><path d="M171.565 374.775l21.549-13.704 8.761 5.284-30.31 34.828v-26.408z" class="B"/><use xlink:href="#B" class="D"/><ellipse cx="202.717" cy="359.199" rx="14.313" ry="8.84" transform="matrix(.707107 -.707107 .707107 .707107 -194.61752 248.54951)" class="B"/><g class="D"><path d="M86.348 433.29l14.704 24.338 85.689-5.07-22.817-29.408-77.577 10.141z"/><path d="M111.952 547.12c-.499 0-.934-.368-1.003-.876L85.343 359.236c-.076-.555.312-1.067.867-1.142a1.01 1.01 0 0 1 1.142.867l25.605 187.007c.076.555-.312 1.067-.867 1.142-.047.006-.093.009-.139.009z"/><path d="M86.348 547.358c-.56 0-1.014-.454-1.014-1.014V359.135c0-.56.454-1.014 1.014-1.014s1.014.454 1.014 1.014v187.209c0 .56-.454 1.014-1.014 1.014zm128.534-.745c-.431 0-.831-.277-.967-.71l-60.591-192.584c-.168-.534.129-1.104.663-1.272s1.104.129 1.272.663l60.591 192.584c.168.534-.129 1.104-.663 1.272a1.02 1.02 0 0 1-.305.047zm-18.508.237c-.453 0-.865-.305-.982-.764l-42.084-169.969c-.138-.543.19-1.095.733-1.233s1.095.19 1.233.733l42.084 169.969c.138.543-.19 1.095-.733 1.233a1.02 1.02 0 0 1-.251.031z"/><path d="M86.348 362.117l70.225-1.08 12.929 73.774h-82.14l-1.014-72.694z"/></g><path d="M194.266 470.597l-17.698 31.158 20.549 4.524 8.567-22.161-11.418-13.521z" class="B"/><path d="M182.925 495.873s-.688-5.081-4.731-3.469-15.711 7.605-15.711 7.605 30.434 49.451 36.209 47.147-1.138-16.282-1.138-16.282l1.526-24.709-16.155-10.293zm-66.928-85.737s-6.315 29.047 13.05 39.15 85.457-14.734 85.457-14.734l-30.31 45.415 21.048 8.469s47.991-63.146 44.623-73.249-26.1-10.945-26.1-10.945l-51.358 2.526-13.471-4.21-42.939 7.577z" class="C"/><path d="M168.084 484.425l-27.823 22.582 17.494 11.691 16.044-17.525-5.715-16.749z" class="B"/><path d="M148.322 503.842s1.208-4.983-3.144-4.952-17.402 1.367-17.402 1.367 10.353 57.135 16.571 57.091 4.865-15.58 4.865-15.58l10.412-22.459-11.302-15.466zm-31.141-104.213s-16.451 24.758-2.091 41.215 84.96 17.372 84.96 17.372l-44.758 31.272 16.524 15.548s67.678-41.354 68.218-51.99-20.328-19.692-20.328-19.692l-48.757-16.336-11.016-8.823-42.753-8.567zm42.262-57.345s-15.997-5.894-23.574-5.894a10.33 10.33 0 0 0-2.155.236c-4.85 1.027-9.312 5.195-11.45 7.468-.834.892-1.313 1.49-1.313 1.49l.152-1.6c.497-5.355 2.332-22.926 5.624-34.174 1.179-4.016 2.534-7.224 4.092-8.781 3.629-3.637 5.304-7.998 6.079-11.248.657-2.787.657-4.749.657-4.749l-6.138-2.644-1.137-7.426c-.202.876-1.137 2.585-4.277 5.86-.269.278-.564.514-.876.716-4.53 2.846-13.766-2.105-18.742-5.22 2.071-7.199 5.826-13.783 12.646-14.86 15.997-2.526 15.997-11.787 26.1-1.684a83.55 83.55 0 0 0 2.517 2.408c3.233 6.18 4.412 14.465 4.833 20.223.303 4.033.227 6.837.227 6.837s4.21 25.258 10.945 30.31-4.21 22.732-4.21 22.732z" class="C"/><path d="M128.292 301.871l-11.376 16.687 25.689 6.888v-23.574h-14.313z" class="B"/><path opacity=".1" d="M128.292 301.871l-11.376 16.687 25.689 6.888v-23.574h-14.313z"/><path d="M144.202 317.944l-24.416-10.103s-32.836 14.313-30.31 42.097 26.1 75.775 26.1 75.775l47.149-20.207-5.052-53.884-13.471-33.678z" class="D"/><circle cx="133.734" cy="287.78" r="21.541" class="B"/><path d="M162.811 279.981c-4.21 4.21-7.577 8.419-7.577 8.419l-1.684-6.736s-.387.286-1.069.741c-2.669 1.819-9.834 6.39-15.584 7.375-2.559.438-4.833.16-6.315-1.381-3.14-3.275-4.075-4.984-4.277-5.86l-1.137 7.426-6.138 2.644s0 9.244 6.736 15.997c.328.328.648.732.96 1.204 3.216 4.85 5.523 16.721 6.988 26.816 1.297 8.975 1.92 16.536 1.92 16.536s-6.373-7.982-13.37-9.068c-.387-.059-.775-.101-1.162-.109-.126-.017-.261-.017-.387-.017-7.577 0-23.574 5.894-23.574 5.894s-10.945-17.681-4.21-22.732 10.945-30.31 10.945-30.31-.278-10.811 2.509-20.501c2.071-7.199 5.826-13.783 12.646-14.86 15.997-2.526 15.997-11.787 26.1-1.684a83.55 83.55 0 0 0 2.517 2.408c9.413 8.655 19.028 13.934 15.163 17.799z" class="C"/><path d="M60.334 393h8v158h-8zm194 0h8v158h-8z" class="E"/><path d="M158.334 326h53v53h-53z" class="G"/><path d="M127.784 382.352l21.549-13.704 8.761 5.285-30.31 34.828v-26.408z" class="B"/><use xlink:href="#B" x="-43.781" y="7.577" class="D"/><ellipse cx="158.936" cy="366.776" rx="14.313" ry="8.84" transform="matrix(.707107 -.707107 .707107 .707107 -212.79872 219.81113)" class="B"/><g class="E"><path d="M36.334 387h242v18h-242z"/><rect x="483.334" y="243" width="46" height="25" rx="5.13"/></g><rect x="558.334" y="257.74" width="46" height="10.26" rx="5.13" class="G"/><defs ><path id="B" d="M142.097 321.733s-14.313 3.368-7.577 22.732 28.626 59.778 35.361 57.252 7.577-27.784 7.577-27.784-.842.842-4.21-2.526-3.368-1.83-3.368-5.546-2.755-6.47-2.755-6.47l-3.139-6.507s0-30.31-12.629-31.994-9.261.842-9.261.842z"/></defs></svg>