<svg xmlns="http://www.w3.org/2000/svg" xmlns:xlink="http://www.w3.org/1999/xlink" width="596.882" height="400.001" xmlns:v="https://vecta.io/nano"><g fill="#f2f2f2"><path d="M105.784 308.736c-.844-1.424-4.497.101-5.168-1.191s2.724-3.249 4.663-7.73c.35-.808 2.553-5.9.922-7.472-3.092-2.978-17.24 9.313-22.191 5.29-1.087-.883-1.846-2.645-5.134-5.506-1.308-1.138-2.099-1.652-2.865-1.461-1.086.271-1.172 1.725-2.337 4.584-1.747 4.287-2.78 4.028-3.798 7.449-.756 2.539-.583 4.016-1.472 4.303-1.258.407-2.416-2.286-4.011-2.045-1.627.246-2.611 3.382-2.922 5.73-.583 4.406 1.035 7.313 1.932 10.371.975 3.322 1.553 8.375-.698 15.528l-22.277 62.766c4.918-12.879 19.158-48.185 25.142-61.305 1.727-3.787 3.635-7.629 7.551-9.145 3.77-1.46 8.949-.588 15.55-2.179.771-.186 2.911-.73 3.18-1.988.223-1.04-1.036-1.621-.842-2.595.259-1.307 2.734-1.323 5.775-2.831 2.144-1.063 3.48-2.328 4.629-3.415.346-.328 5.495-5.262 4.371-7.157h0z"/><path d="M18.139 341.778c-.942.004-1.248 2.236-2.076 2.193s-.808-2.275-2.448-4.519c-.296-.405-2.159-2.955-3.401-2.608-2.354.658-.403 11.148-3.806 12.418-.747.279-1.831.143-4.184.931-.936.314-1.417.554-1.544.985-.18.611.508 1.073 1.575 2.47 1.6 2.094 1.175 2.527 2.56 4.013 1.028 1.104 1.803 1.445 1.687 1.964-.163.735-1.819.526-2.161 1.379-.349.87.907 2.257 1.969 3.087 1.994 1.558 3.888 1.602 5.647 2.044 1.912.48 4.559 1.654 7.42 4.823l24.378 29.044c-4.902-6.13-18.122-23.306-22.835-30.029-1.36-1.941-2.696-3.985-2.31-6.345.371-2.272 2.293-4.562 3.417-8.261.131-.432.481-1.639-.058-2.134-.446-.409-1.095.041-1.517-.335-.567-.504.14-1.724.277-3.651.097-1.359-.138-2.38-.341-3.258-.061-.265-.997-4.215-2.251-4.21h0z"/><use xlink:href="#B"/><path d="M39.572 315.823l-4.758 1.835-.437-.153c-2.023-.71-3.857-.862-5.452-.451l-.759.223c-1.01.315-2.266.708-3.922.434-.924-.155-3.11-.697-3.285-2.329-.052-.438.059-.809.222-1.111l-.204-.065c-.874-.293-1.295-.597-1.7-.889-.312-.224-.633-.456-1.332-.769l-.793-.322c-.672-.258-1.486-.611-1.719-1.549-.215-1.011.474-1.751.93-2.241.813-.875 1.442-1.34 1.86-1.648l.373-.294c.389-.446-.74-2.947-1.159-3.891-.95-2.118-1.772-3.95-.582-5.106.851-.828 2.282-.754 4.369.229.65.307 1.179.675 1.607 1.013.117-.404.354-.8.823-1.058h0c1.11-.61 2.569.099 4.339 2.105.442.498 1.033 1.169 1.504 2.203.221.487.363.941.478 1.331a1.67 1.67 0 0 1 .779.009c.852.21 1.429.962 1.678 2.258.294 1.421.329 2.645.362 3.724.03.942.057 1.753.255 2.344.382 1.091 1.5 1.717 2.922 2.421l3.603 1.746h0z"/><use xlink:href="#B" y="-45.106"/><path d="M42.124 399.269l-1.062-.666-.257-1.226.257 1.226-1.238.142c-.02-.115-.087-.379-.188-.793-.554-2.266-2.244-9.162-3.654-20.023a204.15 204.15 0 0 1-1.656-23.17c-.115-7.807.255-13.717.551-18.467l.762-10.317c.71-8.878 1.379-17.265.881-26.55-.11-2.073-.341-6.387-2.862-10.978-1.462-2.663-3.476-5.027-5.987-7.023l1.561-1.963c2.771 2.207 5 4.826 6.623 7.782 2.795 5.09 3.047 9.791 3.168 12.05.507 9.449-.17 17.916-.887 26.88l-.759 10.276c-.294 4.706-.66 10.565-.546 18.271s.663 15.4 1.634 22.886c1.392 10.724 3.058 17.517 3.605 19.749.291 1.192.352 1.441.054 1.914h0z"/><path d="M23.075 285.406c-.103 0-.207-.002-.312-.01-2.134-.115-4.11-1.392-5.875-3.796-.827-1.131-1.251-2.42-2.095-4.992-.131-.396-.767-2.408-1.154-5.176-.253-1.808-.221-2.565.137-3.233.398-.744 1.041-1.263 1.766-1.613-.032-.24-.006-.487.098-.739.427-1.045 1.563-.908 2.177-.842.311.039.699.091 1.117.069.658-.032 1.012-.228 1.548-.521.513-.281 1.15-.631 2.096-.825 1.865-.389 3.427.139 3.942.313 2.71.903 4.046 3.01 5.593 5.45.308.489 1.367 2.271 2.065 4.713.504 1.762.433 2.545.281 3.128-.308 1.197-1.036 1.882-2.885 3.394l-3.732 2.858c-1.937 1.118-3.153 1.821-4.768 1.821h0z"/></g><path d="M583.04 398.13h0a.84.84 0 0 1-.84.84H0v-1.68h582.2a.84.84 0 0 1 .84.84z" fill="#e6e6e6"/><path d="M414.967 132.596s-31.339 3.769-26.053-21.009 35.259-70.545 35.259-70.545l17.009 9.539-19.527 46.158 8.406 6.632-15.094 29.226z" fill="#a0616a"/><path fill="#6c63ff" d="M517.666 102.43l-4.416 36.32-110.658-.542 22.225-38.625 92.849 2.847z"/><ellipse cx="440.857" cy="35.06" rx="21.062" ry="13.588" transform="matrix(.582176 -.813063 .813063 .582176 155.69476 373.09347)" fill="#a0616a"/><path d="M507.026 398.526V240.901h6.794v157.624zm-32.612 0V240.901h6.794v157.624z" fill="#3f3d56"/><path fill="#e6e6e6" d="M291.651 398.526V141.707h6.794v256.819z"/><g fill="#3f3d56"><path d="M401.037 398.526V240.901h6.794v157.624zm-26 0V240.901h6.794v157.624z"/><path d="M500.911 237.504H369.709l-25.168 35.7 130.553 7.783 25.818-43.483z"/></g><path fill="#a0616a" d="M260.667 115.362l.596-25.89-79.185 6.091-.405 17.543 78.994 2.256z"/><path d="M207.074 92.47l-3.787 9.112-5.439.174s6.368 1.95 8.138 13.522l-5.226 1.567s-5.019 4.683-14.401 4.228l-25.155-2.104-.097-8.769 17.386-2.009s3.874-2.549-15.303-13.027c0 0-6.353-3.885-.639-23.068.785-2.637 3.157-4.53 5.908-4.59 1.518-.033 2.94.512 3.508 2.398 1.445 4.799-.017 9.584 3.955 12.579s31.154 9.988 31.154 9.988zm284.018 121.87s-27.322 46.469-89.145 38.095c-14.712-1.993-27.656-10.74-35.03-23.626-14.253-24.906-35.896-68.515-28.88-93.209l-104.562-19.956-8.238-25.394L338.4 75.55c10.01-1.3 19.815 3.567 24.83 12.327l55.124 96.268 16.433 1.794 56.305 28.401z" fill="#2f2e41"/><path fill="#a0616a" d="M262.731 125.96l-1.489-25.854-78.439 12.442 1.008 17.519 78.92-4.107z"/><path d="M207.471 107.454l-3.042 9.387-5.408.611s6.505 1.432 9.199 12.824l-5.083 1.982s-4.626 5.071-14.014 5.373l-25.243-.074-.802-8.733 17.168-3.401s3.656-2.852-16.302-11.753c0 0-6.645-3.361-2.493-22.942.571-2.691 2.783-4.77 5.519-5.05 1.51-.155 2.972.274 3.69 2.108 1.827 4.667.754 9.554 4.954 12.22s31.856 7.45 31.856 7.45zm292.901 98.626s-23.495 48.517-85.792 45.143c-14.825-.803-28.43-8.48-36.817-20.731-16.211-23.678-41.292-65.405-36.285-90.583l-105.828-11.48-10.255-24.649 111.613-23.756c9.873-2.101 20.038 1.962 25.742 10.289l62.691 91.521 16.524.466 58.408 23.779z" fill="#2f2e41"/><path fill="#3f3d56" d="M428.754 1.206l-5.435 4.076 28.535 39.406 5.435-1.359-28.535-42.124z"/><path d="M502.949 88.712l31.253-1.359 13.588 61.147s-28.535 107.348-62.506 103.271c0 0-21.062-15.627-21.062-21.062s-28.535-19.024-28.535-19.024l-6.794-23.1 20.382-31.253s8.153-24.459 35.33-38.047l18.344-30.574z" fill="#6c63ff"/><path fill="#e6e6e6" d="M324.263 136.271H46.382v6.794h135.883v255.46h6.794v-255.46h135.204v-6.794z"/><circle cx="519.255" cy="46.589" r="36.688" fill="#a0616a"/><path fill="#e6e6e6" d="M391.333 93.468l-25.625 10.191 50.277 66.583 17.665-13.588-42.316-63.186z"/><path d="M491.399 221.198s-9.512 30.098-29.894 15.049-49.683-61.249-49.683-61.249l15.712-11.55 33.971 36.849 9.512-4.916 20.382 25.818z" fill="#a0616a"/><path fill="#6c63ff" d="M506.346 115.21l31.253 19.024-46.2 100.553-29.894-40.765 44.841-78.812z"/><ellipse cx="413.266" cy="157.333" rx="13.588" ry="21.062" transform="matrix(.866025 -.5 .5 .866025 -23.29944 227.71185)" fill="#a0616a"/><path d="M523.267 157.67c9.416-30.869 19.52-40.637 30.144-34.521 8.086 4.655 10.52 15.252 5.781 23.289-12.079 20.487-36.97 67.428-31.785 98.539 0 0 8.153 43.483-57.071 43.483s-127.73-14.947-127.73-14.947l33.971-5.435 77.254 5.518c17.651 1.261 32.527-13.842 30.169-31.379a38.46 38.46 0 0 0-.278-1.756c-3.873-21.301 39.545-82.79 39.545-82.79z" fill="#3f3d56"/><path d="M505.504 31.38c-2.997 8.392 3.588 17.106 12.48 16.513l.212-.014h0a20.98 20.98 0 0 1 .401 25.694h0a72.63 72.63 0 0 0 4.542 28.971l9.744 25.983 15-7 7.118 19 41.882-21.575-25.383-57.111-7.746-30.984c-5.511-22.044-27.997-35.313-49.958-29.479l-16.849 4.475c-13.311 3.536-20.972 17.472-16.825 30.605h0l25.383-5.077" fill="#2f2e41"/><defs ><path id="B" d="M36.939 345.998l-.568-5.068.259-.384c1.2-1.777 1.812-3.512 1.819-5.159l-.023-.79c-.049-1.057-.11-2.371.575-3.903.384-.854 1.463-2.831 3.086-2.587.437.061.767.262 1.018.497l.115-.181c.505-.771.905-1.101 1.291-1.419.296-.245.602-.497 1.082-1.094l.513-.685c.42-.585.968-1.282 1.935-1.27 1.033.049 1.574.903 1.932 1.468.64 1.008.93 1.735 1.122 2.217l.19.436c.333.489 3.038.032 4.057-.135 2.289-.382 4.27-.712 5.087.732.585 1.033.151 2.398-1.33 4.168-.461.551-.952.969-1.388 1.297.361.215.684.546.815 1.065h0c.308 1.228-.748 2.459-3.137 3.663-.593.301-1.392.702-2.512.896-.527.091-1.002.113-1.408.125a1.67 1.67 0 0 1-.207.751c-.42.771-1.293 1.138-2.61 1.05-1.449-.076-2.642-.352-3.694-.595-.919-.21-1.711-.389-2.332-.348-1.153.093-2.041 1.016-3.083 2.212l-2.603 3.042h0z"/></defs></svg>