<svg width="232" height="217" viewBox="0 0 232 217" fill="none" xmlns="http://www.w3.org/2000/svg">
<path d="M169.543 0.811523H168.986C146.846 0.811523 127.266 12.1379 116.004 28.8513C104.741 12.1379 85.1609 0.811523 63.0211 0.811523H62.4647C45.8494 0.964604 29.9679 7.45098 18.2715 18.8611C6.57514 30.2712 0.00901969 45.6829 0 61.7472C0 81.6957 9.03693 110.001 26.6582 133.292C60.2314 177.672 116.004 216.5 116.004 216.5C116.004 216.5 171.776 177.679 205.342 133.292C222.97 110.001 232 81.6957 232 61.7472C231.991 45.6842 225.426 30.2735 213.731 18.8636C202.036 7.45369 186.157 0.966482 169.543 0.811523ZM161.582 136.706C159.06 136.697 156.601 135.951 154.526 134.566C152.451 133.181 150.858 131.221 149.955 128.945H136.719C135.847 128.94 134.999 128.672 134.293 128.178C133.586 127.684 133.057 126.989 132.779 126.191L128.713 114.348L115.848 157.81C115.597 158.646 115.073 159.382 114.353 159.906C113.633 160.43 112.757 160.713 111.856 160.715H111.597C110.656 160.671 109.761 160.316 109.058 159.711C108.356 159.105 107.89 158.284 107.738 157.387L94.4798 80.2898L84.7899 125.911C84.5677 126.777 84.0517 127.547 83.3242 128.097C82.5966 128.647 81.6995 128.946 80.776 128.945H62.1308C61.5719 128.968 61.0139 128.881 60.4906 128.69C59.9672 128.499 59.4892 128.208 59.0853 127.834C58.6815 127.459 58.3601 127.01 58.1406 126.512C57.9211 126.015 57.8079 125.48 57.8079 124.939C57.8079 124.398 57.9211 123.863 58.1406 123.365C58.3601 122.868 58.6815 122.418 59.0853 122.044C59.4892 121.67 59.9672 121.379 60.4906 121.188C61.0139 120.996 61.5719 120.91 62.1308 120.933H77.5114L91.2374 59.5953C91.4628 58.6884 92.0069 57.8854 92.7769 57.3235C93.5468 56.7616 94.4947 56.4756 95.4585 56.5146C96.4224 56.5536 97.3423 56.915 98.061 57.5371C98.7797 58.1592 99.2526 59.0034 99.3989 59.9253L112.939 138.571L124.469 99.6859C124.709 98.8669 125.217 98.145 125.916 97.6279C126.616 97.1107 127.469 96.8262 128.35 96.8166H128.431C129.303 96.8169 130.153 97.0833 130.859 97.578C131.565 98.0726 132.092 98.7701 132.364 99.5711L139.716 120.954H149.792C150.508 118.85 151.812 116.978 153.559 115.545C155.307 114.112 157.43 113.174 159.694 112.833C161.958 112.493 164.275 112.764 166.39 113.617C168.505 114.469 170.335 115.87 171.678 117.665C173.021 119.46 173.825 121.578 174.002 123.787C174.178 125.995 173.72 128.208 172.678 130.181C171.636 132.154 170.05 133.81 168.096 134.966C166.142 136.123 163.895 136.735 161.604 136.735L161.582 136.706Z" fill="#1CD6C6"/>
</svg>
