<svg width="184" height="184" viewBox="0 0 184 184" fill="none" xmlns="http://www.w3.org/2000/svg">
<path d="M138 172.5C131.177 172.5 124.506 170.477 118.833 166.686C113.159 162.895 108.737 157.507 106.126 151.203C103.515 144.899 102.832 137.962 104.163 131.269C105.494 124.577 108.78 118.43 113.605 113.605C118.43 108.78 124.577 105.494 131.269 104.163C137.962 102.832 144.899 103.515 151.203 106.126C157.507 108.737 162.895 113.159 166.686 118.833C170.477 124.506 172.5 131.177 172.5 138C172.489 147.147 168.851 155.916 162.383 162.383C155.916 168.851 147.147 172.489 138 172.5ZM138 115C133.451 115 129.004 116.349 125.222 118.876C121.44 121.403 118.492 124.996 116.751 129.198C115.01 133.401 114.554 138.026 115.442 142.487C116.329 146.949 118.52 151.047 121.737 154.263C124.953 157.48 129.051 159.671 133.513 160.558C137.974 161.446 142.599 160.99 146.802 159.249C151.004 157.508 154.597 154.56 157.124 150.778C159.651 146.996 161 142.549 161 138C160.992 131.902 158.567 126.057 154.255 121.745C149.943 117.433 144.098 115.008 138 115V115ZM46 126.5H92V138H46V126.5ZM46 92H103.5V103.5H46V92Z" fill="#F1F0FF"/>
<path d="M92 161H34.5V23H80.5V57.5C80.5091 60.5472 81.7236 63.467 83.8783 65.6217C86.033 67.7764 88.9528 68.9909 92 69H126.5V86.25H138V57.5C138.02 56.7443 137.877 55.9932 137.579 55.2984C137.281 54.6035 136.836 53.9815 136.275 53.475L96.025 13.225C95.5188 12.6635 94.8968 12.2185 94.2019 11.9207C93.507 11.6228 92.7557 11.4793 92 11.5H34.5C31.4528 11.5091 28.533 12.7236 26.3783 14.8783C24.2236 17.033 23.0091 19.9528 23 23V161C23.0091 164.047 24.2236 166.967 26.3783 169.122C28.533 171.276 31.4528 172.491 34.5 172.5H92V161ZM92 25.3L124.2 57.5H92V25.3Z" fill="#C3C3E5"/>
</svg>
