<svg width="198" height="198" viewBox="0 0 198 198" fill="none" xmlns="http://www.w3.org/2000/svg">
<path d="M185.625 148.5H160.875V123.75H148.5V148.5H123.75V160.875H148.5V185.625H160.875V160.875H185.625V148.5Z" fill="#F1F0FF"/>
<path d="M99 173.25H49.5V24.7502H99V61.8752C99.0098 65.1542 100.317 68.2961 102.635 70.6148C104.954 72.9334 108.096 74.2404 111.375 74.2502H148.5V99.0002H160.875V61.8752C160.897 61.062 160.742 60.2537 160.422 59.506C160.101 58.7583 159.623 58.0889 159.019 57.5439L115.706 14.2314C115.162 13.6272 114.492 13.1483 113.744 12.8278C112.997 12.5073 112.188 12.3529 111.375 12.3752H49.5C46.221 12.3849 43.079 13.6919 40.7604 16.0105C38.4417 18.3292 37.1348 21.4711 37.125 24.7502V173.25C37.1348 176.529 38.4417 179.671 40.7604 181.99C43.079 184.308 46.221 185.615 49.5 185.625H99V173.25ZM111.375 27.2252L146.025 61.8752H111.375V27.2252Z" fill="#C3C3E5"/>
</svg>
