<svg width="27" height="27" viewBox="0 0 27 27" fill="none" xmlns="http://www.w3.org/2000/svg">
<path fill-rule="evenodd" clip-rule="evenodd" d="M10.6076 10.0901H14.7859V12.1714C15.3877 10.9744 16.9312 9.89888 19.2499 9.89888C23.6947 9.89888 24.75 12.2816 24.75 16.6534V24.75H20.25V17.649C20.25 15.1594 19.6481 13.7554 18.1159 13.7554C15.9908 13.7554 15.1076 15.2685 15.1076 17.6479V24.75H10.6076V10.0901ZM2.89125 24.5588H7.39125V9.89888H2.89125V24.5588ZM8.03588 5.11875C8.03604 5.49593 7.96124 5.86939 7.81581 6.21741C7.67038 6.56543 7.45723 6.88108 7.18875 7.146C6.6447 7.6867 5.90829 7.98936 5.14125 7.9875C4.37556 7.98699 3.64085 7.6851 3.096 7.14713C2.82849 6.8813 2.61606 6.5653 2.47089 6.21724C2.32571 5.86917 2.25065 5.49588 2.25 5.11875C2.25 4.35713 2.55375 3.62813 3.09713 3.09038C3.6415 2.55168 4.37652 2.24966 5.14237 2.25C5.90963 2.25 6.64537 2.55263 7.18875 3.09038C7.731 3.62813 8.03588 4.35713 8.03588 5.11875Z" fill="white"/>
</svg>
