<svg width="22" height="23" viewBox="0 0 22 23" fill="none" xmlns="http://www.w3.org/2000/svg">
<g clip-path="url(#clip0_437_320)">
<path d="M9.57479 20.4808C9.57479 20.9861 9.18498 21.3943 8.70098 21.3943C8.22179 21.3943 7.82717 20.9861 7.82717 20.4808C7.82717 19.9755 8.21767 19.5673 8.70098 19.5673C8.93207 19.5682 9.15338 19.6649 9.3164 19.8362C9.47942 20.0074 9.57085 20.2392 9.57067 20.4808H9.57479ZM14.9992 20.4808C14.9992 20.9861 14.6094 21.3943 14.1254 21.3943C13.642 21.3943 13.2515 20.9861 13.2515 20.4808C13.2515 19.9755 13.6386 19.5673 14.1212 19.5673C14.6052 19.5673 14.995 19.9791 14.995 20.4808H14.9992ZM19.1599 11.7063L19.0169 11.5079C18.9777 11.4512 18.931 11.3994 18.8877 11.3433C18.8457 11.283 18.8024 11.2348 18.7591 11.1787C18.6622 11.0666 18.5659 10.9509 18.4655 10.8345L18.3968 10.7597L18.3115 10.6656L18.1899 10.5383C18.1754 10.5204 18.1603 10.5046 18.1431 10.4859C17.0795 9.39697 15.8475 8.58478 14.5193 8.0874L14.3075 8.01193C14.3185 7.98965 14.3295 7.96018 14.3405 7.93359C14.5267 7.43335 14.6128 6.89852 14.5936 6.36212C14.5743 5.82573 14.45 5.29916 14.2285 4.81493C14.0106 4.32909 13.7001 3.89489 13.316 3.53894C12.9319 3.183 12.4823 2.91281 11.9948 2.74493C11.3932 2.53865 10.8666 2.43803 10.4266 2.45384C10.3943 2.3525 10.3331 1.89896 10.881 0.68284L9.77486 0.00146484L9.51017 0.383121C9.20973 0.82084 8.91617 1.24059 8.64392 1.65675C8.346 1.32675 7.93872 1.12825 7.50542 1.10187L6.21223 1.01921C6.18404 1.01634 6.14829 1.01634 6.11942 1.01634C5.6826 1.01508 5.26181 1.18823 4.943 1.50042C4.6242 1.81261 4.43144 2.24028 4.40411 2.69606L4.32161 4.04084V4.04443C4.29623 4.5187 4.45151 4.98417 4.75349 5.33908C5.05548 5.69398 5.4796 5.90944 5.93311 5.93834L6.84954 5.99871C6.78836 6.80371 6.91761 7.55193 7.22148 8.20671C5.96407 8.76174 4.82391 9.57096 3.86648 10.5879C0.83667 13.7928 0.83667 17.3003 0.83667 20.1186V21.8227L2.03292 20.4937C2.27294 21.374 2.62561 22.2163 3.08136 22.9979H4.63579C3.8579 21.9088 3.3309 20.6468 3.09579 19.31L4.85029 17.3636L3.94829 20.3284L5.54123 19.1116C8.35929 16.9704 11.7253 16.4759 15.5423 17.6482C17.1971 18.1571 18.8086 17.6856 19.6425 16.4429L19.7388 16.2855C19.8213 16.7606 19.868 17.24 19.868 17.7194C19.868 19.2172 19.635 21.2535 18.6037 23.0015H20.0784C20.7914 21.5043 21.164 19.7103 21.164 17.7194C21.1605 15.612 20.4407 13.4816 19.1585 11.7077L19.1599 11.7063ZM8.15373 5.93331C8.26442 4.97234 8.68379 4.06528 9.28123 3.08921C9.30254 3.1345 9.33142 3.17834 9.35617 3.22362C9.47594 3.41132 9.64011 3.56344 9.83274 3.6652C10.0254 3.76696 10.2399 3.81491 10.4555 3.80437C10.6562 3.79647 11.011 3.83025 11.5878 4.02862C11.9098 4.13824 12.2066 4.31617 12.4598 4.55128C12.713 4.78639 12.917 5.07361 13.059 5.39497C13.356 6.04687 13.3815 6.77568 13.134 7.45346C12.9779 7.86823 12.723 8.2344 12.3935 8.51721L12.0202 8.03421L12.0168 8.03062C11.8912 7.86987 11.733 7.74045 11.5535 7.65179C11.374 7.56313 11.1779 7.51748 10.9794 7.51815C10.6355 7.51813 10.3049 7.65657 10.0561 7.90472C9.8074 8.15286 9.65963 8.49165 9.64354 8.85071C8.54011 8.33034 7.99286 7.27522 8.15029 5.93475L8.15373 5.93331ZM12.0993 10.8302L11.6235 11.2384C11.5845 11.2703 11.5363 11.2873 11.4867 11.2866C11.456 11.2866 11.4255 11.2797 11.3976 11.2661C11.3697 11.2526 11.345 11.2328 11.3252 11.2082L11.2255 11.0781C11.1889 11.032 11.1713 10.9725 11.1766 10.9128C11.1819 10.8531 11.2096 10.7981 11.2537 10.7597L11.7232 10.3551L10.7559 9.11234C10.7079 9.05124 10.685 8.9727 10.6924 8.89398C10.6997 8.81527 10.7367 8.74283 10.7951 8.69259C10.8453 8.64797 10.9087 8.62284 10.9745 8.62143C11.0564 8.62143 11.1389 8.65881 11.1925 8.72997L13.9102 12.2267C13.9339 12.2565 13.9517 12.2909 13.9626 12.328C13.9735 12.3651 13.9772 12.404 13.9736 12.4426C13.9699 12.4812 13.959 12.5187 13.9414 12.5528C13.9238 12.5869 13.8998 12.617 13.871 12.6414C13.8381 12.6713 13.7987 12.692 13.7562 12.7018C13.7356 12.7093 13.714 12.7132 13.6922 12.7133C13.6499 12.7124 13.6081 12.7022 13.5698 12.6834C13.5314 12.6646 13.4972 12.6375 13.4695 12.604L13.2007 12.2526L12.2409 13.0727C12.2184 13.0919 12.1925 13.1064 12.1647 13.1151C12.1368 13.1238 12.1076 13.1266 12.0786 13.1234C12.0497 13.1202 12.0217 13.111 11.9962 13.0964C11.9707 13.0817 11.9483 13.0619 11.9302 13.0382L11.4929 12.484C11.457 12.4366 11.4402 12.3763 11.4463 12.3161C11.4523 12.2559 11.4806 12.2006 11.5252 12.162L12.4884 11.339L12.0993 10.8302ZM7.10804 4.664L6.01286 4.58925C5.95731 4.58658 5.90282 4.57244 5.85252 4.54766C5.80222 4.52288 5.75711 4.48793 5.71979 4.44484C5.68247 4.40174 5.65367 4.35135 5.63506 4.29657C5.61645 4.24179 5.6084 4.1837 5.61136 4.12565L5.69386 2.78087C5.70031 2.66797 5.74759 2.56186 5.8261 2.48405C5.90461 2.40624 6.00849 2.36255 6.11667 2.36184H6.13798L7.42429 2.45168C7.47978 2.45258 7.53441 2.4661 7.58439 2.4913C7.63437 2.51649 7.67851 2.55276 7.71373 2.59759C7.75137 2.64099 7.78026 2.69186 7.79869 2.74718C7.81712 2.8025 7.8247 2.86114 7.82098 2.91959L7.81342 3.01375C7.51986 3.56 7.27717 4.10265 7.10461 4.664H7.10804ZM18.5872 15.6666C18.0682 16.4371 17.041 16.7038 15.906 16.3545C12.3468 15.262 9.12723 15.4862 6.31329 17.0251L7.80998 12.1174L2.96104 17.493C3.05111 13.8841 5.21054 10.8143 8.23898 9.52634C8.67279 9.88212 9.18773 10.1596 9.77142 10.3313C9.91786 10.3723 10.0684 10.4025 10.2121 10.4291C10.1268 10.6514 10.0997 10.8935 10.1337 11.1303C10.1676 11.3672 10.2614 11.5904 10.4053 11.7767L10.4734 11.8666C10.3929 12.0848 10.3693 12.3215 10.4051 12.5523C10.4408 12.7832 10.5346 13 10.6769 13.1805L11.1107 13.7382C11.3547 14.0487 11.7157 14.2327 12.0986 14.2327C12.395 14.2319 12.6822 14.1245 12.9119 13.9287L13.1732 13.708C13.3347 13.7792 13.5094 13.8166 13.6929 13.8166C13.7967 13.8166 13.8964 13.8051 13.9975 13.7828C14.1934 13.7339 14.3832 13.6362 14.5447 13.5017C14.8195 13.266 14.9937 12.926 15.0293 12.5562C15.0648 12.1865 14.9588 11.817 14.7345 11.5288L13.2055 9.56012C13.3382 9.44728 13.464 9.32365 13.5774 9.19284C13.7032 9.23022 13.8284 9.26759 13.9466 9.30856C14.1893 9.40128 14.4334 9.49543 14.6733 9.60756C15.6154 10.053 16.4747 10.6691 17.2115 11.4274C17.2411 11.4569 17.2693 11.4792 17.2906 11.5058L17.448 11.6747C17.4804 11.7121 17.5161 11.7494 17.5491 11.7904C17.6206 11.8731 17.6955 11.9579 17.767 12.0441L17.8853 12.1907C17.9245 12.2389 17.9644 12.2878 18.0035 12.3438L18.1074 12.4854L18.2146 12.6321C18.9846 13.7361 19.12 14.8667 18.5831 15.6602V15.6637L18.5872 15.6666ZM7.07573 3.94165L6.30917 3.89278L6.35936 3.09568L7.12179 3.14456L7.07573 3.94165Z" fill="white"/>
</g>
<defs>
<clipPath id="clip0_437_320">
<rect width="22" height="23" fill="white"/>
</clipPath>
</defs>
</svg>
