<svg width="24" height="24" viewBox="0 0 24 24" fill="none" xmlns="http://www.w3.org/2000/svg">
<path d="M16 17.2398C18.5 16.9398 20.69 15.3998 21 13.9898C21.2795 12.1969 21.4133 10.3843 21.4 8.56983C21.33 4.22983 18.48 2.99983 18.48 2.99983C16.4015 2.26447 14.2035 1.92528 12 1.99983C9.79648 1.92528 7.59852 2.26447 5.51999 2.99983C5.51999 2.99983 2.67999 4.22983 2.67999 8.56983V12.0098C2.77999 16.2498 3.45999 20.4298 7.37999 21.4698C8.88222 21.89 10.4416 22.0689 12 21.9998C13.2221 21.9675 14.4254 21.6921 15.54 21.1898L15.47 19.5498C14.3433 19.8774 13.1729 20.0291 12 19.9998C10.2 19.9398 8.28999 19.8098 7.99999 17.5998C7.98444 17.3901 7.98444 17.1795 7.99999 16.9698C9.31463 17.2684 10.6533 17.4491 12 17.5098C13.3386 17.5335 14.6767 17.4431 16 17.2398ZM9.45999 7.43983C8.55999 7.43983 8.10999 7.97984 8.10999 9.05983V14.1598H5.99999V8.89983C5.95042 7.97485 6.24222 7.06387 6.81999 6.33983C7.09428 6.01821 7.43667 5.76163 7.82236 5.58867C8.20806 5.41571 8.62739 5.33072 9.04999 5.33983C9.52305 5.31444 9.99438 5.41489 10.416 5.63096C10.8376 5.84703 11.1944 6.17099 11.45 6.56983L11.97 7.43983L12.49 6.56983C12.7456 6.17099 13.1024 5.84703 13.524 5.63096C13.9456 5.41489 14.4169 5.31444 14.89 5.33983C15.3126 5.33072 15.7319 5.41571 16.1176 5.58867C16.5033 5.76163 16.8457 6.01821 17.12 6.33983C17.7193 7.05527 18.0328 7.96713 18 8.89983V14.1598H15.89V9.05983C15.89 7.97984 15.44 7.43983 14.54 7.43983C13.54 7.43983 13.03 8.07983 13.03 9.35983V12.1498H11V9.35983C11 8.07983 10.46 7.43983 9.45999 7.43983Z" fill="white"/>
</svg>
