<svg width="24" height="24" viewBox="0 0 24 24" fill="none" xmlns="http://www.w3.org/2000/svg">
<g clip-path="url(#clip0_437_318)">
<path d="M2.2035 14.0504C2.145 14.3242 2.1135 14.6092 2.1135 14.8942C2.1135 18.3397 6.516 21.1439 11.9258 21.1439C17.3355 21.1439 21.738 18.3389 21.738 14.8942C21.7383 14.6226 21.7109 14.3517 21.6563 14.0857L21.6405 14.0542C21.6221 14.0014 21.6129 13.9458 21.6135 13.8899C21.3128 12.7139 20.496 11.6474 19.3162 10.7842C19.2718 10.7675 19.2297 10.7451 19.191 10.7174C19.1667 10.6973 19.1444 10.675 19.1243 10.6507C17.331 9.4162 14.769 8.64295 11.9288 8.64295C9.1125 8.64295 6.573 9.40045 4.7805 10.6154C4.76689 10.6332 4.75101 10.6491 4.73325 10.6627C4.69547 10.6976 4.64998 10.723 4.6005 10.7369C3.3975 11.6002 2.56125 12.6742 2.24925 13.8622C2.24744 13.9214 2.2342 13.9797 2.21025 14.0339L2.2035 14.0504ZM11.9768 19.4879C10.1835 19.4879 8.922 19.1009 8.1135 18.2924C8.03086 18.2078 7.9846 18.0942 7.9846 17.9759C7.9846 17.8577 8.03086 17.7441 8.1135 17.6594C8.20054 17.5801 8.31408 17.5361 8.43188 17.5361C8.54967 17.5361 8.66321 17.5801 8.75025 17.6594C9.3795 18.2887 10.434 18.6044 11.9768 18.6044C13.5195 18.6044 14.5665 18.3037 15.1958 17.6744C15.36 17.5102 15.645 17.5102 15.825 17.6744C15.9893 17.8544 15.9893 18.1394 15.825 18.3187C15.0165 19.1272 13.7625 19.5179 11.9655 19.5179L11.9768 19.4879ZM8.37075 11.9182C7.4565 11.9182 6.69525 12.6839 6.69525 13.5937C6.69525 14.5034 7.45725 15.2422 8.37075 15.2422C9.285 15.2422 10.023 14.5042 10.023 13.5937C10.023 12.6832 9.2805 11.9182 8.37075 11.9182ZM15.6053 11.9182C14.691 11.9182 13.9253 12.6839 13.9253 13.5937C13.9253 14.5034 14.691 15.2422 15.6053 15.2422C16.5195 15.2422 17.2537 14.5042 17.2537 13.5937C17.2537 12.6832 16.5158 11.9182 15.6053 11.9182ZM20.1525 10.3199C21.1875 11.1562 21.9533 12.1439 22.3403 13.2262C22.5651 13.0578 22.7473 12.8389 22.8721 12.5873C22.9969 12.3356 23.0608 12.0581 23.0588 11.7772C23.0593 11.4396 22.9658 11.1086 22.7886 10.8212C22.6114 10.5339 22.3575 10.3017 22.0556 10.1507C21.7537 9.9997 21.4156 9.9359 21.0794 9.96646C20.7433 9.99702 20.4222 10.1207 20.1525 10.3237V10.3199ZM2.71125 9.96445C2.47265 9.96425 2.23635 10.0111 2.01587 10.1023C1.7954 10.1935 1.59507 10.3273 1.42635 10.496C1.25764 10.6648 1.12384 10.8651 1.03262 11.0856C0.941405 11.306 0.894554 11.5423 0.894751 11.7809C0.894751 12.3239 1.13325 12.8279 1.539 13.1714C1.93725 12.0892 2.71125 11.1164 3.75 10.2922C3.44507 10.0799 3.0828 9.96534 2.71125 9.9637V9.96445ZM11.9295 22.0432C6.02325 22.0432 1.21875 18.8362 1.21875 14.8987C1.21875 14.6249 1.242 14.3557 1.2855 14.0902C0.89198 13.8462 0.567326 13.5058 0.342346 13.1011C0.117366 12.6964 -0.000476241 12.241 1.4465e-06 11.7779C1.4465e-06 10.2817 1.22625 9.06295 2.72625 9.06295C3.39825 9.06295 4.02675 9.30895 4.52325 9.7462C6.37875 8.55445 8.8785 7.80445 11.6325 7.7542L13.4453 2.23045L13.8518 2.3242C13.8518 2.3242 13.8675 2.3242 13.8675 2.32795L18.09 3.3202C18.2634 2.9169 18.5512 2.57322 18.9177 2.33158C19.2842 2.08994 19.7135 1.96092 20.1525 1.96045C21.3833 1.96045 22.3868 2.9647 22.3868 4.1947C22.3868 5.4247 21.3825 6.42895 20.1525 6.42895C19.562 6.42677 18.9963 6.19095 18.579 5.77302C18.1618 5.35508 17.9269 4.789 17.9258 4.19845L14.0745 3.2842L12.606 7.76095C15.258 7.8667 17.6528 8.6167 19.4498 9.78445C19.9462 9.31959 20.6019 9.06249 21.282 9.06595C22.782 9.06595 24.0008 10.2772 24.0008 11.7772C24.0008 12.7619 23.4615 13.6597 22.6215 14.1404C22.653 14.3947 22.6838 14.6362 22.6838 14.8904C22.668 18.8279 17.8755 22.0312 11.961 22.0312L11.9295 22.0432ZM20.1053 2.8552C19.3673 2.8552 18.7658 3.45295 18.7658 4.19095C18.7658 4.92895 19.3673 5.53045 20.1053 5.53045C20.8395 5.53045 21.4373 4.9327 21.4373 4.19845C21.4373 3.4642 20.8395 2.86645 20.0895 2.86645L20.1053 2.8552Z" fill="white"/>
</g>
<defs>
<clipPath id="clip0_437_318">
<rect width="24" height="24" fill="white"/>
</clipPath>
</defs>
</svg>
