<svg width="256" height="256" viewBox="0 0 256 256" fill="none" xmlns="http://www.w3.org/2000/svg">
<path opacity="0.2" d="M88 160C116.719 160 140 136.719 140 108C140 79.2812 116.719 56 88 56C59.2812 56 36 79.2812 36 108C36 136.719 59.2812 160 88 160Z" fill="#F1F0FF"/>
<path d="M121.2 157.9C131.933 150.77 140.086 140.373 144.452 128.25C148.817 116.126 149.164 102.919 145.44 90.5825C141.716 78.2464 134.119 67.437 123.774 59.7539C113.429 52.0709 100.886 47.9224 87.9999 47.9224C75.114 47.9224 62.5704 52.0709 52.2255 59.7539C41.8806 67.437 34.2841 78.2464 30.5601 90.5825C26.8361 102.919 27.1825 116.126 31.5481 128.25C35.9137 140.373 44.0664 150.77 54.7999 157.9C36.4896 164.633 20.6807 176.813 9.49987 192.8C8.77113 193.644 8.227 194.632 7.90242 195.699C7.57783 196.766 7.47996 197.889 7.61508 198.996C7.7502 200.103 8.11533 201.17 8.68704 202.128C9.25874 203.085 10.0244 203.913 10.9348 204.557C11.8452 205.201 12.8803 205.648 13.9736 205.869C15.0669 206.089 16.1943 206.079 17.2833 205.838C18.3724 205.597 19.399 205.132 20.2974 204.471C21.1957 203.81 21.946 202.968 22.4999 202C29.8926 191.498 39.7023 182.927 51.1019 177.011C62.5014 171.094 75.1565 168.006 87.9999 168.006C100.843 168.006 113.498 171.094 124.898 177.011C136.297 182.927 146.107 191.498 153.5 202C154.054 202.968 154.804 203.81 155.702 204.471C156.601 205.132 157.627 205.597 158.716 205.838C159.805 206.079 160.933 206.089 162.026 205.869C163.119 205.648 164.155 205.201 165.065 204.557C165.975 203.913 166.741 203.085 167.313 202.128C167.884 201.17 168.25 200.103 168.385 198.996C168.52 197.889 168.422 196.766 168.097 195.699C167.773 194.632 167.229 193.644 166.5 192.8C155.319 176.813 139.51 164.633 121.2 157.9V157.9ZM43.9999 108C43.9999 99.2976 46.5804 90.7906 51.4152 83.5549C56.25 76.3191 63.1218 70.6795 71.1618 67.3493C79.2017 64.019 88.0487 63.1477 96.5838 64.8454C105.119 66.5432 112.959 70.7337 119.113 76.8873C125.266 83.0408 129.457 90.8808 131.154 99.416C132.852 107.951 131.981 116.798 128.651 124.838C125.32 132.878 119.681 139.75 112.445 144.585C105.209 149.419 96.7022 152 87.9999 152C76.3303 152 65.1388 147.364 56.8872 139.113C48.6356 130.861 43.9999 119.669 43.9999 108Z" fill="#C3C3E5"/>
<path d="M248.1 192.8C236.856 176.832 221.022 164.661 202.7 157.9C213.468 150.797 221.654 140.408 226.043 128.278C230.431 116.148 230.787 102.925 227.056 90.5773C223.326 78.2292 215.709 67.4151 205.339 59.7437C194.969 52.0723 182.399 47.9535 169.5 47.9999C163.995 48.0291 158.516 48.7685 153.2 50.1999C151.172 50.8043 149.46 52.1787 148.432 54.0289C147.405 55.8792 147.142 58.0583 147.7 60.0999C147.988 61.1117 148.473 62.0567 149.126 62.8809C149.78 63.7051 150.59 64.3923 151.509 64.9032C152.429 65.4141 153.44 65.7386 154.485 65.8581C155.531 65.9777 156.589 65.8899 157.6 65.5999C161.483 64.5643 165.482 64.0266 169.5 63.9999C181.17 63.9999 192.361 68.6356 200.613 76.8872C208.864 85.1388 213.5 96.3304 213.5 108C213.5 119.669 208.864 130.861 200.613 139.113C192.361 147.364 181.17 152 169.5 152C167.378 152 165.344 152.843 163.843 154.343C162.343 155.843 161.5 157.878 161.5 160C161.5 162.122 162.343 164.156 163.843 165.657C165.344 167.157 167.378 168 169.5 168C182.343 168.009 194.995 171.102 206.393 177.018C217.791 182.935 227.602 191.502 235 202C235.599 202.86 236.363 203.593 237.247 204.155C238.132 204.717 239.119 205.098 240.152 205.275C241.185 205.452 242.243 205.421 243.264 205.185C244.286 204.949 245.25 204.512 246.1 203.9C247.832 202.689 249.014 200.842 249.389 198.762C249.764 196.683 249.3 194.539 248.1 192.8V192.8Z" fill="#F1F0FF"/>
</svg>
