<svg width="607" height="86" viewBox="0 0 607 86" fill="none" xmlns="http://www.w3.org/2000/svg">
<rect x="128" width="71" height="86" rx="5" fill="#443266"/>
<rect x="397" width="71" height="86" rx="5" fill="#443266"/>
<path d="M152.738 67.42C152.458 67.2667 152.172 67.14 151.878 67.04C151.592 66.94 151.322 66.89 151.068 66.89C150.755 66.89 150.508 66.9533 150.328 67.08C150.148 67.2067 150.058 67.3967 150.058 67.65C150.058 67.8233 150.125 67.98 150.258 68.12C150.398 68.2533 150.575 68.3733 150.788 68.48C151.008 68.5867 151.235 68.6833 151.468 68.77C151.682 68.85 151.892 68.9467 152.098 69.06C152.312 69.1667 152.502 69.3033 152.668 69.47C152.835 69.63 152.968 69.8333 153.068 70.08C153.168 70.32 153.218 70.6167 153.218 70.97C153.218 71.3433 153.122 71.69 152.928 72.01C152.735 72.33 152.452 72.59 152.078 72.79C151.705 72.9833 151.245 73.08 150.698 73.08C150.418 73.08 150.132 73.0533 149.838 73C149.552 72.94 149.268 72.8533 148.988 72.74C148.708 72.62 148.438 72.47 148.178 72.29L148.818 71.16C148.992 71.2867 149.178 71.4 149.378 71.5C149.585 71.5933 149.792 71.6667 149.998 71.72C150.205 71.7733 150.395 71.8 150.568 71.8C150.742 71.8 150.915 71.7767 151.088 71.73C151.268 71.6767 151.415 71.59 151.528 71.47C151.648 71.35 151.708 71.1833 151.708 70.97C151.708 70.8233 151.658 70.69 151.558 70.57C151.465 70.45 151.335 70.34 151.168 70.24C151.008 70.14 150.832 70.0533 150.638 69.98C150.412 69.8933 150.178 69.7933 149.938 69.68C149.698 69.5667 149.472 69.43 149.258 69.27C149.052 69.1033 148.882 68.9 148.748 68.66C148.622 68.4133 148.558 68.1133 148.558 67.76C148.558 67.3333 148.652 66.9633 148.838 66.65C149.032 66.3367 149.302 66.09 149.648 65.91C149.995 65.7233 150.395 65.62 150.848 65.6C151.442 65.6 151.922 65.67 152.288 65.81C152.662 65.95 152.995 66.1167 153.288 66.31L152.738 67.42ZM156.558 73.12C156.025 73.12 155.572 73.02 155.198 72.82C154.832 72.62 154.552 72.3433 154.358 71.99C154.165 71.6367 154.068 71.23 154.068 70.77C154.068 70.33 154.182 69.9333 154.408 69.58C154.635 69.2267 154.938 68.9467 155.318 68.74C155.698 68.5267 156.122 68.42 156.588 68.42C157.215 68.42 157.728 68.6033 158.128 68.97C158.535 69.33 158.798 69.8533 158.918 70.54L155.518 71.62L155.208 70.86L157.668 70.03L157.378 70.16C157.325 69.9867 157.228 69.8367 157.088 69.71C156.955 69.5767 156.752 69.51 156.478 69.51C156.272 69.51 156.088 69.56 155.928 69.66C155.775 69.7533 155.655 69.89 155.568 70.07C155.488 70.2433 155.448 70.45 155.448 70.69C155.448 70.9633 155.498 71.1933 155.598 71.38C155.698 71.56 155.835 71.6967 156.008 71.79C156.182 71.8833 156.375 71.93 156.588 71.93C156.742 71.93 156.888 71.9033 157.028 71.85C157.175 71.7967 157.318 71.7267 157.458 71.64L158.078 72.68C157.845 72.8133 157.592 72.92 157.318 73C157.052 73.08 156.798 73.12 156.558 73.12ZM161.196 68.63L161.326 69.83L161.296 69.65C161.422 69.39 161.596 69.17 161.816 68.99C162.036 68.8033 162.252 68.66 162.466 68.56C162.686 68.46 162.852 68.41 162.966 68.41L162.896 69.81C162.569 69.77 162.289 69.8233 162.056 69.97C161.822 70.1167 161.642 70.31 161.516 70.55C161.389 70.79 161.326 71.0367 161.326 71.29V73H159.936V68.63H161.196ZM166.037 73.09L163.417 68.63H165.077L166.567 71.65L165.707 71.62L166.997 68.63H168.557L166.077 73.09H166.037ZM171.383 73.12C170.849 73.12 170.396 73.02 170.023 72.82C169.656 72.62 169.376 72.3433 169.183 71.99C168.989 71.6367 168.893 71.23 168.893 70.77C168.893 70.33 169.006 69.9333 169.233 69.58C169.459 69.2267 169.763 68.9467 170.143 68.74C170.523 68.5267 170.946 68.42 171.413 68.42C172.039 68.42 172.553 68.6033 172.953 68.97C173.359 69.33 173.623 69.8533 173.743 70.54L170.343 71.62L170.033 70.86L172.493 70.03L172.203 70.16C172.149 69.9867 172.053 69.8367 171.913 69.71C171.779 69.5767 171.576 69.51 171.303 69.51C171.096 69.51 170.913 69.56 170.753 69.66C170.599 69.7533 170.479 69.89 170.393 70.07C170.313 70.2433 170.273 70.45 170.273 70.69C170.273 70.9633 170.323 71.1933 170.423 71.38C170.523 71.56 170.659 71.6967 170.833 71.79C171.006 71.8833 171.199 71.93 171.413 71.93C171.566 71.93 171.713 71.9033 171.853 71.85C171.999 71.7967 172.143 71.7267 172.283 71.64L172.903 72.68C172.669 72.8133 172.416 72.92 172.143 73C171.876 73.08 171.623 73.12 171.383 73.12ZM176.02 68.63L176.15 69.83L176.12 69.65C176.247 69.39 176.42 69.17 176.64 68.99C176.86 68.8033 177.077 68.66 177.29 68.56C177.51 68.46 177.677 68.41 177.79 68.41L177.72 69.81C177.393 69.77 177.113 69.8233 176.88 69.97C176.647 70.1167 176.467 70.31 176.34 70.55C176.213 70.79 176.15 71.0367 176.15 71.29V73H174.76V68.63H176.02Z" fill="white"/>
<path d="M410.291 76V68.64H412.491C413.231 68.64 413.861 68.75 414.381 68.97C414.901 69.19 415.317 69.4833 415.631 69.85C415.951 70.2167 416.184 70.6267 416.331 71.08C416.477 71.5333 416.551 71.99 416.551 72.45C416.551 72.9967 416.451 73.49 416.251 73.93C416.057 74.3633 415.791 74.7367 415.451 75.05C415.111 75.3567 414.717 75.5933 414.271 75.76C413.824 75.92 413.351 76 412.851 76H410.291ZM411.741 74.6H412.601C412.967 74.6 413.301 74.5533 413.601 74.46C413.901 74.36 414.157 74.2167 414.371 74.03C414.591 73.8433 414.757 73.61 414.871 73.33C414.991 73.0433 415.051 72.7167 415.051 72.35C415.051 71.87 414.971 71.48 414.811 71.18C414.657 70.8733 414.464 70.6367 414.231 70.47C414.004 70.3033 413.771 70.19 413.531 70.13C413.291 70.0633 413.087 70.03 412.921 70.03H411.741V74.6ZM419.616 76.12C419.209 76.12 418.839 76.04 418.506 75.88C418.179 75.7133 417.919 75.46 417.726 75.12C417.532 74.78 417.436 74.3467 417.436 73.82C417.436 73.3267 417.536 72.9 417.736 72.54C417.936 72.18 418.199 71.9033 418.526 71.71C418.852 71.51 419.199 71.41 419.566 71.41C419.999 71.41 420.326 71.4833 420.546 71.63C420.772 71.77 420.959 71.9267 421.106 72.1L421.046 72.27L421.176 71.63H422.476V76H421.076V75.05L421.186 75.35C421.172 75.35 421.132 75.39 421.066 75.47C420.999 75.5433 420.899 75.6333 420.766 75.74C420.639 75.84 420.479 75.9267 420.286 76C420.099 76.08 419.876 76.12 419.616 76.12ZM420.016 74.98C420.182 74.98 420.332 74.9567 420.466 74.91C420.599 74.8567 420.716 74.7833 420.816 74.69C420.916 74.59 421.002 74.4667 421.076 74.32V73.25C421.022 73.1033 420.942 72.98 420.836 72.88C420.729 72.7733 420.602 72.6933 420.456 72.64C420.309 72.58 420.146 72.55 419.966 72.55C419.766 72.55 419.579 72.6033 419.406 72.71C419.239 72.81 419.106 72.95 419.006 73.13C418.906 73.31 418.856 73.5167 418.856 73.75C418.856 73.9833 418.909 74.1933 419.016 74.38C419.122 74.5667 419.262 74.7133 419.436 74.82C419.616 74.9267 419.809 74.98 420.016 74.98ZM424.328 69.71H425.728V71.61H426.788V72.7H425.728V76H424.328V72.7H423.648V71.61H424.328V69.71ZM429.694 76.12C429.287 76.12 428.917 76.04 428.584 75.88C428.257 75.7133 427.997 75.46 427.804 75.12C427.61 74.78 427.514 74.3467 427.514 73.82C427.514 73.3267 427.614 72.9 427.814 72.54C428.014 72.18 428.277 71.9033 428.604 71.71C428.93 71.51 429.277 71.41 429.644 71.41C430.077 71.41 430.404 71.4833 430.624 71.63C430.85 71.77 431.037 71.9267 431.184 72.1L431.124 72.27L431.254 71.63H432.554V76H431.154V75.05L431.264 75.35C431.25 75.35 431.21 75.39 431.144 75.47C431.077 75.5433 430.977 75.6333 430.844 75.74C430.717 75.84 430.557 75.9267 430.364 76C430.177 76.08 429.954 76.12 429.694 76.12ZM430.094 74.98C430.26 74.98 430.41 74.9567 430.544 74.91C430.677 74.8567 430.794 74.7833 430.894 74.69C430.994 74.59 431.08 74.4667 431.154 74.32V73.25C431.1 73.1033 431.02 72.98 430.914 72.88C430.807 72.7733 430.68 72.6933 430.534 72.64C430.387 72.58 430.224 72.55 430.044 72.55C429.844 72.55 429.657 72.6033 429.484 72.71C429.317 72.81 429.184 72.95 429.084 73.13C428.984 73.31 428.934 73.5167 428.934 73.75C428.934 73.9833 428.987 74.1933 429.094 74.38C429.2 74.5667 429.34 74.7133 429.514 74.82C429.694 74.9267 429.887 74.98 430.094 74.98ZM436.866 76.12C436.5 76.12 436.19 76.06 435.936 75.94C435.69 75.8133 435.473 75.65 435.286 75.45L435.396 75.15V76H433.996V68.11H435.386V72.38V71.93C435.56 71.7833 435.79 71.66 436.076 71.56C436.363 71.46 436.69 71.41 437.056 71.41C437.436 71.41 437.783 71.5 438.096 71.68C438.41 71.86 438.66 72.1233 438.846 72.47C439.04 72.81 439.136 73.2267 439.136 73.72C439.136 74.2133 439.03 74.64 438.816 75C438.61 75.36 438.333 75.6367 437.986 75.83C437.64 76.0233 437.266 76.12 436.866 76.12ZM436.556 74.94C436.763 74.94 436.953 74.8867 437.126 74.78C437.306 74.6733 437.45 74.5267 437.556 74.34C437.663 74.1533 437.716 73.9433 437.716 73.71C437.716 73.4767 437.663 73.27 437.556 73.09C437.45 72.91 437.306 72.77 437.126 72.67C436.953 72.5633 436.763 72.51 436.556 72.51C436.376 72.51 436.206 72.54 436.046 72.6C435.893 72.6533 435.76 72.7333 435.646 72.84C435.54 72.94 435.456 73.0633 435.396 73.21V74.28C435.476 74.4267 435.57 74.55 435.676 74.65C435.79 74.7433 435.92 74.8167 436.066 74.87C436.213 74.9167 436.376 74.94 436.556 74.94ZM442.077 76.12C441.67 76.12 441.3 76.04 440.967 75.88C440.64 75.7133 440.38 75.46 440.187 75.12C439.993 74.78 439.897 74.3467 439.897 73.82C439.897 73.3267 439.997 72.9 440.197 72.54C440.397 72.18 440.66 71.9033 440.987 71.71C441.313 71.51 441.66 71.41 442.027 71.41C442.46 71.41 442.787 71.4833 443.007 71.63C443.233 71.77 443.42 71.9267 443.567 72.1L443.507 72.27L443.637 71.63H444.937V76H443.537V75.05L443.647 75.35C443.633 75.35 443.593 75.39 443.527 75.47C443.46 75.5433 443.36 75.6333 443.227 75.74C443.1 75.84 442.94 75.9267 442.747 76C442.56 76.08 442.337 76.12 442.077 76.12ZM442.477 74.98C442.643 74.98 442.793 74.9567 442.927 74.91C443.06 74.8567 443.177 74.7833 443.277 74.69C443.377 74.59 443.463 74.4667 443.537 74.32V73.25C443.483 73.1033 443.403 72.98 443.297 72.88C443.19 72.7733 443.063 72.6933 442.917 72.64C442.77 72.58 442.607 72.55 442.427 72.55C442.227 72.55 442.04 72.6033 441.867 72.71C441.7 72.81 441.567 72.95 441.467 73.13C441.367 73.31 441.317 73.5167 441.317 73.75C441.317 73.9833 441.37 74.1933 441.477 74.38C441.583 74.5667 441.723 74.7133 441.897 74.82C442.077 74.9267 442.27 74.98 442.477 74.98ZM447.799 76.09C447.439 76.09 447.103 76.0267 446.789 75.9C446.483 75.7733 446.223 75.5967 446.009 75.37L446.589 74.6C446.803 74.7933 446.999 74.9333 447.179 75.02C447.366 75.1 447.533 75.14 447.679 75.14C447.793 75.14 447.893 75.13 447.979 75.11C448.073 75.0833 448.146 75.0467 448.199 75C448.253 74.9467 448.279 74.88 448.279 74.8C448.279 74.6867 448.233 74.5967 448.139 74.53C448.053 74.4633 447.939 74.41 447.799 74.37C447.659 74.3233 447.509 74.2767 447.349 74.23C446.949 74.1033 446.659 73.92 446.479 73.68C446.306 73.4333 446.219 73.1667 446.219 72.88C446.219 72.66 446.276 72.44 446.389 72.22C446.509 71.9933 446.696 71.8067 446.949 71.66C447.209 71.5067 447.543 71.43 447.949 71.43C448.316 71.43 448.626 71.4667 448.879 71.54C449.133 71.6133 449.373 71.7333 449.599 71.9L449.069 72.72C448.943 72.62 448.799 72.5367 448.639 72.47C448.486 72.3967 448.343 72.3567 448.209 72.35C448.089 72.3433 447.986 72.3567 447.899 72.39C447.819 72.4233 447.756 72.4667 447.709 72.52C447.663 72.5733 447.639 72.63 447.639 72.69C447.633 72.8167 447.679 72.9167 447.779 72.99C447.886 73.0633 448.019 73.12 448.179 73.16C448.339 73.2 448.496 73.2467 448.649 73.3C448.863 73.3667 449.046 73.4567 449.199 73.57C449.353 73.6833 449.469 73.82 449.549 73.98C449.636 74.1333 449.679 74.32 449.679 74.54C449.679 74.8067 449.609 75.06 449.469 75.3C449.336 75.5333 449.129 75.7233 448.849 75.87C448.576 76.0167 448.226 76.09 447.799 76.09ZM453.002 76.12C452.469 76.12 452.015 76.02 451.642 75.82C451.275 75.62 450.995 75.3433 450.802 74.99C450.609 74.6367 450.512 74.23 450.512 73.77C450.512 73.33 450.625 72.9333 450.852 72.58C451.079 72.2267 451.382 71.9467 451.762 71.74C452.142 71.5267 452.565 71.42 453.032 71.42C453.659 71.42 454.172 71.6033 454.572 71.97C454.979 72.33 455.242 72.8533 455.362 73.54L451.962 74.62L451.652 73.86L454.112 73.03L453.822 73.16C453.769 72.9867 453.672 72.8367 453.532 72.71C453.399 72.5767 453.195 72.51 452.922 72.51C452.715 72.51 452.532 72.56 452.372 72.66C452.219 72.7533 452.099 72.89 452.012 73.07C451.932 73.2433 451.892 73.45 451.892 73.69C451.892 73.9633 451.942 74.1933 452.042 74.38C452.142 74.56 452.279 74.6967 452.452 74.79C452.625 74.8833 452.819 74.93 453.032 74.93C453.185 74.93 453.332 74.9033 453.472 74.85C453.619 74.7967 453.762 74.7267 453.902 74.64L454.522 75.68C454.289 75.8133 454.035 75.92 453.762 76C453.495 76.08 453.242 76.12 453.002 76.12Z" fill="white"/>
<path d="M8.98223 70V62.64H11.1822C11.9222 62.64 12.5522 62.75 13.0722 62.97C13.5922 63.19 14.0089 63.4833 14.3222 63.85C14.6422 64.2167 14.8756 64.6267 15.0222 65.08C15.1689 65.5333 15.2422 65.99 15.2422 66.45C15.2422 66.9967 15.1422 67.49 14.9422 67.93C14.7489 68.3633 14.4822 68.7367 14.1422 69.05C13.8022 69.3567 13.4089 69.5933 12.9622 69.76C12.5156 69.92 12.0422 70 11.5422 70H8.98223ZM10.4322 68.6H11.2922C11.6589 68.6 11.9922 68.5533 12.2922 68.46C12.5922 68.36 12.8489 68.2167 13.0622 68.03C13.2822 67.8433 13.4489 67.61 13.5622 67.33C13.6822 67.0433 13.7422 66.7167 13.7422 66.35C13.7422 65.87 13.6622 65.48 13.5022 65.18C13.3489 64.8733 13.1556 64.6367 12.9222 64.47C12.6956 64.3033 12.4622 64.19 12.2222 64.13C11.9822 64.0633 11.7789 64.03 11.6122 64.03H10.4322V68.6ZM18.3071 70.12C17.9004 70.12 17.5304 70.04 17.1971 69.88C16.8704 69.7133 16.6104 69.46 16.4171 69.12C16.2237 68.78 16.1271 68.3467 16.1271 67.82C16.1271 67.3267 16.2271 66.9 16.4271 66.54C16.6271 66.18 16.8904 65.9033 17.2171 65.71C17.5437 65.51 17.8904 65.41 18.2571 65.41C18.6904 65.41 19.0171 65.4833 19.2371 65.63C19.4637 65.77 19.6504 65.9267 19.7971 66.1L19.7371 66.27L19.8671 65.63H21.1671V70H19.7671V69.05L19.8771 69.35C19.8637 69.35 19.8237 69.39 19.7571 69.47C19.6904 69.5433 19.5904 69.6333 19.4571 69.74C19.3304 69.84 19.1704 69.9267 18.9771 70C18.7904 70.08 18.5671 70.12 18.3071 70.12ZM18.7071 68.98C18.8737 68.98 19.0237 68.9567 19.1571 68.91C19.2904 68.8567 19.4071 68.7833 19.5071 68.69C19.6071 68.59 19.6937 68.4667 19.7671 68.32V67.25C19.7137 67.1033 19.6337 66.98 19.5271 66.88C19.4204 66.7733 19.2937 66.6933 19.1471 66.64C19.0004 66.58 18.8371 66.55 18.6571 66.55C18.4571 66.55 18.2704 66.6033 18.0971 66.71C17.9304 66.81 17.7971 66.95 17.6971 67.13C17.5971 67.31 17.5471 67.5167 17.5471 67.75C17.5471 67.9833 17.6004 68.1933 17.7071 68.38C17.8137 68.5667 17.9537 68.7133 18.1271 68.82C18.3071 68.9267 18.5004 68.98 18.7071 68.98ZM23.0196 63.71H24.4196V65.61H25.4796V66.7H24.4196V70H23.0196V66.7H22.3396V65.61H23.0196V63.71ZM28.3852 70.12C27.9785 70.12 27.6085 70.04 27.2752 69.88C26.9485 69.7133 26.6885 69.46 26.4952 69.12C26.3019 68.78 26.2052 68.3467 26.2052 67.82C26.2052 67.3267 26.3052 66.9 26.5052 66.54C26.7052 66.18 26.9685 65.9033 27.2952 65.71C27.6219 65.51 27.9685 65.41 28.3352 65.41C28.7685 65.41 29.0952 65.4833 29.3152 65.63C29.5419 65.77 29.7285 65.9267 29.8752 66.1L29.8152 66.27L29.9452 65.63H31.2452V70H29.8452V69.05L29.9552 69.35C29.9419 69.35 29.9019 69.39 29.8352 69.47C29.7685 69.5433 29.6685 69.6333 29.5352 69.74C29.4085 69.84 29.2485 69.9267 29.0552 70C28.8685 70.08 28.6452 70.12 28.3852 70.12ZM28.7852 68.98C28.9519 68.98 29.1019 68.9567 29.2352 68.91C29.3685 68.8567 29.4852 68.7833 29.5852 68.69C29.6852 68.59 29.7719 68.4667 29.8452 68.32V67.25C29.7919 67.1033 29.7119 66.98 29.6052 66.88C29.4985 66.7733 29.3719 66.6933 29.2252 66.64C29.0785 66.58 28.9152 66.55 28.7352 66.55C28.5352 66.55 28.3485 66.6033 28.1752 66.71C28.0085 66.81 27.8752 66.95 27.7752 67.13C27.6752 67.31 27.6252 67.5167 27.6252 67.75C27.6252 67.9833 27.6785 68.1933 27.7852 68.38C27.8919 68.5667 28.0319 68.7133 28.2052 68.82C28.3852 68.9267 28.5785 68.98 28.7852 68.98Z" fill="#443266"/>
<path d="M276.205 65.64C276.971 65.64 277.581 65.7967 278.035 66.11C278.488 66.4167 278.715 66.8767 278.715 67.49C278.715 67.9433 278.601 68.3233 278.375 68.63C278.155 68.93 277.851 69.1567 277.465 69.31C277.085 69.4567 276.648 69.53 276.155 69.53L275.925 68.75C276.531 68.75 277.068 68.8333 277.535 69C278.008 69.1667 278.381 69.4067 278.655 69.72C278.928 70.0267 279.065 70.3967 279.065 70.83C279.065 71.23 278.991 71.57 278.845 71.85C278.705 72.1233 278.511 72.3467 278.265 72.52C278.025 72.6867 277.751 72.81 277.445 72.89C277.138 72.9633 276.821 73 276.495 73H274.045V65.64H276.205ZM276.375 68.65C276.661 68.65 276.871 68.5633 277.005 68.39C277.145 68.2167 277.215 68.02 277.215 67.8C277.215 67.5467 277.128 67.3567 276.955 67.23C276.788 67.1033 276.561 67.04 276.275 67.04H275.495V68.65H276.375ZM276.425 71.65C276.638 71.65 276.831 71.6233 277.005 71.57C277.178 71.51 277.315 71.42 277.415 71.3C277.515 71.1733 277.565 71.0167 277.565 70.83C277.565 70.6167 277.505 70.4567 277.385 70.35C277.265 70.2367 277.108 70.16 276.915 70.12C276.728 70.0733 276.531 70.05 276.325 70.05H275.495V71.65H276.425ZM280.289 65.11H281.689V73H280.289V65.11ZM282.791 70.76C282.791 70.3133 282.894 69.9133 283.101 69.56C283.314 69.2067 283.611 68.93 283.991 68.73C284.371 68.5233 284.808 68.42 285.301 68.42C285.801 68.42 286.234 68.5233 286.601 68.73C286.968 68.93 287.248 69.2067 287.441 69.56C287.641 69.9133 287.741 70.3133 287.741 70.76C287.741 71.2067 287.641 71.61 287.441 71.97C287.248 72.3233 286.968 72.6033 286.601 72.81C286.234 73.0167 285.794 73.12 285.281 73.12C284.801 73.12 284.371 73.0267 283.991 72.84C283.618 72.6533 283.324 72.3833 283.111 72.03C282.898 71.6767 282.791 71.2533 282.791 70.76ZM284.201 70.77C284.201 70.9967 284.248 71.2033 284.341 71.39C284.434 71.57 284.561 71.7133 284.721 71.82C284.881 71.9267 285.061 71.98 285.261 71.98C285.481 71.98 285.671 71.9267 285.831 71.82C285.991 71.7133 286.114 71.57 286.201 71.39C286.288 71.2033 286.331 70.9967 286.331 70.77C286.331 70.5367 286.288 70.33 286.201 70.15C286.114 69.97 285.991 69.8267 285.831 69.72C285.671 69.6133 285.481 69.56 285.261 69.56C285.061 69.56 284.881 69.6133 284.721 69.72C284.561 69.8267 284.434 69.97 284.341 70.15C284.248 70.33 284.201 70.5367 284.201 70.77ZM292.554 72.61C292.361 72.7633 292.117 72.8867 291.824 72.98C291.537 73.0733 291.254 73.12 290.974 73.12C290.474 73.12 290.037 73.03 289.664 72.85C289.297 72.6633 289.011 72.4 288.804 72.06C288.604 71.7133 288.504 71.2967 288.504 70.81C288.504 70.3233 288.614 69.91 288.834 69.57C289.054 69.2233 289.341 68.96 289.694 68.78C290.054 68.6 290.431 68.51 290.824 68.51C291.217 68.51 291.557 68.5633 291.844 68.67C292.137 68.7767 292.387 68.9167 292.594 69.09L291.914 69.99C291.821 69.9167 291.691 69.8433 291.524 69.77C291.364 69.69 291.174 69.65 290.954 69.65C290.761 69.65 290.584 69.7 290.424 69.8C290.264 69.9 290.137 70.0367 290.044 70.21C289.951 70.3833 289.904 70.5833 289.904 70.81C289.904 71.0233 289.954 71.22 290.054 71.4C290.154 71.58 290.291 71.7233 290.464 71.83C290.644 71.93 290.854 71.98 291.094 71.98C291.247 71.98 291.387 71.96 291.514 71.92C291.647 71.8733 291.761 71.81 291.854 71.73L292.554 72.61ZM293.629 73V65.11H295.029V73H293.629ZM296.139 70.03L298.119 73H296.489L295.219 70.83L296.139 70.03ZM294.609 71.79L294.469 70.46L297.109 68.52L297.959 69.27L294.609 71.79ZM302.691 72.61C302.497 72.7633 302.254 72.8867 301.961 72.98C301.674 73.0733 301.391 73.12 301.111 73.12C300.611 73.12 300.174 73.03 299.801 72.85C299.434 72.6633 299.147 72.4 298.941 72.06C298.741 71.7133 298.641 71.2967 298.641 70.81C298.641 70.3233 298.751 69.91 298.971 69.57C299.191 69.2233 299.477 68.96 299.831 68.78C300.191 68.6 300.567 68.51 300.961 68.51C301.354 68.51 301.694 68.5633 301.981 68.67C302.274 68.7767 302.524 68.9167 302.731 69.09L302.051 69.99C301.957 69.9167 301.827 69.8433 301.661 69.77C301.501 69.69 301.311 69.65 301.091 69.65C300.897 69.65 300.721 69.7 300.561 69.8C300.401 69.9 300.274 70.0367 300.181 70.21C300.087 70.3833 300.041 70.5833 300.041 70.81C300.041 71.0233 300.091 71.22 300.191 71.4C300.291 71.58 300.427 71.7233 300.601 71.83C300.781 71.93 300.991 71.98 301.231 71.98C301.384 71.98 301.524 71.96 301.651 71.92C301.784 71.8733 301.897 71.81 301.991 71.73L302.691 72.61ZM303.766 73V65.11H305.136V69.51L305.126 69.34C305.279 69.0667 305.496 68.8467 305.776 68.68C306.056 68.5067 306.399 68.42 306.806 68.42C307.219 68.42 307.563 68.5433 307.836 68.79C308.116 69.03 308.259 69.3433 308.266 69.73V73H306.866V70.25C306.859 70.0567 306.806 69.9033 306.706 69.79C306.613 69.67 306.453 69.61 306.226 69.61C306.013 69.61 305.826 69.68 305.666 69.82C305.506 69.96 305.383 70.15 305.296 70.39C305.209 70.63 305.166 70.9067 305.166 71.22V73H303.766ZM311.543 73.12C311.137 73.12 310.767 73.04 310.433 72.88C310.107 72.7133 309.847 72.46 309.653 72.12C309.46 71.78 309.363 71.3467 309.363 70.82C309.363 70.3267 309.463 69.9 309.663 69.54C309.863 69.18 310.127 68.9033 310.453 68.71C310.78 68.51 311.127 68.41 311.493 68.41C311.927 68.41 312.253 68.4833 312.473 68.63C312.7 68.77 312.887 68.9267 313.033 69.1L312.973 69.27L313.103 68.63H314.403V73H313.003V72.05L313.113 72.35C313.1 72.35 313.06 72.39 312.993 72.47C312.927 72.5433 312.827 72.6333 312.693 72.74C312.567 72.84 312.407 72.9267 312.213 73C312.027 73.08 311.803 73.12 311.543 73.12ZM311.943 71.98C312.11 71.98 312.26 71.9567 312.393 71.91C312.527 71.8567 312.643 71.7833 312.743 71.69C312.843 71.59 312.93 71.4667 313.003 71.32V70.25C312.95 70.1033 312.87 69.98 312.763 69.88C312.657 69.7733 312.53 69.6933 312.383 69.64C312.237 69.58 312.073 69.55 311.893 69.55C311.693 69.55 311.507 69.6033 311.333 69.71C311.167 69.81 311.033 69.95 310.933 70.13C310.833 70.31 310.783 70.5167 310.783 70.75C310.783 70.9833 310.837 71.1933 310.943 71.38C311.05 71.5667 311.19 71.7133 311.363 71.82C311.543 71.9267 311.737 71.98 311.943 71.98ZM315.846 68.63H317.246V73H315.846V68.63ZM315.816 67.08C315.816 66.8733 315.896 66.7033 316.056 66.57C316.223 66.4367 316.399 66.37 316.586 66.37C316.773 66.37 316.943 66.4367 317.096 66.57C317.256 66.7033 317.336 66.8733 317.336 67.08C317.336 67.2867 317.256 67.4567 317.096 67.59C316.943 67.7167 316.773 67.78 316.586 67.78C316.399 67.78 316.223 67.7167 316.056 67.59C315.896 67.4567 315.816 67.2867 315.816 67.08ZM319.958 68.63L320.068 69.41L320.048 69.34C320.201 69.0667 320.418 68.8467 320.698 68.68C320.978 68.5067 321.321 68.42 321.728 68.42C322.141 68.42 322.484 68.5433 322.758 68.79C323.038 69.03 323.181 69.3433 323.188 69.73V73H321.788V70.25C321.781 70.0567 321.728 69.9033 321.628 69.79C321.534 69.67 321.374 69.61 321.148 69.61C320.934 69.61 320.748 69.68 320.588 69.82C320.428 69.96 320.304 70.15 320.218 70.39C320.131 70.63 320.088 70.9067 320.088 71.22V73H318.688V68.63H319.958Z" fill="#443266"/>
<path d="M562.796 73V65.34H562.806L566.896 71.14L566.276 71L570.356 65.34H570.376V73H568.926V68.61L569.016 69.36L566.526 72.9H566.506L563.946 69.36L564.196 68.67V73H562.796ZM573.888 73.12C573.481 73.12 573.111 73.04 572.778 72.88C572.451 72.7133 572.191 72.46 571.998 72.12C571.805 71.78 571.708 71.3467 571.708 70.82C571.708 70.3267 571.808 69.9 572.008 69.54C572.208 69.18 572.471 68.9033 572.798 68.71C573.125 68.51 573.471 68.41 573.838 68.41C574.271 68.41 574.598 68.4833 574.818 68.63C575.045 68.77 575.231 68.9267 575.378 69.1L575.318 69.27L575.448 68.63H576.748V73H575.348V72.05L575.458 72.35C575.445 72.35 575.405 72.39 575.338 72.47C575.271 72.5433 575.171 72.6333 575.038 72.74C574.911 72.84 574.751 72.9267 574.558 73C574.371 73.08 574.148 73.12 573.888 73.12ZM574.288 71.98C574.455 71.98 574.605 71.9567 574.738 71.91C574.871 71.8567 574.988 71.7833 575.088 71.69C575.188 71.59 575.275 71.4667 575.348 71.32V70.25C575.295 70.1033 575.215 69.98 575.108 69.88C575.001 69.7733 574.875 69.6933 574.728 69.64C574.581 69.58 574.418 69.55 574.238 69.55C574.038 69.55 573.851 69.6033 573.678 69.71C573.511 69.81 573.378 69.95 573.278 70.13C573.178 70.31 573.128 70.5167 573.128 70.75C573.128 70.9833 573.181 71.1933 573.288 71.38C573.395 71.5667 573.535 71.7133 573.708 71.82C573.888 71.9267 574.081 71.98 574.288 71.98ZM578.191 68.63H579.591V73H578.191V68.63ZM578.161 67.08C578.161 66.8733 578.241 66.7033 578.401 66.57C578.567 66.4367 578.744 66.37 578.931 66.37C579.117 66.37 579.287 66.4367 579.441 66.57C579.601 66.7033 579.681 66.8733 579.681 67.08C579.681 67.2867 579.601 67.4567 579.441 67.59C579.287 67.7167 579.117 67.78 578.931 67.78C578.744 67.78 578.567 67.7167 578.401 67.59C578.241 67.4567 578.161 67.2867 578.161 67.08ZM581.033 65.11H582.433V73H581.033V65.11Z" fill="#443266"/>
<path d="M18.75 20.5H35V23H18.75V20.5ZM18.75 43H35V45.5H18.75V43ZM5 31.75H21.25V34.25H5V31.75ZM8.75 26.75C7.7611 26.75 6.7944 26.4568 5.97215 25.9073C5.14991 25.3579 4.50904 24.577 4.1306 23.6634C3.75217 22.7498 3.65315 21.7445 3.84608 20.7745C4.039 19.8046 4.51521 18.9137 5.21447 18.2145C5.91373 17.5152 6.80465 17.039 7.77455 16.8461C8.74446 16.6531 9.74979 16.7522 10.6634 17.1306C11.5771 17.509 12.3579 18.1499 12.9074 18.9721C13.4568 19.7944 13.75 20.7611 13.75 21.75C13.75 23.0761 13.2232 24.3479 12.2855 25.2855C11.3479 26.2232 10.0761 26.75 8.75 26.75ZM8.75 19.25C8.25555 19.25 7.7722 19.3966 7.36108 19.6713C6.94995 19.946 6.62952 20.3365 6.4403 20.7933C6.25108 21.2501 6.20158 21.7528 6.29804 22.2377C6.3945 22.7227 6.6326 23.1681 6.98223 23.5178C7.33187 23.8674 7.77732 24.1055 8.26228 24.202C8.74723 24.2984 9.2499 24.2489 9.70671 24.0597C10.1635 23.8705 10.554 23.55 10.8287 23.1389C11.1034 22.7278 11.25 22.2445 11.25 21.75C11.25 21.087 10.9866 20.4511 10.5178 19.9822C10.0489 19.5134 9.41304 19.25 8.75 19.25ZM8.75 49.25C7.7611 49.25 6.7944 48.9568 5.97215 48.4073C5.14991 47.8579 4.50904 47.077 4.1306 46.1634C3.75217 45.2498 3.65315 44.2445 3.84608 43.2745C4.039 42.3046 4.51521 41.4137 5.21447 40.7145C5.91373 40.0152 6.80465 39.539 7.77455 39.3461C8.74446 39.1531 9.74979 39.2522 10.6634 39.6306C11.5771 40.009 12.3579 40.6499 12.9074 41.4721C13.4568 42.2944 13.75 43.2611 13.75 44.25C13.75 45.5761 13.2232 46.8478 12.2855 47.7855C11.3479 48.7232 10.0761 49.25 8.75 49.25ZM8.75 41.75C8.25555 41.75 7.7722 41.8966 7.36108 42.1713C6.94995 42.446 6.62952 42.8365 6.4403 43.2933C6.25108 43.7501 6.20158 44.2528 6.29804 44.7377C6.3945 45.2227 6.6326 45.6681 6.98223 46.0178C7.33187 46.3674 7.77732 46.6055 8.26228 46.702C8.74723 46.7984 9.2499 46.7489 9.70671 46.5597C10.1635 46.3705 10.554 46.05 10.8287 45.6389C11.1034 45.2278 11.25 44.7445 11.25 44.25C11.25 43.587 10.9866 42.9511 10.5178 42.4822C10.0489 42.0134 9.41304 41.75 8.75 41.75ZM31.25 38C30.2611 38 29.2944 37.7068 28.4722 37.1573C27.6499 36.6079 27.009 35.827 26.6306 34.9134C26.2522 33.9998 26.1531 32.9945 26.3461 32.0245C26.539 31.0546 27.0152 30.1637 27.7145 29.4645C28.4137 28.7652 29.3046 28.289 30.2746 28.0961C31.2445 27.9031 32.2498 28.0022 33.1634 28.3806C34.077 28.759 34.8579 29.3999 35.4074 30.2221C35.9568 31.0444 36.25 32.0111 36.25 33C36.25 34.3261 35.7232 35.5978 34.7855 36.5355C33.8479 37.4732 32.5761 38 31.25 38ZM31.25 30.5C30.7555 30.5 30.2722 30.6466 29.8611 30.9213C29.45 31.196 29.1295 31.5865 28.9403 32.0433C28.7511 32.5001 28.7016 33.0028 28.798 33.4877C28.8945 33.9727 29.1326 34.4181 29.4822 34.7678C29.8319 35.1174 30.2773 35.3555 30.7623 35.452C31.2472 35.5484 31.7499 35.4989 32.2067 35.3097C32.6635 35.1205 33.054 34.8 33.3287 34.3889C33.6034 33.9778 33.75 33.4945 33.75 33C33.75 32.337 33.4866 31.7011 33.0178 31.2322C32.5489 30.7634 31.913 30.5 31.25 30.5Z" fill="#443266"/>
<path d="M174.167 23.375H150.833C150.06 23.375 149.318 23.6823 148.771 24.2293C148.224 24.7763 147.917 25.5181 147.917 26.2917V32.125C147.917 32.8985 148.224 33.6404 148.771 34.1874C149.318 34.7344 150.06 35.0417 150.833 35.0417H174.167C174.94 35.0417 175.682 34.7344 176.229 34.1874C176.776 33.6404 177.083 32.8985 177.083 32.125V26.2917C177.083 25.5181 176.776 24.7763 176.229 24.2293C175.682 23.6823 174.94 23.375 174.167 23.375ZM150.833 32.125V26.2917H174.167V32.125H150.833ZM174.167 37.9583H150.833C150.06 37.9583 149.318 38.2656 148.771 38.8126C148.224 39.3596 147.917 40.1015 147.917 40.875V46.7083C147.917 47.4819 148.224 48.2237 148.771 48.7707C149.318 49.3177 150.06 49.625 150.833 49.625H174.167C174.94 49.625 175.682 49.3177 176.229 48.7707C176.776 48.2237 177.083 47.4819 177.083 46.7083V40.875C177.083 40.1015 176.776 39.3596 176.229 38.8126C175.682 38.2656 174.94 37.9583 174.167 37.9583ZM150.833 46.7083V40.875H174.167V46.7083H150.833Z" fill="#C3C3E5"/>
<path d="M169.792 27.75H172.708V30.6667H169.792V27.75ZM165.417 27.75H168.333V30.6667H165.417V27.75ZM169.792 42.3333H172.708V45.25H169.792V42.3333ZM165.417 42.3333H168.333V45.25H165.417V42.3333Z" fill="#C3C3E5"/>
<path d="M431.5 21.1875C424.785 21.1875 417.646 22.9769 417.646 26.2917V46.7083C417.646 50.0231 424.785 51.8125 431.5 51.8125C438.216 51.8125 445.354 50.0231 445.354 46.7083V26.2917C445.354 22.9769 438.216 21.1875 431.5 21.1875ZM431.5 44.5208C423.819 44.5208 419.104 42.3975 419.104 40.875V38.8815C421.534 40.6621 426.629 41.6042 431.5 41.6042C436.371 41.6042 441.466 40.6621 443.896 38.8815V40.875C443.896 42.3975 439.181 44.5208 431.5 44.5208ZM431.5 38.6875C423.819 38.6875 419.104 36.5642 419.104 35.0417V33.0467C421.534 34.8288 426.629 35.7708 431.5 35.7708C436.371 35.7708 441.466 34.8288 443.896 33.0467V35.0417C443.896 36.5642 439.181 38.6875 431.5 38.6875ZM443.896 46.7083C443.896 48.2308 439.181 50.3542 431.5 50.3542C423.819 50.3542 419.104 48.2308 419.104 46.7083V44.7148C421.534 46.4954 426.629 47.4375 431.5 47.4375C436.371 47.4375 441.466 46.4954 443.896 44.7148V46.7083ZM431.5 32.8542C423.819 32.8542 419.104 30.7308 419.104 29.2083V26.2917C419.104 24.7692 423.819 22.6458 431.5 22.6458C439.181 22.6458 443.896 24.7692 443.896 26.2917V29.2083C443.896 30.7308 439.181 32.8542 431.5 32.8542Z" fill="#C3C3E5"/>
<path d="M299.472 17.0079C297.21 16.9464 294.959 17.3276 292.852 18.1289C290.744 18.9303 288.822 20.1355 287.201 21.6733C285.579 23.2112 284.29 25.0504 283.41 27.0823C282.53 29.1142 282.076 31.2976 282.077 33.5033C282.077 33.9241 282.093 34.3418 282.127 34.7594C282.172 35.3499 282.038 35.9404 281.74 36.4565C281.442 36.9727 280.995 37.3914 280.453 37.66L279 38.3831V41.7534L283.28 39.6263L284.667 38.9373L286.033 38.2596L310.55 26.0786L313.305 24.7104L319 21.8813V18.511L313.355 21.319L308.538 23.7126L285.28 35.2631C285.202 34.678 285.163 34.0885 285.163 33.4984C285.167 31.145 285.8 28.8333 287.002 26.7922C288.203 24.7512 289.931 23.0515 292.013 21.8616C294.095 20.6717 296.461 20.0329 298.874 20.0084C301.288 19.9839 303.666 20.5746 305.773 21.722L308.53 20.3521L308.942 20.1474C306.182 18.1945 302.881 17.1001 299.472 17.0079ZM319 25.2531L287.425 40.9279L284.67 42.2994L279 45.1188V48.4858L284.63 45.6875L289.447 43.2939L312.73 31.7288C312.808 32.3172 312.847 32.9099 312.847 33.5033C312.845 35.8593 312.212 38.1739 311.009 40.2175C309.806 42.261 308.077 43.9623 305.991 45.1526C303.906 46.3428 301.537 46.9806 299.121 47.0026C296.705 47.0246 294.324 46.4301 292.217 45.278L292.048 45.3658L289.06 46.851C291.585 48.638 294.567 49.7097 297.678 49.9477C300.788 50.1857 303.906 49.5807 306.685 48.1995C309.465 46.8184 311.799 44.7148 313.43 42.1213C315.061 39.5278 315.924 36.5452 315.925 33.5033C315.925 33.0808 315.908 32.655 315.875 32.2358C315.829 31.6454 315.964 31.0552 316.261 30.5391C316.559 30.023 317.006 29.6041 317.547 29.3351L319 28.612V25.2531Z" fill="#443266"/>
<path d="M49 38L73.0608 54L94.1602 38L116 47.3913" stroke="#454545"/>
<path d="M209 51.5238L221.712 41L244.753 58L267 41" stroke="#454545"/>
<path d="M331 32L360.857 49L386 38.9545" stroke="#454545"/>
<path d="M563.6 26C563.6 25.7348 563.711 25.4804 563.908 25.2929C564.104 25.1054 564.372 25 564.65 25H570.95C571.229 25 571.496 25.1054 571.693 25.2929C571.889 25.4804 572 25.7348 572 26C572 26.2652 571.889 26.5196 571.693 26.7071C571.496 26.8946 571.229 27 570.95 27H564.65C564.372 27 564.104 26.8946 563.908 26.7071C563.711 26.5196 563.6 26.2652 563.6 26ZM564.65 29C564.372 29 564.104 29.1054 563.908 29.2929C563.711 29.4804 563.6 29.7348 563.6 30C563.6 30.2652 563.711 30.5196 563.908 30.7071C564.104 30.8946 564.372 31 564.65 31H568.85C569.129 31 569.396 30.8946 569.593 30.7071C569.789 30.5196 569.9 30.2652 569.9 30C569.9 29.7348 569.789 29.4804 569.593 29.2929C569.396 29.1054 569.129 29 568.85 29H564.65ZM567.8 16C565.614 15.9993 563.465 16.5402 561.565 17.5697C559.665 18.5991 558.079 20.0817 556.963 21.8716C555.846 23.6615 555.238 25.6973 555.198 27.7788C555.158 29.8604 555.687 31.9161 556.733 33.744L555.242 38.724C555.19 38.8989 555.188 39.0841 555.238 39.2596C555.288 39.4352 555.387 39.5945 555.525 39.7204C555.663 39.8463 555.834 39.934 556.02 39.9741C556.206 40.0142 556.401 40.0052 556.582 39.948L561.492 38.39C563.165 39.3109 565.038 39.8529 566.967 39.974C568.896 40.0951 570.827 39.792 572.613 39.0883C574.399 38.3845 575.991 37.2989 577.266 35.9154C578.541 34.532 579.464 32.8878 579.965 31.11C580.466 29.3322 580.531 27.4685 580.155 25.6631C579.778 23.8576 578.971 22.1589 577.795 20.6982C576.619 19.2375 575.106 18.054 573.373 17.2393C571.639 16.4247 569.733 16.0006 567.8 16ZM557.3 28C557.3 25.7812 558.076 23.6255 559.503 21.8724C560.931 20.1192 562.931 18.8681 565.187 18.316C567.444 17.7639 569.829 17.9422 571.967 18.8228C574.106 19.7035 575.876 21.2364 576.999 23.1803C578.122 25.1242 578.535 27.3687 578.172 29.5603C577.809 31.752 576.69 33.7664 574.993 35.2864C573.296 36.8064 571.116 37.7456 568.797 37.9563C566.478 38.167 564.151 37.6371 562.183 36.45C562.051 36.3705 561.902 36.3199 561.748 36.3019C561.593 36.2839 561.436 36.299 561.288 36.346L557.806 37.452L558.877 33.89C558.916 33.7588 558.927 33.6214 558.908 33.4862C558.889 33.3511 558.841 33.221 558.768 33.104C557.804 31.5601 557.297 29.7963 557.3 28ZM576.78 43.894L571.735 41.494C572.659 41.248 573.548 40.92 574.388 40.518L577.25 41.882L586.7 37.382V36C586.7 35.4696 586.479 34.9609 586.085 34.5858C585.691 34.2107 585.157 34 584.6 34H581.085C581.406 33.36 581.675 32.69 581.891 32H584.6C585.714 32 586.782 32.4214 587.57 33.1716C588.358 33.9217 588.8 34.9391 588.8 36V46C588.8 47.0609 588.358 48.0783 587.57 48.8284C586.782 49.5786 585.714 50 584.6 50H569.9C568.786 50 567.718 49.5786 566.93 48.8284C566.143 48.0783 565.7 47.0609 565.7 46V41.86C566.387 41.952 567.086 42 567.8 42V46C567.8 46.5304 568.021 47.0391 568.415 47.4142C568.809 47.7893 569.343 48 569.9 48H584.6C585.157 48 585.691 47.7893 586.085 47.4142C586.479 47.0391 586.7 46.5304 586.7 46V39.618L577.72 43.894C577.574 43.9637 577.413 44 577.25 44C577.087 44 576.926 43.9637 576.78 43.894Z" fill="#443266"/>
<path d="M480 30L504.651 45L526.12 36.6667L546 45" stroke="#454545"/>
</svg>
