<svg width="151" height="151" viewBox="0 0 151 151" fill="none" xmlns="http://www.w3.org/2000/svg">
<circle cx="75.5" cy="75.5" r="75.5" fill="#443266"/>
<path d="M91.1875 108.375L86.2411 106.032C84.2654 105.091 82.5961 103.61 81.4255 101.76C80.2549 99.9111 79.6308 97.7686 79.625 95.5799V80.625H102.75V95.5823C102.744 97.7709 102.12 99.9134 100.95 101.763C99.7789 103.612 98.1096 105.093 96.1339 106.035L91.1875 108.375ZM84.25 85.25V95.5823C84.2541 96.8948 84.629 98.1795 85.3315 99.2883C86.034 100.397 87.0355 101.285 88.2206 101.849L91.1875 103.255L94.1544 101.851C95.3399 101.287 96.3416 100.399 97.0441 99.2896C97.7466 98.1804 98.1213 96.8952 98.125 95.5823V85.25H84.25Z" fill="#C3C3E5"/>
<path d="M75 103.75H51.875V48.2498H70.375V62.1248C70.3787 63.3503 70.8671 64.5246 71.7337 65.3911C72.6002 66.2577 73.7745 66.7462 75 66.7498H88.875V73.6873H93.5V62.1248C93.5082 61.8209 93.4504 61.5188 93.3306 61.2394C93.2109 60.9599 93.032 60.7097 92.8063 60.5061L76.6188 44.3186C76.4152 44.0927 76.165 43.9138 75.8855 43.794C75.6061 43.6742 75.3039 43.6165 75 43.6248H51.875C50.6495 43.6285 49.4752 44.1169 48.6087 44.9835C47.7421 45.85 47.2537 47.0243 47.25 48.2498V103.75C47.2537 104.975 47.7421 106.15 48.6087 107.016C49.4752 107.883 50.6495 108.371 51.875 108.375H75V103.75ZM75 49.1748L87.95 62.1248H75V49.1748Z" fill="#F1F0FF"/>
</svg>
