<svg width="517" height="119" viewBox="0 0 517 119" fill="none" xmlns="http://www.w3.org/2000/svg">
<path d="M166.107 34.9717C169.747 34.9717 172.827 35.5917 175.347 36.8317C177.867 38.0317 179.787 39.7517 181.107 41.9917C182.427 44.1917 183.087 46.8117 183.087 49.8517C183.087 51.6517 182.807 53.4717 182.247 55.3117C181.727 57.1117 180.867 58.7517 179.667 60.2317C178.507 61.7117 176.927 62.9117 174.927 63.8317C172.967 64.7117 170.547 65.1517 167.667 65.1517H161.427V79.1317H152.727V34.9717H166.107ZM167.607 56.6917C168.927 56.6917 170.027 56.4717 170.907 56.0317C171.787 55.5517 172.467 54.9717 172.947 54.2917C173.467 53.5717 173.827 52.8317 174.027 52.0717C174.267 51.3117 174.387 50.6517 174.387 50.0917C174.387 49.6517 174.307 49.0717 174.147 48.3517C174.027 47.5917 173.747 46.8317 173.307 46.0717C172.867 45.3117 172.187 44.6717 171.267 44.1517C170.387 43.6317 169.187 43.3717 167.667 43.3717H161.427V56.6917H167.607ZM181.439 79.1317L201.359 33.2317H201.839L221.759 79.1317H211.679L198.959 46.8517L205.259 42.5317L190.019 79.1317H181.439ZM195.059 63.1717H208.319L211.379 70.4917H192.359L195.059 63.1717ZM221.622 34.9717L251.382 34.9717V43.3717H240.642V79.1317H231.942V43.3717H221.622V34.9717ZM296.918 34.9717V79.1317H288.218V61.1917L268.478 61.1917V79.1317H259.778V34.9717H268.478V52.7917L288.218 52.7917V34.9717H296.918ZM321.674 34.9717C324.434 34.9717 326.894 35.3317 329.054 36.0517C331.214 36.7317 333.014 37.7317 334.454 39.0517C335.934 40.3317 337.054 41.8917 337.814 43.7317C338.574 45.5317 338.954 47.5717 338.954 49.8517C338.954 51.6517 338.674 53.4517 338.114 55.2517C337.594 57.0517 336.714 58.6917 335.474 60.1717C334.274 61.6517 332.674 62.8517 330.674 63.7717C328.674 64.6517 326.194 65.0917 323.234 65.0917H316.994V79.1317H308.294V34.9717H321.674ZM323.174 56.6917C324.494 56.6917 325.594 56.4717 326.474 56.0317C327.354 55.5917 328.034 55.0317 328.514 54.3517C329.034 53.6717 329.394 52.9717 329.594 52.2517C329.834 51.4917 329.954 50.7917 329.954 50.1517C329.954 49.6717 329.874 49.0717 329.714 48.3517C329.594 47.5917 329.314 46.8317 328.874 46.0717C328.434 45.3117 327.754 44.6717 326.834 44.1517C325.954 43.6317 324.754 43.3717 323.234 43.3717H316.994V56.6917H323.174ZM331.334 62.0917L342.254 79.1317H332.114L320.954 62.3317L331.334 62.0917ZM344.446 79.1317L364.366 33.2317H364.846L384.766 79.1317H374.686L361.966 46.8517L368.266 42.5317L353.026 79.1317H344.446ZM358.066 63.1717H371.326L374.386 70.4917H355.366L358.066 63.1717ZM391.204 79.1317V33.1717H391.264L415.804 67.9717L412.084 67.1317L436.564 33.1717H436.684V79.1317H427.984V52.7917L428.524 57.2917L413.584 78.5317H413.464L398.104 57.2917L399.604 53.1517V79.1317H391.204Z" fill="white"/>
<mask id="path-2-inside-1_940_835" fill="white">
<path d="M97.5423 82.9255L93.2734 80.7983C91.5683 79.9431 90.1276 78.5984 89.1174 76.9191C88.1071 75.2397 87.5685 73.2942 87.5635 71.3068V57.7267H107.521V71.3089C107.516 73.2963 106.978 75.2418 105.967 76.9212C104.957 78.6005 103.516 79.9452 101.811 80.8004L97.5423 82.9255ZM91.555 61.9265V71.3089C91.5586 72.5008 91.8821 73.6674 92.4884 74.6742C93.0947 75.6811 93.959 76.4872 94.9818 76.9996L97.5423 78.2764L100.103 77.0017C101.126 76.4891 101.991 75.6827 102.597 74.6754C103.203 73.6682 103.526 72.5012 103.53 71.3089V61.9265H91.555Z"/>
</mask>
<path d="M97.5423 82.9255L93.2734 80.7983C91.5683 79.9431 90.1276 78.5984 89.1174 76.9191C88.1071 75.2397 87.5685 73.2942 87.5635 71.3068V57.7267H107.521V71.3089C107.516 73.2963 106.978 75.2418 105.967 76.9212C104.957 78.6005 103.516 79.9452 101.811 80.8004L97.5423 82.9255ZM91.555 61.9265V71.3089C91.5586 72.5008 91.8821 73.6674 92.4884 74.6742C93.0947 75.6811 93.959 76.4872 94.9818 76.9996L97.5423 78.2764L100.103 77.0017C101.126 76.4891 101.991 75.6827 102.597 74.6754C103.203 73.6682 103.526 72.5012 103.53 71.3089V61.9265H91.555Z" fill="#B80F0A"/>
<path d="M97.5423 82.9255L93.9744 90.0858L97.5406 91.8628L101.107 90.0872L97.5423 82.9255ZM93.2734 80.7983L89.6867 87.9493L89.6961 87.954L89.7054 87.9586L93.2734 80.7983ZM87.5635 71.3068H79.5635V71.3168L79.5635 71.3269L87.5635 71.3068ZM87.5635 57.7267V49.7267H79.5635V57.7267H87.5635ZM107.521 57.7267H115.521V49.7267H107.521V57.7267ZM107.521 71.3089L115.521 71.329L115.521 71.3189V71.3089H107.521ZM101.811 80.8004L105.376 87.9621L105.387 87.9568L105.398 87.9514L101.811 80.8004ZM91.555 61.9265V53.9265H83.555V61.9265H91.555ZM91.555 71.3089H83.555V71.3208L83.5551 71.3326L91.555 71.3089ZM94.9818 76.9996L91.3981 84.152L91.405 84.1555L91.412 84.159L94.9818 76.9996ZM97.5423 78.2764L93.9726 85.4357L97.5394 87.2142L101.107 85.4381L97.5423 78.2764ZM100.103 77.0017L103.668 84.1635L103.677 84.1588L103.687 84.1541L100.103 77.0017ZM103.53 71.3089L111.53 71.3301L111.53 71.3195V71.3089H103.53ZM103.53 61.9265H111.53V53.9265H103.53V61.9265ZM101.11 75.7652L96.8413 73.638L89.7054 87.9586L93.9744 90.0858L101.11 75.7652ZM96.86 73.6474C96.5477 73.4907 96.2244 73.2138 95.9725 72.7951L82.2622 81.043C84.0308 83.9829 86.5889 86.3955 89.6867 87.9493L96.86 73.6474ZM95.9725 72.7951C95.7189 72.3734 95.5649 71.8494 95.5635 71.2867L79.5635 71.3269C79.5721 74.7391 80.4954 78.106 82.2622 81.043L95.9725 72.7951ZM95.5635 71.3068V57.7267H79.5635V71.3068H95.5635ZM87.5635 65.7267H107.521V49.7267H87.5635V65.7267ZM99.5212 57.7267V71.3089H115.521V57.7267H99.5212ZM99.5212 71.2888C99.5198 71.8515 99.3658 72.3755 99.1121 72.7972L112.822 81.0451C114.589 78.1081 115.513 74.7412 115.521 71.329L99.5212 71.2888ZM99.1121 72.7972C98.8602 73.2159 98.537 73.4928 98.2246 73.6495L105.398 87.9514C108.496 86.3976 111.054 83.985 112.822 81.0451L99.1121 72.7972ZM98.2462 73.6387L93.9772 75.7638L101.107 90.0872L105.376 87.9621L98.2462 73.6387ZM83.555 61.9265V71.3089H99.555V61.9265H83.555ZM83.5551 71.3326C83.5628 73.9492 84.2716 76.537 85.635 78.8011L99.3418 70.5474C99.4926 70.7978 99.5543 71.0524 99.555 71.2852L83.5551 71.3326ZM85.635 78.8011C87.0001 81.0682 88.9823 82.9416 91.3981 84.152L98.5655 69.8472C98.9357 70.0327 99.1892 70.294 99.3418 70.5474L85.635 78.8011ZM91.412 84.159L93.9726 85.4357L101.112 71.117L98.5515 69.8402L91.412 84.159ZM101.107 85.4381L103.668 84.1635L96.5379 69.84L93.9773 71.1146L101.107 85.4381ZM103.687 84.1541C106.103 82.9434 108.086 81.0692 109.451 78.8012L95.7427 70.5497C95.8953 70.2962 96.1489 70.0349 96.5192 69.8493L103.687 84.1541ZM109.451 78.8012C110.814 76.5362 111.523 73.9474 111.53 71.3301L95.5297 71.2877C95.5303 71.0549 95.592 70.8002 95.7427 70.5497L109.451 78.8012ZM111.53 71.3089V61.9265H95.5297V71.3089H111.53ZM103.53 53.9265H91.555V69.9265H103.53V53.9265Z" fill="#B80F0A" mask="url(#path-2-inside-1_940_835)"/>
<mask id="path-4-inside-2_940_835" fill="white">
<path d="M80.9366 82.4971H60.9788V32.0996H76.945V44.699C76.9482 45.8118 77.3697 46.8781 78.1176 47.665C78.8655 48.4519 79.8789 48.8954 80.9366 48.8988H92.9112V55.1985H96.9027V44.699C96.9098 44.423 96.8599 44.1487 96.7566 43.8949C96.6532 43.6412 96.4988 43.414 96.304 43.229L82.3336 28.5297C82.1579 28.3247 81.942 28.1621 81.7008 28.0534C81.4596 27.9446 81.1989 27.8922 80.9366 27.8998H60.9788C59.9212 27.9031 58.9078 28.3466 58.1599 29.1335C57.412 29.9204 56.9905 30.9867 56.9873 32.0996V82.4971C56.9905 83.61 57.412 84.6763 58.1599 85.4632C58.9078 86.2501 59.9212 86.6936 60.9788 86.6969H80.9366V82.4971ZM80.9366 32.9395L92.1129 44.699H80.9366V32.9395Z"/>
</mask>
<path d="M80.9366 82.4971H60.9788V32.0996H76.945V44.699C76.9482 45.8118 77.3697 46.8781 78.1176 47.665C78.8655 48.4519 79.8789 48.8954 80.9366 48.8988H92.9112V55.1985H96.9027V44.699C96.9098 44.423 96.8599 44.1487 96.7566 43.8949C96.6532 43.6412 96.4988 43.414 96.304 43.229L82.3336 28.5297C82.1579 28.3247 81.942 28.1621 81.7008 28.0534C81.4596 27.9446 81.1989 27.8922 80.9366 27.8998H60.9788C59.9212 27.9031 58.9078 28.3466 58.1599 29.1335C57.412 29.9204 56.9905 30.9867 56.9873 32.0996V82.4971C56.9905 83.61 57.412 84.6763 58.1599 85.4632C58.9078 86.2501 59.9212 86.6936 60.9788 86.6969H80.9366V82.4971ZM80.9366 32.9395L92.1129 44.699H80.9366V32.9395Z" fill="white"/>
<path d="M80.9366 82.4971H88.9366V74.4971H80.9366V82.4971ZM60.9788 82.4971H52.9788V90.4971H60.9788V82.4971ZM60.9788 32.0996V24.0996H52.9788V32.0996H60.9788ZM76.945 32.0996H84.945V24.0996H76.945V32.0996ZM76.945 44.699H68.945V44.7103L68.9451 44.7217L76.945 44.699ZM80.9366 48.8988L80.9114 56.8987L80.924 56.8988H80.9366V48.8988ZM92.9112 48.8988H100.911V40.8988H92.9112V48.8988ZM92.9112 55.1985H84.9112V63.1985H92.9112V55.1985ZM96.9027 55.1985V63.1985H104.903V55.1985H96.9027ZM96.9027 44.699L88.9054 44.4949L88.9027 44.5969V44.699H96.9027ZM96.304 43.229L90.5052 48.7403L90.6466 48.889L90.7954 49.0304L96.304 43.229ZM82.3336 28.5297L76.2586 33.735L76.3928 33.8915L76.5348 34.041L82.3336 28.5297ZM80.9366 27.8998V35.8998H81.0517L81.1668 35.8964L80.9366 27.8998ZM60.9788 27.8998V19.8998H60.9663L60.9537 19.8998L60.9788 27.8998ZM56.9873 32.0996L48.9873 32.0769L48.9873 32.0882V32.0996H56.9873ZM56.9873 82.4971H48.9873V82.5085L48.9873 82.5199L56.9873 82.4971ZM60.9788 86.6969L60.9537 94.6969L60.9663 94.6969H60.9788V86.6969ZM80.9366 86.6969V94.6969H88.9366V86.6969H80.9366ZM80.9366 32.9395L86.7354 27.4283L72.9366 12.9095V32.9395H80.9366ZM92.1129 44.699V52.699H110.753L97.9117 39.1877L92.1129 44.699ZM80.9366 44.699H72.9366V52.699H80.9366V44.699ZM80.9366 74.4971H60.9788V90.4971H80.9366V74.4971ZM68.9788 82.4971V32.0996H52.9788V82.4971H68.9788ZM60.9788 40.0996H76.945V24.0996H60.9788V40.0996ZM68.945 32.0996V44.699H84.945V32.0996H68.945ZM68.9451 44.7217C68.9539 47.8211 70.1244 50.8674 72.3188 53.1762L83.9164 42.1537C84.6151 42.8888 84.9425 43.8025 84.945 44.6763L68.9451 44.7217ZM72.3188 53.1762C74.5261 55.4987 77.606 56.8883 80.9114 56.8987L80.9617 40.8988C82.1518 40.9025 83.2048 41.405 83.9164 42.1537L72.3188 53.1762ZM80.9366 56.8988H92.9112V40.8988H80.9366V56.8988ZM84.9112 48.8988V55.1985H100.911V48.8988H84.9112ZM92.9112 63.1985H96.9027V47.1985H92.9112V63.1985ZM104.903 55.1985V44.699H88.9027V55.1985H104.903ZM104.9 44.9031C104.935 43.5326 104.688 42.1607 104.166 40.8771L89.3476 46.9127C89.0315 46.1367 88.8845 45.3133 88.9054 44.4949L104.9 44.9031ZM104.166 40.8771C103.642 39.5928 102.848 38.411 101.813 37.4277L90.7954 49.0304C90.1495 48.417 89.664 47.6895 89.3476 46.9127L104.166 40.8771ZM102.103 37.7178L88.1324 23.0185L76.5348 34.041L90.5052 48.7403L102.103 37.7178ZM88.4086 23.3245C87.4849 22.2464 86.324 21.3624 84.9894 20.7606L78.4123 35.3462C77.5601 34.9619 76.8309 34.4029 76.2586 33.735L88.4086 23.3245ZM84.9894 20.7606C83.6531 20.158 82.1901 19.8604 80.7064 19.9031L81.1668 35.8964C80.2077 35.9241 79.2661 35.7312 78.4123 35.3462L84.9894 20.7606ZM80.9366 19.8998H60.9788V35.8998H80.9366V19.8998ZM60.9537 19.8998C57.6483 19.9102 54.5684 21.2998 52.3611 23.6223L63.9587 34.6448C63.2471 35.3935 62.1941 35.896 61.004 35.8997L60.9537 19.8998ZM52.3611 23.6223C50.1667 25.9312 48.9961 28.9774 48.9873 32.0769L64.9873 32.1223C64.9848 32.996 64.6573 33.9097 63.9587 34.6448L52.3611 23.6223ZM48.9873 32.0996V82.4971H64.9873V32.0996H48.9873ZM48.9873 82.5199C48.9961 85.6193 50.1667 88.6656 52.3611 90.9744L63.9587 79.9519C64.6573 80.687 64.9848 81.6007 64.9873 82.4744L48.9873 82.5199ZM52.3611 90.9744C54.5684 93.2969 57.6483 94.6865 60.9537 94.6969L61.004 78.697C62.1941 78.7007 63.2471 79.2032 63.9587 79.9519L52.3611 90.9744ZM60.9788 94.6969H80.9366V78.6969H60.9788V94.6969ZM88.9366 86.6969V82.4971H72.9366V86.6969H88.9366ZM75.1378 38.4508L86.3141 50.2102L97.9117 39.1877L86.7354 27.4283L75.1378 38.4508ZM92.1129 36.699H80.9366V52.699H92.1129V36.699ZM88.9366 44.699V32.9395H72.9366V44.699H88.9366Z" fill="white" mask="url(#path-4-inside-2_940_835)"/>
<rect x="4" y="4" width="509" height="110.928" rx="6" stroke="#B80F0A" stroke-width="8"/>
</svg>
