<svg width="111" height="26" viewBox="0 0 111 26" fill="none" xmlns="http://www.w3.org/2000/svg">
<path d="M39.125 8.41995C39.853 8.41995 40.469 8.54395 40.973 8.79195C41.477 9.03195 41.861 9.37595 42.125 9.82395C42.389 10.264 42.521 10.788 42.521 11.396C42.521 11.756 42.465 12.12 42.353 12.488C42.249 12.848 42.077 13.176 41.837 13.472C41.605 13.768 41.289 14.008 40.889 14.192C40.497 14.368 40.013 14.456 39.437 14.456H38.189V17.252H36.449V8.41995H39.125ZM39.425 12.764C39.689 12.764 39.909 12.72 40.085 12.632C40.261 12.536 40.397 12.42 40.493 12.284C40.597 12.14 40.669 11.992 40.709 11.84C40.757 11.688 40.781 11.556 40.781 11.444C40.781 11.356 40.765 11.24 40.733 11.096C40.709 10.944 40.653 10.792 40.565 10.64C40.477 10.488 40.341 10.36 40.157 10.256C39.981 10.152 39.741 10.1 39.437 10.1H38.189V12.764H39.425ZM42.1913 17.252L46.1753 8.07195H46.2713L50.2553 17.252H48.2393L45.6953 10.796L46.9553 9.93195L43.9073 17.252H42.1913ZM44.9153 14.06H47.5673L48.1793 15.524H44.3753L44.9153 14.06ZM50.2279 8.41995L56.1799 8.41995V10.1H54.0319V17.252H52.2919V10.1H50.2279V8.41995ZM65.2872 8.41995V17.252H63.5472V13.664H59.5992V17.252H57.8592V8.41995H59.5992V11.984L63.5472 11.984V8.41995H65.2872ZM70.2383 8.41995C70.7903 8.41995 71.2823 8.49195 71.7143 8.63595C72.1463 8.77195 72.5063 8.97195 72.7943 9.23595C73.0903 9.49195 73.3143 9.80395 73.4663 10.172C73.6183 10.532 73.6943 10.94 73.6943 11.396C73.6943 11.756 73.6383 12.116 73.5263 12.476C73.4223 12.836 73.2463 13.164 72.9983 13.46C72.7583 13.756 72.4383 13.996 72.0383 14.18C71.6383 14.356 71.1423 14.444 70.5503 14.444H69.3023V17.252H67.5623V8.41995H70.2383ZM70.5383 12.764C70.8023 12.764 71.0223 12.72 71.1983 12.632C71.3743 12.544 71.5103 12.432 71.6063 12.296C71.7103 12.16 71.7823 12.02 71.8223 11.876C71.8703 11.724 71.8943 11.584 71.8943 11.456C71.8943 11.36 71.8783 11.24 71.8463 11.096C71.8223 10.944 71.7663 10.792 71.6783 10.64C71.5903 10.488 71.4543 10.36 71.2703 10.256C71.0943 10.152 70.8543 10.1 70.5503 10.1H69.3023V12.764H70.5383ZM72.1703 13.844L74.3543 17.252H72.3263L70.0943 13.892L72.1703 13.844ZM74.7928 17.252L78.7768 8.07195H78.8728L82.8568 17.252H80.8408L78.2968 10.796L79.5568 9.93195L76.5088 17.252H74.7928ZM77.5168 14.06H80.1688L80.7808 15.524H76.9768L77.5168 14.06ZM84.1443 17.252V8.05995H84.1563L89.0643 15.02L88.3203 14.852L93.2163 8.05995H93.2403V17.252H91.5003V11.984L91.6083 12.884L88.6203 17.132H88.5963L85.5243 12.884L85.8243 12.056V17.252H84.1443Z" fill="white"/>
<mask id="path-2-inside-1_995_896" fill="white">
<path d="M23.5126 17.6184L22.596 17.1665C22.23 16.9848 21.9206 16.6991 21.7037 16.3423C21.4868 15.9855 21.3712 15.5722 21.3701 15.1499V12.2646H25.655V15.1503C25.654 15.5726 25.5383 15.9859 25.3214 16.3427C25.1045 16.6995 24.7952 16.9852 24.4291 17.1669L23.5126 17.6184ZM22.2271 13.1569V15.1503C22.2279 15.4036 22.2973 15.6514 22.4275 15.8654C22.5577 16.0793 22.7432 16.2505 22.9628 16.3594L23.5126 16.6307L24.0623 16.3599C24.282 16.2509 24.4676 16.0796 24.5978 15.8656C24.728 15.6516 24.7974 15.4037 24.7981 15.1503V13.1569H22.2271Z"/>
</mask>
<path d="M23.5126 17.6184L22.596 17.1665C22.23 16.9848 21.9206 16.6991 21.7037 16.3423C21.4868 15.9855 21.3712 15.5722 21.3701 15.1499V12.2646H25.655V15.1503C25.654 15.5726 25.5383 15.9859 25.3214 16.3427C25.1045 16.6995 24.7952 16.9852 24.4291 17.1669L23.5126 17.6184ZM22.2271 13.1569V15.1503C22.2279 15.4036 22.2973 15.6514 22.4275 15.8654C22.5577 16.0793 22.7432 16.2505 22.9628 16.3594L23.5126 16.6307L24.0623 16.3599C24.282 16.2509 24.4676 16.0796 24.5978 15.8656C24.728 15.6516 24.7974 15.4037 24.7981 15.1503V13.1569H22.2271Z" fill="white"/>
<path d="M23.5126 17.6184L22.6281 19.4122L23.5121 19.8482L24.3964 19.4126L23.5126 17.6184ZM22.596 17.1665L21.7069 18.958L21.7115 18.9603L22.596 17.1665ZM21.3701 15.1499H19.3701L19.3701 15.155L21.3701 15.1499ZM21.3701 12.2646V10.2646H19.3701V12.2646H21.3701ZM25.655 12.2646H27.655V10.2646H25.655V12.2646ZM25.655 15.1503L27.655 15.1554V15.1503H25.655ZM24.4291 17.1669L25.3129 18.9611L25.3183 18.9584L24.4291 17.1669ZM22.2271 13.1569V11.1569H20.2271V13.1569H22.2271ZM22.2271 15.1503H20.2271L20.2271 15.1563L22.2271 15.1503ZM22.9628 16.3594L22.0744 18.1512L22.0779 18.153L22.9628 16.3594ZM23.5126 16.6307L22.6276 18.4242L23.5119 18.8605L24.3964 18.4248L23.5126 16.6307ZM24.0623 16.3599L24.9461 18.154L24.9508 18.1517L24.0623 16.3599ZM24.7981 15.1503L26.7981 15.1557V15.1503H24.7981ZM24.7981 13.1569H26.7981V11.1569H24.7981V13.1569ZM24.3971 15.8247L23.4805 15.3727L21.7115 18.9603L22.6281 19.4122L24.3971 15.8247ZM23.4852 15.375C23.4658 15.3654 23.4376 15.3442 23.4127 15.3034L19.9947 17.3812C20.4037 18.054 20.9941 18.6042 21.7069 18.958L23.4852 15.375ZM23.4127 15.3034C23.3875 15.2619 23.3703 15.2067 23.3701 15.1448L19.3701 15.155C19.3721 15.9376 19.5862 16.7091 19.9947 17.3812L23.4127 15.3034ZM23.3701 15.1499V12.2646H19.3701V15.1499H23.3701ZM21.3701 14.2646H25.655V10.2646H21.3701V14.2646ZM23.655 12.2646V15.1503H27.655V12.2646H23.655ZM23.6551 15.1453C23.6549 15.2072 23.6376 15.2624 23.6124 15.3038L27.0304 17.3817C27.439 16.7095 27.653 15.938 27.655 15.1554L23.6551 15.1453ZM23.6124 15.3038C23.5876 15.3447 23.5594 15.3658 23.54 15.3755L25.3183 18.9584C26.031 18.6047 26.6214 18.0544 27.0304 17.3817L23.6124 15.3038ZM23.5453 15.3728L22.6288 15.8243L24.3964 19.4126L25.3129 18.9611L23.5453 15.3728ZM20.2271 13.1569V15.1503H24.2271V13.1569H20.2271ZM20.2271 15.1563C20.229 15.7699 20.397 16.3759 20.719 16.905L24.136 14.8257C24.1977 14.927 24.2268 15.0373 24.2271 15.1443L20.2271 15.1563ZM20.719 16.905C21.0413 17.4348 21.5081 17.8705 22.0744 18.1512L23.8513 14.5676C23.9784 14.6306 24.074 14.7237 24.136 14.8257L20.719 16.905ZM22.0779 18.153L22.6276 18.4242L24.3975 14.8371L23.8478 14.5659L22.0779 18.153ZM24.3964 18.4248L24.9461 18.154L23.1785 14.5657L22.6288 14.8365L24.3964 18.4248ZM24.9508 18.1517C25.5172 17.8708 25.9841 17.435 26.3065 16.905L22.8891 14.8262C22.9511 14.7243 23.0467 14.6311 23.1739 14.568L24.9508 18.1517ZM26.3065 16.905C26.6285 16.3756 26.7964 15.7695 26.7981 15.1557L22.7981 15.145C22.7984 15.0379 22.8274 14.9276 22.8891 14.8262L26.3065 16.905ZM26.7981 15.1503V13.1569H22.7981V15.1503H26.7981ZM24.7981 11.1569H22.2271V15.1569H24.7981V11.1569Z" fill="white" mask="url(#path-2-inside-1_995_896)"/>
<mask id="path-4-inside-2_995_896" fill="white">
<path d="M19.9476 17.5278H15.6626V6.82019H19.0906V9.49708C19.0913 9.73352 19.1818 9.96007 19.3423 10.1273C19.5029 10.2944 19.7205 10.3887 19.9476 10.3894H22.5185V11.7278H23.3755V9.49708C23.377 9.43845 23.3663 9.38017 23.3441 9.32626C23.3219 9.27234 23.2888 9.22408 23.247 9.18478L20.2475 6.06173C20.2098 6.01816 20.1634 5.98363 20.1117 5.96053C20.0599 5.93742 20.0039 5.92628 19.9476 5.92789H15.6626C15.4356 5.92859 15.218 6.02283 15.0574 6.19001C14.8968 6.3572 14.8063 6.58375 14.8057 6.82019V17.5278C14.8063 17.7642 14.8968 17.9908 15.0574 18.1579C15.218 18.3251 15.4356 18.4194 15.6626 18.4201H19.9476V17.5278ZM19.9476 6.99865L22.3471 9.49708H19.9476V6.99865Z"/>
</mask>
<path d="M19.9476 17.5278H15.6626V6.82019H19.0906V9.49708C19.0913 9.73352 19.1818 9.96007 19.3423 10.1273C19.5029 10.2944 19.7205 10.3887 19.9476 10.3894H22.5185V11.7278H23.3755V9.49708C23.377 9.43845 23.3663 9.38017 23.3441 9.32626C23.3219 9.27234 23.2888 9.22408 23.247 9.18478L20.2475 6.06173C20.2098 6.01816 20.1634 5.98363 20.1117 5.96053C20.0599 5.93742 20.0039 5.92628 19.9476 5.92789H15.6626C15.4356 5.92859 15.218 6.02283 15.0574 6.19001C14.8968 6.3572 14.8063 6.58375 14.8057 6.82019V17.5278C14.8063 17.7642 14.8968 17.9908 15.0574 18.1579C15.218 18.3251 15.4356 18.4194 15.6626 18.4201H19.9476V17.5278ZM19.9476 6.99865L22.3471 9.49708H19.9476V6.99865Z" fill="white"/>
<path d="M19.9476 17.5278H21.9476V15.5278H19.9476V17.5278ZM15.6626 17.5278H13.6626V19.5278H15.6626V17.5278ZM15.6626 6.82019V4.82019H13.6626V6.82019H15.6626ZM19.0906 6.82019H21.0906V4.82019H19.0906V6.82019ZM19.0906 9.49708H17.0906L17.0906 9.50282L19.0906 9.49708ZM19.9476 10.3894L19.9414 12.3894H19.9476V10.3894ZM22.5185 10.3894H24.5185V8.38938H22.5185V10.3894ZM22.5185 11.7278H20.5185V13.7278H22.5185V11.7278ZM23.3755 11.7278V13.7278H25.3755V11.7278H23.3755ZM23.3755 9.49708L21.3762 9.44552L21.3755 9.4713V9.49708H23.3755ZM23.247 9.18478L21.8045 10.5702L21.84 10.6072L21.8774 10.6423L23.247 9.18478ZM20.2475 6.06173L18.7355 7.37089L18.7693 7.4099L18.8051 7.44711L20.2475 6.06173ZM19.9476 5.92789V7.92789H19.9761L20.0045 7.92708L19.9476 5.92789ZM15.6626 5.92789V3.92788L15.6564 3.9279L15.6626 5.92789ZM14.8057 6.82019L12.8057 6.81445V6.82019H14.8057ZM14.8057 17.5278H12.8057L12.8057 17.5335L14.8057 17.5278ZM15.6626 18.4201L15.6564 20.4201H15.6626V18.4201ZM19.9476 18.4201V20.4201H21.9476V18.4201H19.9476ZM19.9476 6.99865L21.39 5.61326L17.9476 2.02894V6.99865H19.9476ZM22.3471 9.49708V11.4971H27.041L23.7896 8.1117L22.3471 9.49708ZM19.9476 9.49708H17.9476V11.4971H19.9476V9.49708ZM19.9476 15.5278H15.6626V19.5278H19.9476V15.5278ZM17.6626 17.5278V6.82019H13.6626V17.5278H17.6626ZM15.6626 8.82019H19.0906V4.82019H15.6626V8.82019ZM17.0906 6.82019V9.49708H21.0906V6.82019H17.0906ZM17.0906 9.50282C17.0927 10.2423 17.3751 10.9662 17.8999 11.5126L20.7848 8.74187C20.9885 8.95392 21.0898 9.22475 21.0906 9.49135L17.0906 9.50282ZM17.8999 11.5126C18.4273 12.0618 19.1594 12.3869 19.9414 12.3894L19.9538 8.38939C20.2816 8.39041 20.5786 8.52712 20.7848 8.74187L17.8999 11.5126ZM19.9476 12.3894H22.5185V8.38938H19.9476V12.3894ZM20.5185 10.3894V11.7278H24.5185V10.3894H20.5185ZM22.5185 13.7278H23.3755V9.72783H22.5185V13.7278ZM25.3755 11.7278V9.49708H21.3755V11.7278H25.3755ZM25.3749 9.54864C25.3835 9.21333 25.3224 8.87807 25.1936 8.565L21.4947 10.0875C21.4102 9.88227 21.3706 9.66357 21.3762 9.44552L25.3749 9.54864ZM25.1936 8.565C25.0647 8.25178 24.8695 7.96497 24.6165 7.72726L21.8774 10.6423C21.7081 10.4832 21.5792 10.2929 21.4947 10.0875L25.1936 8.565ZM24.6894 7.7994L21.69 4.67635L18.8051 7.44711L21.8045 10.5702L24.6894 7.7994ZM21.7595 4.75257C21.5333 4.49137 21.2503 4.27854 20.9267 4.13412L19.2967 7.78693C19.0766 7.68873 18.8862 7.54495 18.7355 7.37089L21.7595 4.75257ZM20.9267 4.13412C20.6027 3.98956 20.2489 3.91849 19.8906 3.9287L20.0045 7.92708C19.7589 7.93407 19.517 7.88528 19.2967 7.78693L20.9267 4.13412ZM19.9476 3.92789H15.6626V7.92789H19.9476V3.92789ZM15.6564 3.9279C14.8745 3.93033 14.1423 4.25551 13.6149 4.80463L16.4999 7.5754C16.2936 7.79014 15.9967 7.92686 15.6689 7.92788L15.6564 3.9279ZM13.6149 4.80463C13.0902 5.35105 12.8078 6.07499 12.8057 6.81445L16.8057 6.82592C16.8049 7.09251 16.7035 7.36335 16.4999 7.5754L13.6149 4.80463ZM12.8057 6.82019V17.5278H16.8057V6.82019H12.8057ZM12.8057 17.5335C12.8078 18.273 13.0902 18.9969 13.6149 19.5433L16.4999 16.7726C16.7035 16.9846 16.8049 17.2554 16.8057 17.522L12.8057 17.5335ZM13.6149 19.5433C14.1423 20.0925 14.8745 20.4176 15.6564 20.4201L15.6689 16.4201C15.9967 16.4211 16.2936 16.5578 16.4999 16.7726L13.6149 19.5433ZM15.6626 20.4201H19.9476V16.4201H15.6626V20.4201ZM21.9476 18.4201V17.5278H17.9476V18.4201H21.9476ZM18.5051 8.38403L20.9047 10.8825L23.7896 8.1117L21.39 5.61326L18.5051 8.38403ZM22.3471 7.49708H19.9476V11.4971H22.3471V7.49708ZM21.9476 9.49708V6.99865H17.9476V9.49708H21.9476Z" fill="white" mask="url(#path-4-inside-2_995_896)"/>
<rect x="1" y="1" width="109" height="23.2676" rx="3" stroke="white" stroke-width="2"/>
</svg>
