<svg width="113" height="36" viewBox="0 0 113 36" fill="none" xmlns="http://www.w3.org/2000/svg">
<path d="M25.1562 32.8125L22.8167 31.7045C21.8823 31.2591 21.0927 30.5587 20.5391 29.684C19.9854 28.8093 19.6902 27.796 19.6875 26.7608V19.6875H30.625V26.7619C30.6223 27.7971 30.3271 28.8104 29.7734 29.6851C29.2198 30.5598 28.4302 31.2602 27.4958 31.7056L25.1562 32.8125ZM21.875 21.875V26.7619C21.8769 27.3827 22.0543 27.9903 22.3865 28.5147C22.7188 29.0392 23.1925 29.459 23.753 29.7259L25.1562 30.3909L26.5595 29.727C27.1202 29.46 27.594 29.04 27.9263 28.5154C28.2585 27.9907 28.4358 27.3829 28.4375 26.7619V21.875H21.875Z" fill="#443266"/>
<path d="M17.5 30.6249H6.5625V4.37488H15.3125V10.9374C15.3142 11.517 15.5453 12.0724 15.9551 12.4823C16.365 12.8921 16.9204 13.1232 17.5 13.1249H24.0625V16.4061H26.25V10.9374C26.2539 10.7936 26.2265 10.6508 26.1699 10.5186C26.1132 10.3864 26.0286 10.2681 25.9219 10.1718L18.2656 2.51551C18.1693 2.4087 18.051 2.32405 17.9188 2.2674C17.7867 2.21075 17.6438 2.18345 17.5 2.18738H6.5625C5.98287 2.18911 5.42748 2.42014 5.01762 2.83C4.60776 3.23986 4.37673 3.79525 4.375 4.37488V30.6249C4.37673 31.2045 4.60776 31.7599 5.01762 32.1698C5.42748 32.5796 5.98287 32.8107 6.5625 32.8124H17.5V30.6249ZM17.5 4.81238L23.625 10.9374H17.5V4.81238Z" fill="#C3C3E5"/>
<path d="M32.192 32L37.504 19.76H37.632L42.944 32H40.256L36.864 23.392L38.544 22.24L34.48 32H32.192ZM35.824 27.744H39.36L40.176 29.696H35.104L35.824 27.744ZM50.9486 23.072C50.5006 22.8267 50.042 22.624 49.5726 22.464C49.114 22.304 48.682 22.224 48.2766 22.224C47.7753 22.224 47.3806 22.3253 47.0926 22.528C46.8046 22.7307 46.6606 23.0347 46.6606 23.44C46.6606 23.7173 46.7673 23.968 46.9806 24.192C47.2046 24.4053 47.4873 24.5973 47.8286 24.768C48.1806 24.9387 48.5433 25.0933 48.9166 25.232C49.258 25.36 49.594 25.5147 49.9246 25.696C50.266 25.8667 50.57 26.0853 50.8366 26.352C51.1033 26.608 51.3166 26.9333 51.4766 27.328C51.6366 27.712 51.7166 28.1867 51.7166 28.752C51.7166 29.3493 51.562 29.904 51.2526 30.416C50.9433 30.928 50.49 31.344 49.8926 31.664C49.2953 31.9733 48.5593 32.128 47.6846 32.128C47.2366 32.128 46.778 32.0853 46.3086 32C45.85 31.904 45.3966 31.7653 44.9486 31.584C44.5006 31.392 44.0686 31.152 43.6526 30.864L44.6766 29.056C44.954 29.2587 45.2526 29.44 45.5726 29.6C45.9033 29.7493 46.234 29.8667 46.5646 29.952C46.8953 30.0373 47.1993 30.08 47.4766 30.08C47.754 30.08 48.0313 30.0427 48.3086 29.968C48.5966 29.8827 48.8313 29.744 49.0126 29.552C49.2046 29.36 49.3006 29.0933 49.3006 28.752C49.3006 28.5173 49.2206 28.304 49.0606 28.112C48.9113 27.92 48.7033 27.744 48.4366 27.584C48.1806 27.424 47.898 27.2853 47.5886 27.168C47.226 27.0293 46.8526 26.8693 46.4686 26.688C46.0846 26.5067 45.722 26.288 45.3806 26.032C45.05 25.7653 44.778 25.44 44.5646 25.056C44.362 24.6613 44.2606 24.1813 44.2606 23.616C44.2606 22.9333 44.41 22.3413 44.7086 21.84C45.018 21.3387 45.45 20.944 46.0046 20.656C46.5593 20.3573 47.1993 20.192 47.9246 20.16C48.874 20.16 49.642 20.272 50.2286 20.496C50.826 20.72 51.3593 20.9867 51.8286 21.296L50.9486 23.072ZM53.1888 20.224H61.1248V22.464H58.2608V32H55.9408V22.464H53.1888V20.224ZM73.2678 20.224V32H70.9478V27.216H65.6838V32H63.3638V20.224H65.6838V24.976H70.9478V20.224H73.2678ZM74.9733 32L80.2853 19.76H80.4133L85.7253 32H83.0373L79.6453 23.392L81.3253 22.24L77.2613 32H74.9733ZM78.6053 27.744H82.1413L82.9573 29.696H77.8853L78.6053 27.744ZM87.4523 20.224L90.8923 28.704L89.5483 28.432L92.6683 20.224H95.4203L90.0443 32.544L84.6683 20.224H87.4523ZM97.4575 20.224H105.49V22.464H99.7775V24.976H104.834V27.216H99.7775V29.76H105.714V32H97.4575V20.224ZM111.474 29.52C111.474 30.544 111.271 31.4187 110.866 32.144C110.46 32.8693 109.895 33.424 109.17 33.808C108.455 34.2027 107.623 34.416 106.674 34.448V32.192C107.399 32.1493 107.991 31.9253 108.45 31.52C108.908 31.1147 109.138 30.432 109.138 29.472V20.224H111.474V29.52Z" fill="#443266"/>
</svg>
