<svg width="20" height="20" viewBox="0 0 20 20" fill="none" xmlns="http://www.w3.org/2000/svg">
<path d="M12.7494 14.5784C14.0574 14.5784 14.5674 15.1614 14.9544 16.4534L15.0224 16.6904C15.2054 17.3474 15.3144 17.5444 15.5354 17.6354C15.7944 17.7424 15.9664 17.7274 16.2384 17.5874L16.3854 17.5054C16.4384 17.4734 16.4954 17.4364 16.5614 17.3934L17.2244 16.9424C17.8404 16.5374 18.3944 16.2694 19.0674 16.1014C19.2592 16.0564 19.461 16.0887 19.6292 16.1912C19.7974 16.2938 19.9185 16.4585 19.9663 16.6496C20.0142 16.8407 19.9848 17.043 19.8847 17.2127C19.7846 17.3824 19.6218 17.5058 19.4314 17.5564C19.0263 17.6594 18.6397 17.8247 18.2854 18.0464L17.9874 18.2364L17.5074 18.5644C17.3207 18.6955 17.126 18.8148 16.9244 18.9214C16.2814 19.2514 15.6544 19.3074 14.9644 19.0214C14.2184 18.7154 13.9184 18.2424 13.6374 17.3014L13.4814 16.7584C13.3004 16.1694 13.1764 16.0784 12.7494 16.0784C12.4394 16.0784 12.1194 16.2334 11.6804 16.6014L11.4964 16.7624L10.5754 17.6374C9.16738 18.9614 7.96638 19.6044 6.24738 19.6044C4.56138 19.6044 3.10338 19.3504 1.87938 18.8354L4.82638 18.0314C5.27338 18.0794 5.74738 18.1044 6.24738 18.1044C7.43038 18.1044 8.27938 17.6894 9.33438 16.7414L9.59238 16.5024L10.1244 15.9924C10.3604 15.7654 10.5384 15.6024 10.7164 15.4524C11.4004 14.8794 12.0214 14.5784 12.7494 14.5784ZM17.0294 1.04844C17.7001 1.71958 18.0769 2.62959 18.0769 3.57844C18.0769 4.52729 17.7001 5.43731 17.0294 6.10844L16.7414 6.39844C17.8924 7.79844 17.8514 9.28444 16.7804 10.3584L14.7794 12.3584C14.6386 12.499 14.4476 12.5779 14.2487 12.5777C14.0497 12.5775 13.8589 12.4983 13.7184 12.3574C13.5778 12.2166 13.499 12.0257 13.4991 11.8267C13.4993 11.6278 13.5786 11.437 13.7194 11.2964L15.7184 9.29844C16.2034 8.81145 16.2584 8.20844 15.6784 7.45944L7.06138 16.0784C6.78425 16.3556 6.43954 16.5555 6.06138 16.6584L0.94638 18.0534C0.81887 18.088 0.684484 18.0883 0.556823 18.0543C0.429161 18.0203 0.312754 17.9531 0.219382 17.8597C0.12601 17.7662 0.0589871 17.6497 0.0250958 17.522C-0.0087955 17.3943 -0.00835236 17.2599 0.0263804 17.1324L1.42038 12.0164C1.52348 11.6386 1.7234 11.2943 2.00038 11.0174L11.9694 1.04844C12.3016 0.716055 12.6961 0.452382 13.1303 0.272487C13.5645 0.0925921 14.0299 0 14.4999 0C14.9699 0 15.4352 0.0925921 15.8694 0.272487C16.3036 0.452382 16.6981 0.716055 17.0304 1.04844H17.0294ZM13.0294 2.10844L3.06138 12.0784C2.96918 12.1708 2.90265 12.2855 2.86838 12.4114L1.81838 16.2614L5.66838 15.2114C5.79377 15.1763 5.90785 15.1091 5.99938 15.0164L15.9694 5.04844C16.1624 4.8554 16.3156 4.62623 16.42 4.374C16.5245 4.12178 16.5783 3.85145 16.5783 3.57844C16.5783 3.30544 16.5245 3.03511 16.42 2.78289C16.3156 2.53066 16.1624 2.30149 15.9694 2.10844C15.7763 1.9154 15.5472 1.76227 15.2949 1.6578C15.0427 1.55332 14.7724 1.49955 14.4994 1.49955C14.2264 1.49955 13.956 1.55332 13.7038 1.6578C13.4516 1.76227 13.2224 1.9154 13.0294 2.10844Z" fill="#C3C3E5"/>
</svg>
