<svg width="151" height="151" viewBox="0 0 151 151" fill="none" xmlns="http://www.w3.org/2000/svg">
<circle cx="75.5" cy="75.5" r="75.5" fill="#443266"/>
<g filter="url(#filter0_d_586_228)">
<path d="M61.792 92.568C61.792 96.792 60.976 100.392 59.344 103.368C57.76 106.344 55.576 108.6 52.792 110.136C50.008 111.72 46.816 112.584 43.216 112.728V105.96C46.576 105.768 49.336 104.568 51.496 102.36C53.704 100.2 54.808 96.864 54.808 92.352V49.944H61.792V92.568ZM76.7849 102V49.944H90.9689C96.1049 49.944 100.473 50.736 104.073 52.32C107.721 53.904 110.649 55.992 112.857 58.584C115.065 61.176 116.673 64.056 117.681 67.224C118.737 70.344 119.265 73.464 119.265 76.584C119.265 80.52 118.569 84.048 117.177 87.168C115.833 90.288 113.961 92.952 111.561 95.16C109.161 97.368 106.401 99.072 103.281 100.272C100.209 101.424 96.9449 102 93.4889 102H76.7849ZM83.7689 95.304H92.1209C95.0009 95.304 97.6409 94.872 100.041 94.008C102.489 93.144 104.601 91.896 106.377 90.264C108.201 88.632 109.617 86.64 110.625 84.288C111.633 81.888 112.137 79.176 112.137 76.152C112.137 72.936 111.609 70.128 110.553 67.728C109.497 65.28 108.057 63.24 106.233 61.608C104.409 59.976 102.345 58.752 100.041 57.936C97.7369 57.072 95.3129 56.64 92.7689 56.64H83.7689V95.304Z" fill="#C3C3E5"/>
</g>
<defs>
<filter id="filter0_d_586_228" x="43.2161" y="49.9438" width="82.0488" height="65.7842" filterUnits="userSpaceOnUse" color-interpolation-filters="sRGB">
<feFlood flood-opacity="0" result="BackgroundImageFix"/>
<feColorMatrix in="SourceAlpha" type="matrix" values="0 0 0 0 0 0 0 0 0 0 0 0 0 0 0 0 0 0 127 0" result="hardAlpha"/>
<feOffset dx="6" dy="3"/>
<feComposite in2="hardAlpha" operator="out"/>
<feColorMatrix type="matrix" values="0 0 0 0 0.764706 0 0 0 0 0.764706 0 0 0 0 0.898039 0 0 0 0.2 0"/>
<feBlend mode="normal" in2="BackgroundImageFix" result="effect1_dropShadow_586_228"/>
<feBlend mode="normal" in="SourceGraphic" in2="effect1_dropShadow_586_228" result="shape"/>
</filter>
</defs>
</svg>
